<svg id="Capa_1" enable-background="new 0 0 512 512" height="512" viewBox="0 0 512 512" width="512" xmlns="http://www.w3.org/2000/svg"><g><path d="m507.612 208.556c2.881 15.374 4.388 31.232 4.388 47.442.001 141.653-115.892 256.833-257.543 255.997-135.642-.8-246.282-107.093-254.024-240.983-.225-3.891 1.829-7.561 5.249-9.43 79.496-43.442 133.417-127.823 133.417-224.798 0-.595-.002-1.189-.006-1.783-.029-4.185 2.329-8.03 6.101-9.843 33.529-16.124 71.112-25.158 110.806-25.158 42.518 0 82.614 10.365 117.901 28.706 4.314 2.242 7.375 6.297 8.528 11.02 16.565 67.833 60.158 125.07 118.721 159.652 3.372 1.992 5.741 5.329 6.462 9.178z" fill="#6dc54a"/><path d="m122 316.784c0-90.644 73.481-164.125 164.125-164.125s164.125 73.481 164.125 164.125-73.481 164.126-164.125 164.126-164.125-73.482-164.125-164.126z" fill="#82cd64"/><path d="m159.962 382.253c-13.668 13.668-35.829 13.668-49.497 0l-58.809-58.809-47.885-47.885-3.26-3.26c-.339-5.39-.511-10.824-.511-16.299 0-15.192 1.323-30.075 3.861-44.539l51.418 51.418c13.211-6.952 29.933-4.874 41.044 6.237l63.64 63.64c13.668 13.668 13.668 35.829-.001 49.497z" fill="#faa68e"/><path d="m469.396 276.392-47.052 47.052c-23.432 23.431-61.421 23.431-84.853 0l-120.857-120.858c-23.432-23.432-23.432-61.421 0-84.853l47.052-47.052c30.035-30.035 69.938-44.189 109.273-42.462 69.168 35.588 120.026 101.755 134.709 180.639-6.168 24.747-18.925 48.187-38.272 67.534z" fill="#c38778"/><path d="m414.08 331.708-114.268 114.268c-13.668 13.668-35.829 13.668-49.498 0-8.238-8.238-11.511-19.562-9.818-30.251l-25.468 25.468c-13.668 13.668-35.829 13.668-49.498 0-8.238-8.238-11.511-19.562-9.818-30.251l-17.962 17.808c-13.668 13.668-35.829 13.668-49.497 0-13.668-13.668-13.668-35.829 0-49.497l7.963-7.808c-10.689 1.692-22.013-1.58-30.251-9.818-13.668-13.668-13.668-35.829 0-49.498l164.267-164.269c13.668-13.668 35.829-13.668 49.497 0 9.893 9.893 12.625 24.236 8.197 36.587 12.351-4.428 26.693-1.697 36.587 8.197 9.893 9.894 12.625 24.236 8.197 36.587 12.351-4.429 26.693-1.697 36.587 8.197 9.893 9.893 12.625 24.236 8.197 36.587 12.351-4.429 26.693-1.697 36.587 8.197 13.668 13.667 13.668 35.828-.001 49.496z" fill="#c38778"/><path d="m262.81 157.929-186.778 186.777c-4.975 4.975-8.139 11.076-9.492 17.482-.193-.185-.386-.372-.576-.563-13.668-13.668-13.668-35.829 0-49.498l164.268-164.267c13.669-13.668 37.553 5.093 32.578 10.069zm66.989 69.498-164.268 164.268c-13.668 13.668-13.668 35.829 0 49.498.19.19.382.377.576.563 1.353-6.407 4.517-12.507 9.492-17.482l186.778-186.777c4.975-4.977-18.909-23.738-32.578-10.07zm-84.783-4.783-156.764 156.609c-13.668 13.668-13.668 35.829 0 49.498.19.19.382.377.576.563 1.353-6.407 4.517-12.507 9.492-17.482l179.273-179.118c4.976-4.977-18.909-23.739-32.577-10.07z" fill="#a65d4e"/><path d="m364.864 314.798c10.383 10.383 12.878 25.666 7.487 38.405-12.739 5.391-28.022 2.896-38.405-7.487l-121.256-121.256c-10.383-10.383-12.878-25.666-7.487-38.405 12.739-5.391 28.022-2.896 38.405 7.487zm-172.433 8.136c-.364-.364-.735-.719-1.111-1.064-19.526-17.907-47.826 10.394-29.919 29.919.345.376.699.746 1.064 1.111l72.317 72.317c10.2 10.2 25.13 12.788 37.73 7.764 5.024-12.6 2.436-27.53-7.764-37.73z" fill="#ffcdbe"/><path d="m364.864 314.798c13.668 13.668 13.668 35.829 0 49.498-8.238 8.238-19.562 11.511-30.251 9.818l11.785 11.785c13.668 13.668 13.668 35.829 0 49.497-13.668 13.668-35.829 13.668-49.497 0l-21.451-21.451c1.692 10.689-1.58 22.013-9.818 30.251-13.668 13.668-35.829 13.668-49.497 0l-134.35-134.35c-1.412-1.412 5.338-9.938 4.218-11.512-16.612-16.623-68.968-65.56-82.95-81.966 13.218-85.072 68.328-156.286 143.578-191.896 18.322 7.089 35.498 18.025 50.283 32.81l60.452 60.451c3.08 3.08 5.755 6.411 8.025 9.928 2.786 1.547 5.405 3.502 7.771 5.867l92.971 92.971c13.668 13.668 13.668 35.829 0 49.497-8.238 8.238-19.562 11.511-30.251 9.818z" fill="#ffbeaa"/><path d="m7.157 195.639 253.018 253.018c-13.589 8.996-32.072 7.509-44.042-4.461l-134.383-134.383c-1.399-1.403-2.654-2.895-3.766-4.457-18.401-18.414-54.272-54.303-76.55-76.607 1.192-11.271 3.116-22.324 5.723-33.11zm361.589 123.769c-1.141-1.618-2.435-3.162-3.883-4.61l-28.982-28.982c7.885 1.248 16.115-.205 23.197-4.361l-78.737-78.737c-3.905-3.905-10.237-3.905-14.142 0s-3.905 10.237 0 14.142zm-146.702-72.533c-3.905 3.905-3.905 10.237 0 14.142l113.189 113.189c7.988 1.119 16.288-.522 23.359-4.925l-122.406-122.406c-3.905-3.906-10.237-3.906-14.142 0zm-35.954 50.095c-3.905-3.905-10.237-3.905-14.142 0s-3.905 10.237 0 14.142l103.615 103.615c-.035-.261-.073-.522-.114-.782l21.451 21.451c9.495 9.495 23.09 12.394 35.088 8.696-.487-1.274-1.243-2.468-2.27-3.495z" fill="#faa68e"/><path d="m307 125.515-95.355 95.355c-19.526 19.526-51.184 19.526-70.71 0-7.81-7.811-7.81-20.474 0-28.284l116.568-116.569c13.668-13.668 35.829-13.668 49.497 0 13.668 13.669 13.668 35.829 0 49.498z" fill="#c38778"/><path d="m319.034 69.73c-4.498 3.614-18.079 15.812-19.795 17.528l-127.743 127.743c-5.256 5.256-23.583 12.848-30.562 5.869-7.811-7.811-7.811-20.474 0-28.284l116.568-116.569c1.566-1.566 11.225-10.2 13.841-12.469 28.981-25.137 65.537-36.913 101.615-35.329 5.59 2.876 11.06 5.952 16.402 9.218-25.138 4.689-49.367 15.452-70.326 32.293zm143.125 54.194c-3.905-3.905-10.237-3.905-14.142 0-35.091 35.091-92.188 35.091-127.279 0-3.905-3.905-10.237-3.905-14.142 0s-3.905 10.237 0 14.142c42.889 42.889 112.674 42.889 155.563 0 3.905-3.905 3.905-10.237 0-14.142z" fill="#a65d4e"/><path d="m174.916 186.12c7.81 7.81 7.81 20.474 0 28.284l-10.607 10.607c-5.858 5.858-15.355 5.858-21.213 0l-7.071-7.071c-5.858-5.858-5.858-15.355 0-21.213l10.606-10.607c7.811-7.81 20.474-7.81 28.285 0zm166.468 93.413c5.858 5.858 15.355 5.858 21.213 0l7.071-7.071c5.858-5.858 5.858-15.355 0-21.213l-10.607-10.606c-7.811-7.811-20.474-7.811-28.284 0-7.811 7.811-7.811 20.474 0 28.284zm-82.825 129.307c-7.81-7.81-20.474-7.81-28.284 0-7.811 7.81-7.811 20.474 0 28.284l10.607 10.607c5.858 5.858 15.355 5.858 21.213 0l7.071-7.071c5.858-5.858 5.858-15.355 0-21.213zm80.767-8.799c-7.81-7.811-20.474-7.811-28.284 0-7.811 7.811-7.811 20.474 0 28.284l10.607 10.607c5.858 5.858 15.355 5.858 21.213 0l7.071-7.071c5.858-5.858 5.858-15.355 0-21.213zm18.466-71.101c-7.811-7.81-20.474-7.81-28.284 0-7.81 7.81-7.81 20.474 0 28.284l10.607 10.606c5.858 5.858 15.355 5.858 21.213 0l7.071-7.071c5.858-5.858 5.858-15.355 0-21.213z" fill="#fff5f5"/></g></svg>