<svg id="Capa_1" enable-background="new 0 0 512 512" height="512" viewBox="0 0 512 512" width="512" xmlns="http://www.w3.org/2000/svg"><g><path d="m512 256c0 141.385-114.615 256-256 256-63.831 0-122.205-23.361-167.039-62-54.475-46.946-88.519-211.451-87.657-220 13.029-129.173 122.088-230 254.696-230 141.385 0 256 114.615 256 256z" fill="#ff9f22"/><path d="m512 185c0 102.173-82.827 185-185 185s-185-82.827-185-185 82.827-185 185-185 185 82.827 185 185z" fill="#ffc14f"/><path d="m460 217c0 70.14-56.86 127-127 127s-127-56.86-127-127 56.86-127 127-127 127 56.86 127 127z" fill="#ffcd71"/><path d="m446.521 80.088-32.754 60.958c-1.594 2.967-.069 6.65 3.156 7.62l66.264 19.943c5.054 1.521 5.054 8.678 0 10.199l-66.264 19.943c-3.225.971-4.751 4.654-3.156 7.62l32.754 60.958c2.498 4.65-2.562 9.71-7.212 7.212l-60.958-32.754c-2.967-1.594-6.65-.069-7.62 3.156l-19.943 66.264c-1.521 5.054-8.678 5.054-10.199 0l-19.943-66.264c-.971-3.225-4.654-4.751-7.62-3.156l-60.958 32.754c-4.65 2.498-9.71-2.562-7.212-7.212l32.754-60.958c1.594-2.967.069-6.65-3.156-7.62l-66.264-19.943c-5.054-1.521-5.054-8.678 0-10.199l66.264-19.943c3.225-.971 4.751-4.654 3.156-7.62l-32.754-60.958c-2.498-4.65 2.562-9.71 7.212-7.212l60.958 32.754c2.967 1.594 6.65.069 7.62-3.156l19.943-66.264c1.521-5.054 8.678-5.054 10.199 0l19.943 66.264c.971 3.225 4.654 4.751 7.62 3.156l60.958-32.754c4.65-2.499 9.711 2.562 7.212 7.212z" fill="#f5e8b4"/><path d="m483.188 178.809-66.264 19.943c-3.225.971-4.751 4.654-3.157 7.621l1.352 2.516c-57.33-16.17-103.363-59.28-123.569-114.797l21.473 11.538c2.967 1.594 6.65.068 7.621-3.157l19.943-66.264c1.521-5.054 8.678-5.054 10.199 0l19.943 66.264c.971 3.225 4.654 4.751 7.621 3.157l60.958-32.753c4.65-2.499 9.71 2.562 7.212 7.212l-32.754 60.958c-1.594 2.967-.068 6.65 3.157 7.621l66.264 19.943c5.055 1.519 5.055 8.677.001 10.198z" fill="#f9f1d2"/><path d="m349.094 103.954 20.794 43.767c.372.784 1.004 1.415 1.788 1.788l43.767 20.794c2.87 1.364 2.87 5.448 0 6.812l-43.767 20.794c-.784.372-1.415 1.004-1.788 1.788l-20.794 43.767c-1.364 2.87-5.448 2.87-6.812 0l-20.794-43.767c-.372-.784-1.004-1.415-1.788-1.788l-43.767-20.794c-2.87-1.364-2.87-5.448 0-6.812l43.767-20.794c.784-.372 1.415-1.004 1.788-1.788l20.794-43.767c1.364-2.87 5.448-2.87 6.812 0z" fill="#ff9100"/><path d="m376.891 195.432-5.215 2.478c-.784.372-1.415 1.004-1.788 1.788l-20.794 43.767c-1.364 2.87-5.448 2.87-6.812 0l-20.794-43.767c-.372-.784-1.004-1.415-1.788-1.788l-43.767-20.794c-2.87-1.364-2.87-5.448 0-6.812l43.767-20.794c.248-.118.48-.262.694-.428 10.799 22.855 31.463 40.136 56.497 46.35z" fill="#f76937"/><path d="m448.613 27.604 10.27 21.616c.395.832 1.065 1.501 1.896 1.896l21.616 10.27c3.045 1.447 3.045 5.779 0 7.226l-21.616 10.27c-.832.395-1.501 1.065-1.896 1.896l-10.27 21.616c-1.447 3.045-5.779 3.045-7.226 0l-10.27-21.616c-.395-.832-1.065-1.501-1.896-1.896l-21.616-10.27c-3.045-1.447-3.045-5.779 0-7.226l21.616-10.27c.832-.395 1.501-1.065 1.896-1.896l10.27-21.616c1.447-3.044 5.779-3.044 7.226 0z" fill="#ff9100"/><path d="m201.71 89.703 8.105 17.06c.296.624.799 1.126 1.422 1.422l17.059 8.105c2.283 1.085 2.283 4.335 0 5.419l-17.059 8.105c-.624.296-1.126.799-1.422 1.422l-8.105 17.059c-1.085 2.283-4.335 2.283-5.419 0l-8.105-17.059c-.296-.624-.799-1.126-1.422-1.422l-17.059-8.105c-2.283-1.085-2.283-4.335 0-5.419l17.059-8.105c.624-.296 1.126-.799 1.422-1.422l8.105-17.06c1.084-2.283 4.334-2.283 5.419 0zm256.58 120-4.884 10.28c-.296.624-.799 1.126-1.422 1.422l-10.28 4.884c-2.283 1.085-2.283 4.335 0 5.419l10.28 4.884c.624.296 1.126.799 1.422 1.422l4.884 10.28c1.085 2.283 4.335 2.283 5.419 0l4.884-10.28c.296-.624.799-1.126 1.422-1.422l10.28-4.884c2.283-1.085 2.283-4.335 0-5.419l-10.28-4.884c-.624-.296-1.126-.799-1.422-1.422l-4.884-10.28c-1.084-2.283-4.334-2.283-5.419 0z" fill="#ffa90b"/><path d="m394.198 40.807-8.435 4.008c-.416.197-.751.532-.948.948l-4.008 8.435c-.723 1.522-2.89 1.522-3.613 0l-4.008-8.435c-.198-.416-.532-.751-.948-.948l-8.435-4.008c-1.522-.724-1.522-2.89 0-3.613l8.435-4.008c.416-.198.751-.532.948-.948l4.008-8.435c.723-1.522 2.89-1.522 3.613 0l4.008 8.435c.198.416.532.751.948.948l8.435 4.008c1.522.723 1.522 2.889 0 3.613zm-235 133.386-8.435-4.008c-.416-.197-.751-.532-.948-.948l-4.008-8.435c-.723-1.522-2.89-1.522-3.613 0l-4.008 8.435c-.198.416-.532.751-.948.948l-8.435 4.008c-1.522.724-1.522 2.89 0 3.613l8.435 4.008c.416.197.751.532.948.948l4.008 8.435c.723 1.522 2.89 1.522 3.613 0l4.008-8.435c.198-.416.532-.751.948-.948l8.435-4.008c1.522-.723 1.522-2.889 0-3.613z" fill="#f5e8b4"/><path d="m274.955 19.017 5.618 11.825c.198.416.532.751.948.948l11.825 5.618c1.522.723 1.522 2.89 0 3.613l-11.825 5.618c-.416.198-.751.532-.948.948l-5.618 11.825c-.723 1.522-2.89 1.522-3.613 0l-5.618-11.825c-.198-.416-.532-.751-.948-.948l-11.825-5.618c-1.522-.723-1.522-2.89 0-3.613l11.825-5.618c.416-.198.751-.532.948-.948l5.618-11.825c.724-1.523 2.89-1.523 3.613 0z" fill="#fff5f5"/><path d="m497.093 301.918-3.636 4.51c-42.6 52.847-106.832 83.572-174.712 83.572h-6.676c-19.077 0-37.796-5.185-54.155-15-16.359-9.815-35.077-15-54.155-15h-59.759v-120h270.423c11.046 0 20 8.954 20 20s-8.954 20-20 20h-77.271c-8.284 0-15 6.716-15 15s6.716 15 15 15h56.699c19.191 0 38.118-4.468 55.282-13.05l31.02-15.51c3.632-1.815 7.979-1.963 11.875-.162 8.221 3.801 10.392 13.315 5.065 20.64z" fill="#a65d4e"/><path d="m497.093 301.918-3.636 4.511c-42.601 52.847-106.832 83.571-174.712 83.571h-6.676c-1.987 0-4.23-.208-6.657-.584-34.065-5.267-58.944-35.044-58.944-69.514v-9.441c0-38.915 31.547-70.462 70.462-70.462h97.494c11.288 0 20.391 9.351 19.987 20.729-.386 10.839-9.623 19.272-20.467 19.272h-76.791c-8.525 0-15.389 7.111-14.983 15.725.38 8.068 7.33 14.275 15.407 14.275h56.276c19.19 0 38.117-4.468 55.282-13.05l31.02-15.51c3.632-1.815 7.979-1.963 11.875-.162 8.219 3.801 10.39 13.315 5.063 20.64z" fill="#b46e5a"/><path d="m435.553 259.426c0 6.486-7.43 11.745-16.596 11.745s-16.596-5.258-16.596-11.745c0-6.486 7.43-11.745 16.596-11.745s16.596 5.258 16.596 11.745z" fill="#d47f6c"/><path d="m160 230v220h-71.039c-54.474-46.946-88.961-116.446-88.961-194 0-8.777.442-17.451 1.304-26z" fill="#232e7a"/><path d="m104.141 390c-22.277 0-42.536-13.188-51.273-33.68-13.135-30.807-20.404-64.715-20.404-100.32 0-8.777.442-17.451 1.304-26h126.232v104.141c0 30.85-25.009 55.859-55.859 55.859z" fill="#2b3894"/><path d="m140 445v-145.212c0-8.284 6.716-15 15-15 8.284 0 15 6.716 15 15v145.212c0 8.284-6.716 15-15 15-8.284 0-15-6.716-15-15z" fill="#3342ae"/><path d="m140 373.872v-138.872c0-8.284 6.716-15 15-15 8.284 0 15 6.716 15 15v138.872c0 8.284-6.716 15-15 15-8.284 0-15-6.715-15-15z" fill="#3d4ec6"/></g></svg>