<svg id="Capa_1" enable-background="new 0 0 512 512" height="512" viewBox="0 0 512 512" width="512" xmlns="http://www.w3.org/2000/svg"><g><path d="m512 256c0 81.39-37.99 153.91-97.2 200.81-2.069 1.637-10.943.191-13.062 1.764-2.489 1.847 1.767 6.7-.788 8.456-15.685 10.798-32.634 19.891-50.579 27.013-29.202 11.589-68.273-42.785-101.602-42.785-123.708 0-177.577-55.867-243.568-143.667-3.41-16.664-5.201-33.918-5.201-51.591 0-141.38 114.62-256 256-256s256 114.62 256 256z" fill="#453d81"/><path d="m365.394 367.22c-5.627 0-10.189-4.562-10.189-10.189 0-14.247 8.321-21.581 14.397-26.935 5.55-4.891 7.492-7.016 7.492-11.647 0-4.63-1.942-6.755-7.492-11.646-6.076-5.354-14.397-12.688-14.397-26.935 0-14.246 8.322-21.579 14.398-26.933 5.55-4.89 7.492-7.014 7.492-11.643 0-5.627 4.562-10.189 10.189-10.189s10.189 4.562 10.189 10.189c0 14.246-8.322 21.579-14.398 26.933-5.55 4.89-7.492 7.014-7.492 11.643 0 4.631 1.942 6.755 7.492 11.647 6.076 5.354 14.397 12.688 14.397 26.935s-8.321 21.581-14.397 26.935c-5.55 4.891-7.492 7.016-7.492 11.647.001 5.626-4.561 10.188-10.189 10.188z" fill="#da387d"/><path d="m124.009 179c-5.627 0-10.189-4.562-10.189-10.189 0-14.247 8.321-21.58 14.397-26.935 5.55-4.891 7.492-7.016 7.492-11.647 0-4.63-1.942-6.755-7.492-11.646-6.076-5.354-14.397-12.688-14.397-26.935 0-14.246 8.322-21.579 14.398-26.933 5.55-4.89 7.492-7.014 7.492-11.643 0-5.627 4.562-10.189 10.189-10.189s10.189 4.562 10.189 10.189c0 14.246-8.322 21.579-14.398 26.933-5.55 4.89-7.492 7.014-7.492 11.643 0 4.631 1.942 6.755 7.492 11.647 6.076 5.354 14.397 12.688 14.397 26.935s-8.321 21.581-14.397 26.935c-5.55 4.891-7.492 7.016-7.492 11.647.001 5.626-4.561 10.188-10.189 10.188z" fill="#da387d"/><g><g fill="#ac80dd"><circle cx="286.81" cy="352.629" r="62.518"/><path d="m362.74 452.5c0 15.33-4.55 29.6-12.37 41.54-21.219 8.422-43.833 14.088-67.399 16.556-8.863.928-17.861-12.419-26.971-12.419-5.73 0-11.41-.19-17.04-.56-17.13-13.91-28.08-21.327-28.08-45.117 0-41.93 34-75.93 75.93-75.93s75.93 34 75.93 75.93z"/><path d="m237.389 50.243c-20.937 0-37.91 16.973-37.91 37.91v45.891h75.819v-45.891c.001-20.937-16.972-37.91-37.909-37.91z"/></g><path d="m248.7 51.953c-15.42 4.82-26.61 19.21-26.61 36.2v45.89h-22.61v-45.89c0-20.93 16.97-37.91 37.91-37.91 3.94 0 7.73.6 11.31 1.71z" fill="#9d66d5"/><g><path d="m310.314 165.988-8.354-159.122c-.399-7.595-10.742-9.515-13.839-2.568l-64.895 145.528z" fill="#b1e4f9"/><g fill="#90d8f9"><path d="m296.05.128c-.812-.151-1.962 1.517-2.869 5.11l-38.043 150.511-31.912-5.923 64.888-145.529c1.551-3.473 4.919-4.729 7.936-4.169z"/><path d="m230.655 138.815c-3.965-.736-7.227-3.882-7.913-8.091-.873-5.361 2.765-10.415 8.126-11.289l75.286-12.269c5.363-.874 10.415 2.765 11.289 8.126s-2.765 10.415-8.126 11.289l-75.286 12.269c-1.152.187-2.29.166-3.376-.035z"/><path d="m252.849 89.065c-3.964-.736-7.226-3.882-7.912-8.09-.874-5.361 2.763-10.416 8.124-11.29l50.684-8.266c5.36-.874 10.415 2.763 11.29 8.124.874 5.361-2.763 10.416-8.124 11.29l-50.684 8.266c-1.153.188-2.292.167-3.378-.034z"/><path d="m275.034 39.312c-3.965-.736-7.227-3.883-7.913-8.092-.873-5.361 2.765-10.415 8.126-11.288l26.104-4.252c5.36-.875 10.415 2.765 11.288 8.126s-2.765 10.415-8.126 11.288l-26.104 4.252c-1.152.188-2.29.167-3.375-.034z"/></g></g><path d="m167.134 57.892c29.306 0 53.064 23.758 53.064 53.064s-23.758 53.064-53.064 53.064z" fill="#ffceec"/><path d="m266.48 184.59h-51.03c.14 1.88.24 3.78.24 5.69 0 37.45-28.15 68.3-64.44 72.59 1.04 4.91 1.59 9.99 1.59 15.21 0 32.48-21.2 60.01-50.51 69.53 6.13 11.76 9.61 25.12 9.61 39.29 0 23.83 17.652 18.248 1.882 33.698-8.64-7.64-15.878-5.7-23.408-14.43-5.13-5.95-38.314 4.832-42.894-1.578-20.93-29.31-35.83-63.22-42.89-99.92 2.1-.58 4.24-1.07 6.41-1.47-2.87-7.83-4.43-16.3-4.43-25.12 0-37.45 28.15-68.3 64.44-72.59-1.04-4.91-1.59-9.99-1.59-15.21 0-40.38 32.73-73.11 73.11-73.11h92.08c17.58 0 31.83 14.25 31.83 31.82z" fill="#ac80dd"/><path d="m120.33 190.28c0 5.22.56 10.3 1.6 15.21-36.29 4.29-64.45 35.14-64.45 72.59 0 8.82 1.57 17.29 4.44 25.12-20.08 3.75-37.68 14.54-50.14 29.72-2.91-9.2-5.3-18.63-7.15-28.25 2.1-.58 4.24-1.07 6.41-1.47-2.87-7.83-4.43-16.3-4.43-25.12 0-37.45 28.15-68.3 64.44-72.59-1.04-4.91-1.59-9.99-1.59-15.21 0-40.38 32.73-73.11 73.11-73.11h50.88c-40.38 0-73.12 32.73-73.12 73.11z" fill="#9d66d5"/><path d="m445.96 153.61h-269.92v100.46c0 51.21 41.52 92.73 92.73 92.73 19.55 0 37.69-6.05 52.64-16.38s26.72-24.93 33.54-42.05h66.658c3.947 11.487 14.834 19.75 27.662 19.75 8.07 0 15.39-3.27 20.68-8.57s8.57-12.61 8.57-20.69v-11.92l-18.255-29.173 18.255-23.477v-28.12c0-17.98-14.58-32.56-32.56-32.56z" fill="#ffddf1"/><path d="m282.97 304.03v206.56c-8.86.93-17.86 1.41-26.97 1.41-77.51 0-146.97-34.45-193.91-88.87l113.96-269.52z" fill="#ffddf1"/><path d="m197.67 294.87-84.84 173.38c-18.85-12.75-35.92-27.94-50.74-45.12-5.13-5.95-9.99-12.13-14.57-18.54l128.53-250.98 18.48 26z" fill="#ffceec"/><path d="m64.468 153.606c0 33.687 27.309 60.996 60.996 60.996s60.996-27.309 60.996-60.996z" fill="#ffceec"/><path d="m430.578 203.283c-6.097 0-11.039-4.942-11.039-11.039 0-6.097 4.942-11.039 11.039-11.039 6.097 0 11.039 4.942 11.039 11.039 0 6.097-4.942 11.039-11.039 11.039z" fill="#eaaadd"/><path d="m462.52 203.283c-6.097 0-11.039-4.942-11.039-11.039 0-6.097 4.942-11.039 11.039-11.039 6.097 0 11.039 4.942 11.039 11.039 0 6.097-4.943 11.039-11.039 11.039z" fill="#eaaadd"/><path d="m281.882 345.876c-4.28.61-8.66.92-13.11.92-51.21 0-92.73-41.52-92.73-92.73v-100.46h26.16v100.46c0 46.78 34.65 85.47 79.68 91.81z" fill="#ffceec"/><path d="m478.52 214.29v52.65c-3.47.47-6.94.9-10.41 1.28-4.26.47-8.53.88-12.81 1.21-9.04.73-18.1 1.16-27.17 1.29-4.28.06-8.57.06-12.86 0-10.67-.17-21.33-.74-31.97-1.71-4.27-.39-8.54-.85-12.8-1.37-2.33-.28-4.65-.59-6.97-.91-15-2.08-25.16-16.35-22.09-31.19.04-.17.07-.34.11-.51 2.79-13.48 15.55-22.46 29.18-20.57 1.56.22 3.13.43 4.69.62 4.25.54 8.52 1 12.78 1.39 9.01.82 18.04 1.31 27.07 1.47 4.29.08 8.58.08 12.86 0 7.77-.13 15.53-.5 23.28-1.12 4.27-.35 8.54-.76 12.8-1.26 2.91-.33 5.8-.7 8.7-1.1 1.9-.26 3.78-.32 5.61-.17z" fill="#f9f6f9"/><path d="m428.13 217.94v52.78c-4.28.06-8.57.06-12.86 0v-52.78c4.29.08 8.58.08 12.86 0z" fill="#ebebeb"/><path d="m468.11 268.22c-4.26.47-8.53.88-12.81 1.21l-3.89-52.61c4.27-.35 8.54-.76 12.8-1.26z" fill="#ebebeb"/><path d="m388.2 216.47-4.9 52.54c-4.27-.39-8.54-.85-12.8-1.37l4.92-52.56c4.25.54 8.52 1 12.78 1.39z" fill="#ebebeb"/><circle cx="231.276" cy="215.622" fill="#da387d" r="31.259"/><path d="m270.79 182.934c-5.522 0-10-4.477-10-10 0-9.028-7.345-16.373-16.374-16.373s-16.373 7.345-16.373 16.373c0 5.523-4.477 10-10 10s-10-4.477-10-10c0-20.056 16.317-36.373 36.373-36.373s36.374 16.317 36.374 36.373c0 5.523-4.478 10-10 10z" fill="#453d81"/><path d="m350.394 182.934c-5.522 0-10-4.477-10-10 0-9.028-7.345-16.373-16.373-16.373s-16.373 7.345-16.373 16.373c0 5.523-4.478 10-10 10s-10-4.477-10-10c0-20.056 16.316-36.373 36.373-36.373s36.373 16.317 36.373 36.373c0 5.523-4.477 10-10 10z" fill="#453d81"/></g><g><path d="m63.059 25.313 3.191 6.466c1.654 3.352 4.853 5.676 8.552 6.213l7.136 1.037c9.316 1.354 13.036 12.803 6.295 19.374l-5.163 5.033c-2.677 2.609-3.899 6.369-3.267 10.054l1.219 7.107c1.591 9.279-8.148 16.354-16.48 11.974l-6.382-3.355c-3.309-1.74-7.262-1.74-10.571 0l-6.382 3.355c-8.333 4.381-18.072-2.695-16.48-11.974l1.219-7.107c.632-3.685-.59-7.444-3.267-10.054l-5.163-5.033c-6.741-6.571-3.021-18.02 6.295-19.374l7.136-1.037c3.7-.538 6.898-2.861 8.552-6.213l3.191-6.466c4.165-8.442 16.203-8.442 20.369 0z" fill="#b1e4f9"/><path d="m59.661 21.211c-1.372 1.012-2.548 2.376-3.395 4.1l-3.193 6.461c-1.656 3.358-4.857 5.681-8.552 6.214l-7.135 1.042c-9.317 1.349-13.034 12.802-6.296 19.375l5.164 5.029c2.676 2.608 3.898 6.371 3.268 10.051l-1.222 7.113c-.795 4.64 1.244 8.732 4.535 11.115l-1.627.855c-8.327 4.385-18.071-2.698-16.475-11.97l1.214-7.113c.629-3.68-.585-7.443-3.268-10.051l-5.164-5.029c-6.738-6.573-3.021-18.026 6.296-19.375l7.136-1.042c3.703-.532 6.903-2.856 8.552-6.214l3.193-6.461c3.32-6.723 11.617-8.095 16.969-4.1z" fill="#90d8f9"/></g><path d="m14.604 176.466c-.892 0-1.787-.025-2.684-.076-4.261-.241-7.519-3.89-7.278-8.15.241-4.261 3.884-7.527 8.151-7.277 10.522.594 20.631-4.045 27.039-12.415 2.594-3.388 7.443-4.033 10.832-1.438 3.387 2.594 4.031 7.444 1.438 10.831-8.975 11.724-22.838 18.525-37.498 18.525z" fill="#ac80dd"/><path d="m331.795 59.994c-.568-.689-1.117-1.395-1.648-2.12-2.524-3.441-1.78-8.277 1.662-10.8s8.279-1.789 10.8 1.662c6.233 8.498 16.242 13.349 26.777 12.972 4.264-.153 7.845 3.179 7.998 7.445.152 4.264-3.181 7.845-7.445 7.998-14.757.53-28.821-5.843-38.144-17.157z" fill="#ac80dd"/><path d="m152.725 480.232c-.882-.137-1.762-.3-2.641-.488-4.173-.893-6.832-5-5.938-9.172.894-4.173 4.995-6.84 9.173-5.938 10.306 2.204 21.007-.825 28.626-8.11 3.084-2.949 7.974-2.841 10.924.244 2.948 3.084 2.839 7.975-.245 10.924-10.67 10.205-25.413 14.794-39.899 12.54z" fill="#b3e59f"/><path d="m259.251 437.607c-.216 0-.435-.009-.654-.028-15.609-1.309-29.52-10.237-37.21-23.884-2.095-3.717-.78-8.429 2.938-10.524 3.718-2.094 8.429-.78 10.524 2.938 5.176 9.183 14.536 15.191 25.04 16.072 4.252.357 7.41 4.093 7.053 8.345-.338 4.032-3.716 7.081-7.691 7.081z" fill="#90d8f9"/><path d="m136.259 274.654c-.201.079-.408.15-.619.214-15.007 4.488-31.219 1.265-43.366-8.625-3.309-2.694-3.808-7.56-1.114-10.87 2.695-3.308 7.56-3.808 10.87-1.114 8.175 6.654 19.084 8.824 29.183 5.804 4.088-1.223 8.393 1.1 9.616 5.188 1.159 3.877-.87 7.95-4.57 9.403z" fill="#90d8f9"/><path d="m414.8 456.81c-4.5 3.56-9.12 6.97-13.85 10.22-10.62-6.69-18.23-17.41-20.94-29.92-.91-4.17 1.74-8.28 5.91-9.19 4.17-.9 8.29 1.75 9.19 5.92 2.24 10.3 9.41 18.8 19.19 22.74.17.07.34.14.5.23z" fill="#da387d"/><g><circle cx="425.438" cy="81.473" fill="#da387d" r="22.953"/><path d="m431.746 103.542c-2 .57-4.11.88-6.3.88-12.68 0-22.96-10.28-22.96-22.95 0-12.68 10.28-22.96 22.96-22.96 2.19 0 4.3.31 6.3.88-9.61 2.74-16.64 11.59-16.64 22.08 0 10.48 7.03 19.33 16.64 22.07z" fill="#c3247d"/></g><g><circle cx="111.94" cy="386.9" fill="#da387d" r="22.953"/><path d="m118.247 408.97c-2 .57-4.11.88-6.3.88-12.68 0-22.96-10.28-22.96-22.95 0-12.68 10.28-22.96 22.96-22.96 2.19 0 4.3.31 6.3.88-9.61 2.74-16.64 11.59-16.64 22.08 0 10.48 7.03 19.33 16.64 22.07z" fill="#c3247d"/></g><g><path d="m447.308 340.327 3.191 6.466c1.654 3.352 4.853 5.676 8.552 6.213l7.136 1.037c9.316 1.354 13.036 12.803 6.295 19.374l-5.163 5.033c-2.677 2.609-3.899 6.369-3.267 10.054l1.219 7.107c1.591 9.279-8.148 16.354-16.48 11.974l-6.382-3.355c-3.309-1.74-7.262-1.74-10.571 0l-6.382 3.355c-8.333 4.381-18.072-2.695-16.48-11.974l1.219-7.107c.632-3.685-.59-7.444-3.267-10.054l-5.163-5.033c-6.741-6.571-3.021-18.02 6.295-19.374l7.136-1.037c3.7-.538 6.898-2.861 8.552-6.213l3.191-6.466c4.164-8.442 16.202-8.442 20.369 0z" fill="#b3e59f"/><path d="m443.909 336.225c-1.372 1.012-2.548 2.376-3.395 4.1l-3.193 6.461c-1.656 3.358-4.857 5.681-8.552 6.214l-7.135 1.042c-9.317 1.349-13.034 12.802-6.296 19.375l5.164 5.029c2.676 2.608 3.898 6.371 3.268 10.051l-1.222 7.113c-.795 4.64 1.244 8.732 4.535 11.115l-1.627.855c-8.327 4.385-18.071-2.698-16.475-11.97l1.214-7.113c.629-3.68-.585-7.443-3.268-10.051l-5.164-5.029c-6.738-6.573-3.021-18.026 6.296-19.375l7.136-1.042c3.703-.532 6.903-2.856 8.552-6.214l3.193-6.461c3.32-6.723 11.617-8.095 16.969-4.1z" fill="#78c2a4"/></g></g></svg>