<svg id="Capa_1" enable-background="new 0 0 512 512" height="512" viewBox="0 0 512 512" width="512" xmlns="http://www.w3.org/2000/svg"><g><path d="m512 256c0 141.38-114.62 256-256 256-40.09 0-78.03-9.22-111.81-25.64-31.72-15.43-50.5-62.95-73.23-89.44-15.05-17.53-37.05-11.38-46.95-32.55-15.41-32.91-24.01-69.64-24.01-108.37 0-141.38 114.62-256 256-256s256 114.62 256 256z" fill="#50405a"/><g><path d="m349.907 475.952c-6.708 6.708-14.551 12.499-23.429 17.062l-8.613 4.426c-22.3 11.46-47.728 13.551-71.6 5.887-23.872-7.665-43.331-24.167-54.791-46.467l-66.164-128.743 175.584-90.237 66.165 128.743c19.095 37.155 10.918 81.26-17.152 109.329zm-42.828-20.686c25.218-12.961 35.192-44.024 22.232-69.243l-46.764-90.997-100.089 51.438 46.764 90.996c6.278 12.217 16.939 21.258 30.017 25.457 13.079 4.199 27.009 3.054 39.227-3.225z" fill="#d4daf8"/><path d="m203.104 45.65 261.028 261.028-94.982 46.726-212.771-212.772z" fill="#e9eeff"/><path d="m156.379 140.632 212.771 212.772-215.382 105.966-103.348-103.348z" fill="#f4db51"/><path d="m203.104 45.65 81.62 81.62-61.821 79.887-66.524-66.525z" fill="#d4daf8"/><path d="m156.379 140.632 66.524 66.525-140.169 181.179-32.314-32.314z" fill="#ebb040"/><path d="m488.444 308.753-15.254 15.254c-12.598 12.598-33.023 12.598-45.622 0l-241.79-241.79c-12.598-12.598-12.598-33.024 0-45.622l15.254-15.254c12.598-12.598 33.023-12.598 45.622 0l241.791 241.791c12.597 12.598 12.597 33.023-.001 45.621z" fill="#f4db51"/><path d="m246.647 21.341 68.858 68.858c-12.597-12.597-33.019-12.597-45.615 0l-15.26 15.26c-12.597 12.597-12.597 33.019 0 45.615l-68.858-68.858c-12.597-12.597-12.597-33.019 0-45.615l15.26-15.26c12.597-12.597 33.018-12.597 45.615 0z" fill="#ebb040"/><path d="m157.18 476.35-3.39 3.4c-2.86 2.86-6.12 5.06-9.6 6.61-31.72-15.43-59.79-37.22-82.52-63.71-15.05-17.53-27.76-37.11-37.66-58.28 1.5-3.02 3.51-5.85 6.03-8.37l3.39-3.39c12.57-12.57 32.94-12.57 45.51 0l78.24 78.24c12.57 12.56 12.57 32.94 0 45.5z" fill="#e9eeff"/><path d="m119.86 393.53c-12.57-12.57-32.95-12.57-45.51 0l-3.39 3.39c-7.04 7.04-10.14 16.53-9.29 25.73-15.05-17.53-27.76-37.11-37.66-58.28 1.5-3.02 3.51-5.85 6.03-8.37l3.39-3.39c12.57-12.57 32.94-12.57 45.51 0z" fill="#d4daf8"/></g><g fill="#dc4355"><path d="m444.896 178.328-.658-2.726c-2.322-9.615 3.197-19.386 12.63-22.361l29.017-9.151c10.394-3.278 21.389 2.933 23.948 13.526l1.636 6.774c2.559 10.593-4.39 21.138-15.134 22.966l-29.995 5.103c-9.751 1.659-19.122-4.516-21.444-14.131z"/><path d="m410.675 106.353-1.933-2.032c-6.819-7.166-6.925-18.388-.242-25.681l20.554-22.433c7.362-8.035 19.99-8.155 27.503-.26l4.804 5.048c7.513 7.895 6.767 20.501-1.623 27.456l-23.425 19.417c-7.616 6.313-18.819 5.65-25.638-1.515z"/><path d="m341.242 67.366-2.69-.793c-9.488-2.796-15.191-12.462-13.05-22.119l6.584-29.705c2.358-10.64 13.235-17.057 23.688-13.976l6.685 1.97c10.454 3.081 16.111 14.371 12.322 24.589l-10.579 28.528c-3.439 9.275-13.472 14.303-22.96 11.506z"/></g></g></svg>