<svg id="logo_circle-main" data-name="logo/circle-main" xmlns="http://www.w3.org/2000/svg" width="96" height="96" viewBox="0 0 96 96">
  <path id="Path_421" data-name="Path 421" d="M48,0A48,48,0,1,1,0,48,48,48,0,0,1,48,0Z" fill="#152145"/>
  <g id="Group_262" data-name="Group 262" transform="translate(-1912.964 336.313)">
    <g id="UX" style="isolation: isolate">
      <path id="Path_405" data-name="Path 405" d="M4.89-5.388q0,2.825,2.872,2.825t2.872-2.825V-16.142H13.91V-5.46A5.607,5.607,0,0,1,12.379-1.1,6.683,6.683,0,0,1,7.762.285,6.683,6.683,0,0,1,3.145-1.1,5.607,5.607,0,0,1,1.614-5.46V-16.142H4.89ZM20.557-16.142l2.991,5.934,3.062-5.934H30L25.352-7.9,30,0H26.373L23.382-5.578,20.32,0H16.925l4.653-7.739-4.653-8.4Z" transform="translate(1958.321 -274.814)" fill="#e0e6fd"/>
    </g>
    <g id="WIZARDS" style="isolation: isolate">
      <path id="Path_406" data-name="Path 406" d="M.285-8.13H1.674L2.837-1.139h.249L4.629-8.106H6.172L7.715-1.139h.261L9.139-8.13h1.389L8.925,0H6.8L5.4-6.516,4.012,0H1.875ZM12.937,0V-8.13h1.317V0Zm3.94-6.979V-8.13h5.341v1.27L18.444-1.377v.226h3.774V0H16.878V-1.258L20.64-6.742v-.237ZM24.141,0l2.006-8.13H28.77L30.788,0H29.459l-.439-1.745H25.9L25.459,0Zm3.027-7.026L26.159-2.908h2.6l-1-4.119ZM34.455-2.9V0H33.138V-8.13h3.086q2.754,0,2.754,2.587a2.343,2.343,0,0,1-1.329,2.35L38.989,0H37.541L36.366-2.9Zm3.169-2.635q0-1.46-1.4-1.46H34.455v2.955h1.792a1.266,1.266,0,0,0,1.044-.409A1.671,1.671,0,0,0,37.624-5.531ZM44.473,0H41.66V-8.13h2.813a2.979,2.979,0,0,1,2.564.95A5.124,5.124,0,0,1,47.725-4.2a9.553,9.553,0,0,1-.136,1.751,3.993,3.993,0,0,1-.481,1.3A2.8,2.8,0,0,1,44.473,0ZM46.36-4.2a4.557,4.557,0,0,0-.368-2.125,1.592,1.592,0,0,0-1.519-.653h-1.5v5.816h1.5a1.545,1.545,0,0,0,1.567-.866,3.492,3.492,0,0,0,.255-.938A9.752,9.752,0,0,0,46.36-4.2Zm6.48-2.908q-1.507,0-1.507,1.056a.856.856,0,0,0,.356.777,6.825,6.825,0,0,0,1.573.57,4.189,4.189,0,0,1,1.715.807,1.944,1.944,0,0,1,.5,1.478A2.4,2.4,0,0,1,54.745-.5a2.926,2.926,0,0,1-1.988.635,11.789,11.789,0,0,1-2.231-.237L50.1-.19l.131-1.056a20.036,20.036,0,0,0,2.445.214q1.472,0,1.472-1.306a.872.872,0,0,0-.332-.754,5.065,5.065,0,0,0-1.5-.534,4.067,4.067,0,0,1-1.733-.8,2.065,2.065,0,0,1-.57-1.614,1.991,1.991,0,0,1,.718-1.668,3.143,3.143,0,0,1,1.988-.564,13.033,13.033,0,0,1,2.16.214l.415.071L55.19-6.92Q53.529-7.109,52.84-7.109Z" transform="translate(1933.602 -261.628)" fill="#e0e6fd"/>
    </g>
    <path id="Path_396" data-name="Path 396" d="M1933.646-309.413a.322.322,0,0,1-.389-.484c1.842-2.588,2.549-6.27,5.6-7.7a7.1,7.1,0,0,1,8.267,2.716,2.148,2.148,0,0,1,.277.828,2.548,2.548,0,0,1-1.14,2.262c-.16.153-.42.366-.41.614.025.608,1.063.6,1.465.468.783-.252,1.622-.841,2.483-.7,4.2.7,8.04,2.96,12.051,4.357a20.527,20.527,0,0,1,2.441.947,9.546,9.546,0,0,0,3.483.626c1.088-.01,2.288-1.13,3.146-1.718.535-.368,1.068-.742,1.617-1.09.417-.264,1.11-.636,1.528-.868,1-.554,5.514-2.185,4.349-.44-3.186,4.755-8.511,7.906-13.315,10.942-.017.011-.036.017-.053.027-2.009,1.131-4.123,1.881-5.514,3.735l-.012.016c-3.786,4.374-9.475,5.919-14.558,8.248l-.021.008c-3.753,1.268-7.359,5.637-11.049,6.293a.326.326,0,0,1-.334-.482c4.367-8.009,15.394-9.329,21.2-15.759.73-2.665-8.543,3.284-11.072,4.833a.319.319,0,0,1-.485-.293c.108-2.257-.9-4.418-.449-6.709a3.877,3.877,0,0,1,1.673-2.573c.254-.153.581-.383.474-.659a1.564,1.564,0,0,0-1.734-.461.325.325,0,0,1-.425-.22c-.736-2.935.5-11.283-3.388-10.642a.442.442,0,0,0-.1.029C1937.21-312.352,1935.683-310.349,1933.646-309.413Z" fill="#e0e6fd"/>
  </g>
</svg>
