<svg width="120" height="120" viewBox="0 0 120 120" fill="none" xmlns="http://www.w3.org/2000/svg">
<path d="M110.527 120H9.47312C4.26291 120 0 115.737 0 110.527V9.47312C0 4.26291 4.26291 0 9.47312 0H110.527C115.737 0 120 4.26291 120 9.47312V110.527C120 115.737 115.737 120 110.527 120Z" fill="#152145"/>
<path d="M64.2625 81.4375C62.9118 81.4375 61.64 81.2622 60.4472 80.9125C59.2544 80.5628 58.1381 80.0086 57.1016 79.2492C56.0643 78.4898 55.2386 77.4233 54.6236 76.0481C54.0086 74.6729 53.7016 73.0704 53.7016 71.2373V55.6856H59.1991V71.2381C59.1991 73.0467 59.6025 74.3129 60.4109 75.036C61.2185 75.7592 62.5021 76.1215 64.2625 76.1215C65.974 76.1215 67.2465 75.7544 68.0786 75.0187C68.9106 74.2829 69.3267 73.0238 69.3267 71.2389V55.6856H74.8242V71.2381C74.8242 73.0467 74.5227 74.6326 73.9203 75.9944C73.3164 77.357 72.5033 78.4243 71.4786 79.1955C70.4532 79.9676 69.3385 80.5336 68.1331 80.896C66.9268 81.2567 65.6369 81.4375 64.2625 81.4375Z" fill="#E0E6FD"/>
<path d="M96.9235 81.0031L91.7148 73.0102L86.5062 81.0031H80.0321L88.4955 67.9823L80.5026 55.6846H86.9767L91.7148 62.9544L96.4166 55.6846H102.927L94.9696 67.9823L103.398 81.0031H96.9235Z" fill="#E0E6FD"/>
<path d="M19.4396 102.044L16.7264 89.3844H19.5659L20.8859 96.1293C20.9103 96.2138 20.9277 96.3282 20.9403 96.4735C20.9522 96.6179 20.964 96.715 20.9767 96.7624C20.9885 96.7024 21.0003 96.5998 21.013 96.4553C21.0248 96.3109 21.043 96.1901 21.0666 96.0938L22.6763 89.3844H25.0817L26.7095 96.1119C26.7332 96.2201 26.7576 96.3535 26.7821 96.5098C26.8058 96.6669 26.8184 96.7624 26.8184 96.7987C26.8303 96.7506 26.8421 96.6843 26.8547 96.5998C26.8666 96.5161 26.8784 96.4372 26.8903 96.3645C26.9021 96.2927 26.9147 96.2201 26.9266 96.1474L28.2283 89.3844H31.0679L28.3373 102.044H25.733L23.9607 95.0091C23.9362 94.9002 23.8999 94.6649 23.8517 94.3033C23.8036 94.7139 23.7673 94.9428 23.7436 94.9909L22.044 102.044H19.4396V102.044Z" fill="#E0E6FD"/>
<path d="M33.6359 102.044V89.3844H36.3847V102.044H33.6359Z" fill="#E0E6FD"/>
<path d="M39.4406 102.044V99.9825L45.6612 91.9895H39.8203V89.3852H49.3147V91.4282L43.0214 99.4394H49.3147V102.044H39.4406V102.044Z" fill="#E0E6FD"/>
<path d="M61.0882 102.044L60.148 99.5838H55.3917L54.4515 102.044H51.4493L56.4409 89.3844H59.0815L64.0912 102.044H61.0882ZM59.2252 97.0521L58.1397 94.3215C57.9708 93.9118 57.8445 93.5558 57.76 93.2542C57.7118 93.4595 57.5847 93.8147 57.3803 94.3215L56.2948 97.0521H59.2252Z" fill="#E0E6FD"/>
<path d="M66.6039 102.044V89.3844H72.7709C74.2898 89.3844 75.3895 89.7641 76.0715 90.5236C76.752 91.283 77.0931 92.2666 77.0931 93.4713C77.0931 94.2189 76.8878 94.9483 76.4789 95.6596C76.0684 96.3709 75.5087 96.8714 74.7966 97.1603L77.1657 102.043H74.0909L71.7944 97.5763H69.3527V102.043H66.6039V102.044ZM69.3519 94.9728H72.8065C73.7585 94.9728 74.2353 94.4723 74.2353 93.4721C74.2353 93.0497 74.1232 92.6977 73.9006 92.4143C73.6772 92.1316 73.3133 91.9895 72.8065 91.9895H69.3519V94.9728Z" fill="#E0E6FD"/>
<path d="M80.2216 89.3844H84.8871C85.9481 89.3844 86.8883 89.5628 87.7077 89.9181C88.5279 90.2741 89.1752 90.7565 89.652 91.3651C90.1289 91.9738 90.4841 92.6463 90.7194 93.3813C90.9546 94.117 91.0714 94.8946 91.0714 95.7141C91.0714 96.3172 91.0051 96.9045 90.8725 97.4776C90.7399 98.0508 90.5173 98.6168 90.2031 99.1773C89.8905 99.7378 89.4981 100.226 89.0284 100.642C88.5579 101.058 87.9611 101.396 87.2372 101.654C86.5141 101.914 85.7065 102.044 84.8144 102.044H80.2216V89.3844V89.3844ZM85.1042 99.4212C86.1407 99.4212 86.9191 99.0502 87.4369 98.3089C87.9556 97.5676 88.2145 96.7024 88.2145 95.7133C88.2145 94.7249 87.9643 93.8565 87.4645 93.1089C86.9633 92.3614 86.2433 91.988 85.3031 91.988H82.9703V99.4204H85.1042V99.4212Z" fill="#E0E6FD"/>
<path d="M98.5765 102.261C97.3466 102.261 96.2896 101.932 95.403 101.275C94.5165 100.618 93.8802 99.7109 93.495 98.5528L95.9541 97.6308C96.243 98.2457 96.6235 98.7368 97.0932 99.1046C97.5637 99.4725 98.0816 99.6565 98.6484 99.6565C99.2389 99.6565 99.7038 99.5452 100.042 99.3217C100.379 99.0991 100.548 98.7762 100.548 98.3539C100.548 98.0768 100.425 97.8297 100.177 97.6126C99.9304 97.3955 99.6707 97.2353 99.3999 97.1334C99.1283 97.0316 98.7092 96.8895 98.1431 96.7087C97.769 96.588 97.4887 96.4948 97.3024 96.4285C97.1153 96.3622 96.8469 96.2564 96.4972 96.1119C96.1475 95.9667 95.8822 95.8341 95.7014 95.7141C95.5207 95.5941 95.3036 95.4314 95.0502 95.2262C94.7976 95.0209 94.6065 94.807 94.4802 94.5844C94.3539 94.3618 94.2418 94.0902 94.1455 93.7705C94.0492 93.4516 94.001 93.1105 94.001 92.749C94.001 91.7361 94.3989 90.8867 95.1946 90.1991C95.9904 89.5115 97.0687 89.1681 98.4321 89.1681C99.5657 89.1681 100.518 89.4642 101.289 90.0547C102.06 90.6451 102.573 91.4046 102.826 92.3329L100.367 93.1287C99.9691 92.2248 99.2752 91.7725 98.2868 91.7725C97.2621 91.7725 96.7498 92.1159 96.7498 92.8034C96.7498 92.9605 96.7987 93.0995 96.8951 93.2195C96.9914 93.3403 97.1666 93.461 97.4192 93.581C97.6726 93.7018 97.8803 93.7926 98.0429 93.8526C98.2063 93.9134 98.4921 94.0152 98.9026 94.1605C99.3368 94.3049 99.6715 94.4202 99.9059 94.5039C100.141 94.5883 100.463 94.7178 100.874 94.8931C101.283 95.0675 101.606 95.2546 101.842 95.4536C102.077 95.6525 102.32 95.8909 102.574 96.168C102.827 96.4459 103.011 96.7711 103.125 97.1445C103.24 97.5187 103.297 97.9284 103.297 98.3744C103.297 99.568 102.851 100.515 101.959 101.214C101.066 101.911 99.9399 102.261 98.5765 102.261Z" fill="#E0E6FD"/>
<path d="M16.2219 28.5828C15.8091 28.7722 15.4175 28.2804 15.6812 27.9102C18.2437 24.3104 19.2273 19.1894 23.4681 17.2079C27.2629 15.6149 32.8899 17.3271 34.9653 20.9845C35.1666 21.339 35.3087 21.7313 35.3513 22.1371C35.5155 23.7231 34.6022 24.4817 33.7654 25.283C33.5427 25.4961 33.182 25.7921 33.1962 26.1363C33.2301 26.9826 34.6748 26.9676 35.2337 26.7884C36.3231 26.4379 37.4891 25.6177 38.6867 25.8182C44.5276 26.7963 49.8689 29.9358 55.4478 31.8786C56.568 32.1399 57.7545 32.7786 58.8431 33.1946C60.3848 33.7835 62.0371 34.0811 63.687 34.0661C65.2011 34.0519 66.8692 32.4952 68.0628 31.6757C68.808 31.1642 69.5485 30.6448 70.3119 30.1608C70.8921 29.793 71.856 29.2759 72.437 28.9538C73.8312 28.1817 80.1055 25.9145 78.4864 28.3412C74.0546 34.955 66.6482 39.3379 59.9672 43.5598C59.9436 43.5748 59.9175 43.5835 59.8938 43.5969C57.1008 45.1702 54.1594 46.2138 52.2253 48.7929C52.2198 48.8 52.2143 48.8071 52.208 48.8142C46.9433 54.8983 39.0301 57.0471 31.9599 60.2861C31.9505 60.2901 31.941 60.294 31.9315 60.2972C26.7118 62.0592 21.6958 68.1362 16.5638 69.0488C16.1919 69.1151 15.9188 68.7109 16.0996 68.3794C22.1718 57.239 37.5096 55.4035 45.5918 46.4609C46.607 42.7538 33.7093 51.0277 30.1924 53.1821C29.8845 53.3708 29.5001 53.1355 29.5175 52.7748C29.6675 49.6352 28.2694 46.6299 28.893 43.4437C29.1914 42.0101 29.9643 40.6192 31.2195 39.8653C31.5723 39.6529 32.0278 39.3332 31.8786 38.9487C31.371 38.2217 30.3069 38.0377 29.4669 38.3069C29.2127 38.3882 28.9404 38.2604 28.8757 38.0022C27.8526 33.9193 29.5696 22.31 24.1636 23.2012C24.1186 23.2083 24.072 23.2226 24.0302 23.2407C21.1787 24.4959 19.0552 27.2818 16.2219 28.5828Z" fill="#E0E6FD"/>
</svg>
