<svg width="120" height="120" viewBox="0 0 120 120" fill="none" xmlns="http://www.w3.org/2000/svg">
<path d="M60 120C93.1371 120 120 93.1371 120 60C120 26.8629 93.1371 0 60 0C26.8629 0 0 26.8629 0 60C0 93.1371 26.8629 120 60 120Z" fill="#152145"/>
<path d="M25 31.56C24.9159 31.5897 24.8241 31.5897 24.74 31.56C24.654 31.5317 24.5777 31.4797 24.52 31.41C24.4696 31.3355 24.4387 31.2495 24.43 31.16C24.4306 31.0705 24.4585 30.9833 24.51 30.91C26.82 27.56 27.71 22.79 31.51 20.91C33.3711 20.2245 35.4106 20.1963 37.29 20.83C39.1832 21.4807 40.8054 22.7439 41.9 24.42C42.0817 24.7556 42.2004 25.1216 42.25 25.5C42.2777 26.0731 42.1608 26.6439 41.91 27.16C41.6619 27.6704 41.2822 28.1053 40.81 28.42C40.61 28.62 40.29 28.9 40.3 29.22C40.3 30.01 41.63 30 42.14 29.83C43.14 29.5 44.14 28.74 45.26 28.92C50.53 29.83 55.36 32.75 60.39 34.56C61.4398 34.9006 62.4654 35.3115 63.46 35.79C64.8517 36.3363 66.335 36.6112 67.83 36.6C69.2 36.6 70.71 35.13 71.83 34.37C72.5 33.9 73.17 33.37 73.83 32.96C74.35 32.62 75.22 32.14 75.75 31.84C77 31.12 82.67 29.01 81.21 31.27C77.21 37.43 70.52 41.51 64.48 45.44H64.42C61.86 47 59.21 48 57.46 50.37C52.7 56.03 45.56 58.03 39.17 61.05C34.45 62.69 29.92 68.35 25.29 69.2C25.2146 69.2199 25.1354 69.2199 25.06 69.2C24.9883 69.1702 24.9284 69.1175 24.89 69.05C24.8417 68.9871 24.817 68.9093 24.82 68.83C24.8112 68.7499 24.8287 68.6692 24.87 68.6C30.35 58.23 44.2 56.52 51.5 48.2C52.41 44.75 40.77 52.45 37.59 54.46C37.5271 54.4996 37.4543 54.5204 37.38 54.52C37.3059 54.5189 37.2335 54.4982 37.17 54.46C37.105 54.4218 37.0524 54.3656 37.0187 54.2981C36.985 54.2307 36.9715 54.1549 36.98 54.08C37.12 51.15 35.85 48.36 36.42 45.39C36.5283 44.719 36.7697 44.0764 37.13 43.5C37.4915 42.9312 37.9643 42.4414 38.52 42.06C38.84 41.86 39.25 41.56 39.11 41.2C38.8505 40.8867 38.5017 40.6599 38.11 40.55C37.7169 40.4447 37.3005 40.4657 36.92 40.61C36.8677 40.625 36.8123 40.625 36.76 40.61C36.7072 40.6203 36.6528 40.6203 36.6 40.61C36.5503 40.5816 36.5063 40.5443 36.47 40.5C36.4335 40.4522 36.4064 40.3979 36.39 40.34C35.47 36.54 37.02 25.73 32.14 26.56H32.01C29.43 27.76 27.51 30.35 25 31.56Z" fill="#E0E6FD"/>
<path d="M63.44 79C62.4426 79.0087 61.4491 78.874 60.49 78.6C59.5568 78.3275 58.6797 77.8907 57.9 77.31C57.0643 76.6766 56.4092 75.8354 56 74.87C55.4987 73.6951 55.2533 72.427 55.28 71.15V59.15H59.53V71.15C59.4718 71.677 59.5255 72.2104 59.6874 72.7153C59.8494 73.2201 60.1161 73.6852 60.47 74.08C61.3332 74.7182 62.4008 75.0171 63.47 74.92C64.5209 75.0049 65.5665 74.7026 66.41 74.07C66.7759 73.6832 67.0546 73.2224 67.2271 72.7186C67.3996 72.2148 67.462 71.6799 67.41 71.15V59.15H71.6V71.15C71.6239 72.4086 71.3855 73.6585 70.9 74.82C70.4899 75.796 69.8356 76.65 69 77.3C68.2259 77.8885 67.3519 78.3323 66.42 78.61C65.4508 78.8837 64.447 79.0151 63.44 79V79Z" fill="#E0E6FD"/>
<path d="M88.68 78.7L84.68 72.52L80.68 78.7H75.68L82.22 68.63L76 59.13H81L84.66 64.75L88.3 59.13H93.3L87.15 68.63L93.68 78.7H88.68Z" fill="#E0E6FD"/>
<path d="M28.79 94L26.7 84.19H28.89L29.89 89.41C29.9162 89.4946 29.933 89.5818 29.94 89.67C29.9317 89.7464 29.9317 89.8236 29.94 89.9C29.94 89.8467 29.94 89.7667 29.94 89.66C29.9323 89.5668 29.9323 89.4732 29.94 89.38L31.19 84.19H33.05L34.3 89.39C34.3 89.48 34.3 89.58 34.36 89.7C34.42 89.82 34.36 89.9 34.36 89.92C34.3638 89.8701 34.3638 89.8199 34.36 89.77C34.3551 89.7101 34.3551 89.6499 34.36 89.59V89.42L35.36 84.19H37.55L35.67 94H33.67L32.3 88.56C32.263 88.3817 32.2363 88.2014 32.22 88.02C32.2047 88.1988 32.1746 88.3761 32.13 88.55L30.81 94H28.79Z" fill="#E0E6FD"/>
<path d="M39.77 94V84.19H41.89V94H39.77Z" fill="#E0E6FD"/>
<path d="M44.25 94V92.4L49.06 86.23H44.55V84.23H51.88V85.81L47 92H51.86V94H44.25Z" fill="#E0E6FD"/>
<path d="M61 94L60.28 92.1H56.58L55.85 94H53.53L57.39 84.21H59.39L63.3 94H61ZM59.56 90.14L58.7 88C58.57 87.68 58.48 87.41 58.41 87.18C58.3299 87.4589 58.2331 87.7328 58.12 88L57.28 90.11L59.56 90.14Z" fill="#E0E6FD"/>
<path d="M65.25 94V84.19H70C70.4381 84.1244 70.8855 84.1593 71.3081 84.2921C71.7308 84.4249 72.1177 84.6522 72.4395 84.9567C72.7613 85.2611 73.0097 85.6349 73.1657 86.0495C73.3217 86.4642 73.3813 86.9089 73.34 87.35C73.33 87.9303 73.1716 88.4983 72.88 89C72.5923 89.5242 72.1334 89.9337 71.58 90.16L73.41 94H71L69.23 90.55H67.37V94H65.25ZM67.37 88.53H70C70.74 88.53 71.1 88.15 71.1 87.37C71.1142 87.0774 71.0218 86.7896 70.84 86.56C70.7356 86.443 70.6053 86.3522 70.4593 86.2949C70.3134 86.2375 70.1561 86.2153 70 86.23H67.37V88.53Z" fill="#E0E6FD"/>
<path d="M75.77 84.19H79.37C80.1181 84.1755 80.8609 84.3186 81.55 84.61C82.1403 84.8443 82.6603 85.2266 83.06 85.72C83.4236 86.1874 83.7012 86.7156 83.88 87.28C84.062 87.866 84.1531 88.4764 84.15 89.09C84.1507 89.5475 84.1004 90.0037 84 90.45C83.8943 90.9106 83.7189 91.3523 83.48 91.76C82.9934 92.6719 82.1727 93.3599 81.19 93.68C80.5886 93.887 79.956 93.9885 79.32 93.98H75.77V84.19ZM79.54 92C79.8896 92.0198 80.2386 91.9514 80.5548 91.8011C80.8711 91.6508 81.1445 91.4235 81.35 91.14C81.7548 90.5528 81.9648 89.8531 81.95 89.14C81.9579 88.4308 81.7562 87.735 81.37 87.14C81.1893 86.865 80.9406 86.6412 80.648 86.4906C80.3555 86.3399 80.0289 86.2674 79.7 86.28H77.89V92H79.54Z" fill="#E0E6FD"/>
<path d="M90 94.15C89.1209 94.1696 88.2598 93.899 87.55 93.38C86.8229 92.8629 86.2799 92.1272 86 91.28L87.9 90.57C88.102 91.0125 88.4031 91.4026 88.78 91.71C89.1203 91.9829 89.5438 92.1312 89.98 92.13C90.358 92.1541 90.7344 92.0635 91.06 91.87C91.1847 91.7922 91.2865 91.6827 91.355 91.5527C91.4236 91.4227 91.4563 91.2768 91.45 91.13C91.4474 91.0179 91.4201 90.9078 91.37 90.8075C91.3198 90.7073 91.2481 90.6193 91.16 90.55C90.9821 90.3941 90.7792 90.269 90.56 90.18L89.56 89.85L89 89.64C88.85 89.64 88.65 89.51 88.38 89.39C88.1651 89.308 87.9577 89.2077 87.76 89.09C87.62 88.99 87.45 88.87 87.26 88.71C87.0838 88.5718 86.9347 88.4023 86.82 88.21C86.7067 88.012 86.6193 87.8003 86.56 87.58C86.4865 87.3231 86.4495 87.0572 86.45 86.79C86.442 86.4088 86.5207 86.0307 86.6801 85.6842C86.8394 85.3378 87.0753 85.032 87.37 84.79C88.0794 84.2312 88.9683 83.9503 89.87 84C90.6625 83.969 91.442 84.2088 92.08 84.68C92.6632 85.1163 93.0824 85.7363 93.27 86.44L91.37 87.06C91.2394 86.7463 91.014 86.4813 90.7253 86.302C90.4366 86.1227 90.0991 86.0381 89.76 86.06C88.97 86.06 88.57 86.32 88.57 86.86C88.5703 86.9776 88.6129 87.0912 88.69 87.18C88.8024 87.3002 88.9386 87.3956 89.09 87.46L89.57 87.67L90.24 87.9L91.01 88.17C91.19 88.23 91.44 88.34 91.76 88.47C92.0285 88.5783 92.2809 88.723 92.51 88.9C92.709 89.074 92.8961 89.261 93.07 89.46C93.2699 89.673 93.4172 89.9299 93.5 90.21C93.5957 90.5344 93.6396 90.8719 93.63 91.21C93.6497 91.6283 93.5692 92.0452 93.3953 92.4262C93.2214 92.8071 92.959 93.141 92.63 93.4C91.8664 93.9466 90.937 94.2117 90 94.15V94.15Z" fill="#E0E6FD"/>
</svg>
