<svg width="344" height="45" viewBox="0 0 344 45" fill="none" xmlns="http://www.w3.org/2000/svg">
<path d="M335.97 0.645349V5.4427H335.294V0.645349H333.778V0H337.486V0.645349H335.97Z" fill="#152145"/>
<path d="M343.388 5.4427H342.711V2.09933C342.711 1.8868 342.717 1.68724 342.727 1.50063C342.675 1.64577 342.595 1.85052 342.486 2.11488L340.993 5.536L339.547 2.09933C339.422 1.79868 339.345 1.60171 339.314 1.50841C339.329 1.64836 339.337 1.84534 339.337 2.09933V5.4427H338.66V0H339.298L340.876 3.66216L341.016 4.0276C341.037 3.9654 341.084 3.84358 341.156 3.66216L342.743 0H343.388V5.4427Z" fill="#152145"/>
<path d="M15.9541 45C13.9143 45 11.9838 44.745 10.1625 44.2351C8.3777 43.6887 6.70216 42.8509 5.13589 41.7218C3.56963 40.5562 2.31297 38.9353 1.36593 36.8591C0.45531 34.7828 0 32.3606 0 29.5923V6.09833H8.30485V29.5923C8.30485 32.3242 8.90586 34.2365 10.1079 35.3292C11.3463 36.422 13.295 36.9683 15.9541 36.9683C18.5402 36.9683 20.4525 36.422 21.691 35.3292C22.9658 34.2 23.6033 32.2877 23.6033 29.5923V6.09833H31.9081V29.5923C31.9081 32.3242 31.4528 34.7282 30.5422 36.8044C29.6316 38.8442 28.3931 40.4469 26.8268 41.6125C25.297 42.7781 23.6215 43.6341 21.8002 44.1804C19.979 44.7268 18.0303 45 15.9541 45Z" fill="#152145"/>
<path d="M62.5536 44.3443L54.6858 32.2695L46.8181 44.3443H37.038L49.8231 24.675L37.7483 6.09833H47.5284L54.6858 17.0804L61.7887 6.09833H71.6233L59.6032 24.675L72.3336 44.3443H62.5536Z" fill="#152145"/>
<path d="M98.7438 44.3443L90.5483 6.09833H99.1263L103.115 26.478C103.188 26.733 103.242 27.079 103.279 27.5161C103.315 27.9532 103.352 28.2446 103.388 28.3903C103.424 28.2082 103.461 27.8986 103.497 27.4615C103.534 27.0244 103.588 26.6601 103.661 26.3687L108.524 6.09833H115.791L120.708 26.4234C120.781 26.7512 120.854 27.1518 120.927 27.6254C120.999 28.0989 121.036 28.3903 121.036 28.4996C121.072 28.3539 121.109 28.1535 121.145 27.8986C121.182 27.6436 121.218 27.4068 121.254 27.1883C121.291 26.9697 121.327 26.7512 121.364 26.5326L125.298 6.09833H133.876L125.625 44.3443H117.758L112.403 23.0905C112.33 22.7627 112.221 22.0524 112.075 20.9596C111.93 22.1981 111.82 22.8902 111.747 23.0359L106.612 44.3443H98.7438Z" fill="#152145"/>
<path d="M138.9 44.3443V6.09833H147.205V44.3443H138.9Z" fill="#152145"/>
<path d="M153.682 44.3443V38.1157L172.477 13.9661H154.829V6.09833H183.514V12.2723L164.5 36.4766H183.514V44.3443H153.682Z" fill="#152145"/>
<path d="M216.338 44.3443L213.497 36.9137H199.127L196.286 44.3443H187.216L202.296 6.09833H210.273L225.408 44.3443H216.338ZM210.71 29.2645L207.432 21.0143C206.922 19.7758 206.54 18.7013 206.285 17.7907C206.139 18.4099 205.757 19.4844 205.137 21.0143L201.859 29.2645H210.71Z" fill="#152145"/>
<path d="M230.293 44.3443V6.09833H248.925C253.514 6.09833 256.829 7.24571 258.869 9.54047C260.945 11.8352 261.983 14.8039 261.983 18.4463C261.983 20.7047 261.364 22.9084 260.125 25.0574C258.887 27.2065 257.193 28.7181 255.044 29.5923L262.202 44.3443H252.913L245.974 30.849H238.598V44.3443H230.293ZM238.598 22.9812H249.034C251.912 22.9812 253.35 21.4696 253.35 18.4463C253.35 17.1715 253.004 16.1151 252.312 15.2774C251.657 14.4032 250.564 13.9661 249.034 13.9661H238.598V22.9812Z" fill="#152145"/>
<path d="M268.71 6.09833H282.807C286.012 6.09833 288.853 6.6447 291.33 7.73745C293.807 8.79376 295.756 10.2508 297.176 12.1084C298.633 13.9297 299.708 15.9512 300.4 18.1731C301.128 20.3951 301.493 22.7445 301.493 25.2213C301.493 27.0426 301.292 28.8274 300.892 30.5758C300.491 32.2877 299.817 33.9997 298.87 35.7117C297.923 37.3872 296.739 38.8624 295.319 40.1373C293.898 41.3757 292.095 42.3956 289.909 43.197C287.724 43.9619 285.283 44.3443 282.588 44.3443H268.71V6.09833ZM283.462 36.422C286.595 36.422 288.944 35.311 290.51 33.0891C292.077 30.8308 292.86 28.2082 292.86 25.2213C292.86 22.2345 292.095 19.6119 290.565 17.3536C289.072 15.0953 286.904 13.9661 284.063 13.9661H277.015V36.422H283.462Z" fill="#152145"/>
<path d="M321.415 45C317.7 45 314.494 44.0165 311.799 42.0496C309.14 40.0462 307.228 37.2961 306.062 33.7994L313.493 31.0129C314.367 32.8705 315.514 34.364 316.935 35.4931C318.355 36.5859 319.922 37.1322 321.634 37.1322C323.418 37.1322 324.821 36.8044 325.841 36.1488C326.861 35.4567 327.37 34.4732 327.37 33.1984C327.37 32.3606 326.988 31.6139 326.223 30.9582C325.495 30.3026 324.711 29.8291 323.874 29.5377C323.072 29.2099 321.816 28.7728 320.104 28.2264C318.975 27.8621 318.119 27.5889 317.536 27.4068C316.989 27.1883 316.188 26.8605 315.132 26.4234C314.075 25.9863 313.274 25.5856 312.728 25.2213C312.181 24.8571 311.526 24.3654 310.761 23.7461C309.996 23.1269 309.413 22.4895 309.012 21.8338C308.648 21.1418 308.32 20.3222 308.029 19.3752C307.738 18.3917 307.592 17.3536 307.592 16.2608C307.592 13.2012 308.794 10.6332 311.198 8.557C313.602 6.48079 316.862 5.44269 320.978 5.44269C324.402 5.44269 327.279 6.33509 329.611 8.1199C331.942 9.90472 333.49 12.1995 334.255 15.0042L326.824 17.4082C325.622 14.6764 323.528 13.3104 320.541 13.3104C317.445 13.3104 315.897 14.3485 315.897 16.4248C315.897 16.8983 316.042 17.3172 316.334 17.6814C316.625 18.0457 317.153 18.4099 317.918 18.7742C318.683 19.1384 319.302 19.4116 319.776 19.5937C320.286 19.7758 321.16 20.0854 322.398 20.5225C323.71 20.9596 324.711 21.3057 325.404 21.5606C326.132 21.8156 327.116 22.2163 328.354 22.7627C329.592 23.2726 330.558 23.8372 331.25 24.4564C331.978 25.0392 332.725 25.7495 333.49 26.5873C334.255 27.425 334.801 28.4085 335.129 29.5377C335.493 30.6668 335.675 31.9053 335.675 33.253C335.675 36.8591 334.328 39.7184 331.632 41.831C328.937 43.9437 325.531 45 321.415 45Z" fill="#152145"/>
</svg>
