<svg id="logo_wide-main" data-name="logo/wide-main" xmlns="http://www.w3.org/2000/svg" width="216" height="96" viewBox="0 0 216 96">
  <g id="main_blue" data-name="main blue" transform="translate(-764.232 683.812)">
    <path id="Path_248" data-name="Path 248" d="M764.232-683.812h216v96h-215.8Z" fill="#152145"/>
    <g id="UXWIZARDS">
      <g id="UX" style="isolation: isolate">
        <path id="Path_404" data-name="Path 404" d="M4.738-5.221q0,2.737,2.783,2.737T10.3-5.221V-15.64h3.174V-5.29a5.432,5.432,0,0,1-1.484,4.22A6.475,6.475,0,0,1,7.521.276,6.475,6.475,0,0,1,3.047-1.069,5.432,5.432,0,0,1,1.564-5.29V-15.64H4.738ZM20.953-15.64l2.9,5.75,2.967-5.75h3.289L25.6-7.659,30.107,0H26.588l-2.9-5.405L20.723,0H17.434l4.508-7.5L17.434-15.64Z" transform="translate(803.222 -627.813)" fill="#e0e6fd"/>
      </g>
      <g id="WIZARDS" style="isolation: isolate">
        <path id="Path_403" data-name="Path 403" d="M.759-15.985H2.208l2.9,14.72h.759L9.223-15.8H10.9L14.237-1.265H15l2.9-14.72h1.449L16.054,0H13.2L10.051-14.03,6.9,0H4.048ZM24.288,0V-15.985h1.426V0Zm6.6-14.7v-1.288h10.35v1.909L32.476-1.748v.483h8.763V.023H30.889V-1.863l8.763-12.328V-14.7ZM45.011,0l4.6-15.985h3.335L57.523,0h-1.4L54.832-4.416H47.7L46.437,0Zm5.635-14.743-2.6,9.062h6.44l-2.6-9.062ZM63.71-6.3V0H62.284V-15.985h5.865a5.344,5.344,0,0,1,3.737,1.138,4.691,4.691,0,0,1,1.231,3.6q0,3.841-3.082,4.669L73.324,0H71.737L68.586-6.3Zm7.935-4.922a3.607,3.607,0,0,0-.851-2.645,3.607,3.607,0,0,0-2.645-.851H63.71v7.153h4.439Q71.645-7.567,71.645-11.224ZM84.433,0H78.614V-15.985h5.819q5.681,0,5.681,7.774Q90.114,0,84.433,0Zm4.209-8.211q0-6.486-4.209-6.486H80.04V-1.265h4.393Q88.642-1.265,88.642-8.211Zm11.339-6.762q-3.7,0-3.7,2.829a2.533,2.533,0,0,0,.84,2.231,9.872,9.872,0,0,0,3.289,1.058,8.2,8.2,0,0,1,3.5,1.334,3.477,3.477,0,0,1,1.047,2.852,4.755,4.755,0,0,1-1.276,3.714A5.449,5.449,0,0,1,99.935.184a31.377,31.377,0,0,1-4.163-.322l-.828-.115L95.1-1.472a42.465,42.465,0,0,0,4.876.391A3.7,3.7,0,0,0,102.6-1.92a3.209,3.209,0,0,0,.9-2.461,2.6,2.6,0,0,0-.794-2.208,6.3,6.3,0,0,0-2.53-.909,21.5,21.5,0,0,1-2.542-.587,5.678,5.678,0,0,1-1.506-.759,2.732,2.732,0,0,1-1-1.265,5.421,5.421,0,0,1-.3-1.943q0-4.186,5.06-4.186a31.561,31.561,0,0,1,3.956.322l.759.115-.115,1.219A42.548,42.548,0,0,0,99.981-14.973Z" transform="translate(835.72 -627.813)" fill="#e0e6fd"/>
      </g>
    </g>
  </g>
  <path id="Path_394" data-name="Path 394" d="M946.186-651.172H813.875c3.417-2.232,6.745-4.724,8.97-8.044,1.1-1.649-3.163-.108-4.11.416-.395.22-1.044.57-1.444.82-.519.329-1.022.682-1.528,1.029-.81.556-1.943,1.614-2.972,1.624a9.007,9.007,0,0,1-3.291-.592,19.247,19.247,0,0,0-2.306-.894c-3.787-1.318-7.419-3.454-11.387-4.118-.814-.141-1.606.421-2.346.659-.384.122-1.361.132-1.384-.443-.013-.234.236-.435.387-.58a2.406,2.406,0,0,0,1.077-2.137,2,2,0,0,0-.262-.783,6.707,6.707,0,0,0-7.811-2.566c-2.881,1.346-3.549,4.825-5.29,7.271a.3.3,0,0,0-.035.322.3.3,0,0,0,.4.135c1.925-.885,3.368-2.776,5.309-3.628a.362.362,0,0,1,.09-.027c3.671-.606,2.5,7.281,3.2,10.055l.007.02a.308.308,0,0,0,.393.187,1.479,1.479,0,0,1,1.638.436c.1.261-.208.479-.448.623a3.667,3.667,0,0,0-1.58,2.431c-.424,2.164.524,4.206.424,6.339a.307.307,0,0,0,.046.182.3.3,0,0,0,.413.094c1.106-.678,3.575-2.245,5.841-3.484v2.59c-5.485,3.355-12.273,5.456-15.413,11.22a.31.31,0,0,0-.036.2.308.308,0,0,0,.351.255c3.486-.62,6.894-4.745,10.44-5.945l.019-.008c1.514-.694,3.086-1.314,4.639-1.968v17.863a2.151,2.151,0,0,0,2.047,2.24H911.684l-.05,4.922a.265.265,0,0,0,.154.277.314.314,0,0,0,.306,0l1.915-1.147,1.3,3.263s.042.187.171.227a.467.467,0,0,0,.232.016l2.31-.937a.342.342,0,0,0,.148-.3c-.059-.184-1.377-3.421-1.377-3.421l2.18-.633a.288.288,0,0,0,.2-.184c.079-.171,0-.257,0-.257l-2.107-1.826h29.115a2.149,2.149,0,0,0,2.047-2.24v-27.314A2.149,2.149,0,0,0,946.186-651.172Zm.442,28.555h0a1.158,1.158,0,0,1-1.1,1.207h-30.8l-2.4-2.081s-.188-.221-.4-.115-.2.257-.2.257l-.019,1.939H797.918a1.159,1.159,0,0,1-1.1-1.207v-17.267a21.815,21.815,0,0,0,8.174-5.423l.012-.015c1.31-1.752,3.31-2.461,5.21-3.53.017-.009.034-.015.05-.025.66-.417,1.331-.837,2-1.263h133.26a1.157,1.157,0,0,1,1.1,1.208Z" transform="translate(-764.232 683.812)" fill="#e0e6fd"/>
</svg>
