<svg id="logo_square-main" data-name="logo/square-main" xmlns="http://www.w3.org/2000/svg" width="96" height="96" viewBox="0 0 96 96">
  <path id="Path_395" data-name="Path 395" d="M0,0H96V96H0Z" fill="#152145"/>
  <g id="UX" transform="translate(-1414.76 436.128)" style="isolation: isolate">
    <path id="Path_410" data-name="Path 410" d="M6.034-6.649q0,3.486,3.544,3.486t3.544-3.486V-19.917h4.042V-6.737q0,3.661-1.889,5.375T9.578.351q-3.808,0-5.7-1.713T1.992-6.737V-19.917H6.034ZM25.366-19.917l3.691,7.323,3.778-7.323h4.189L31.282-9.754,37.023,0H32.542L28.851-6.883,25.073,0H20.884l5.741-9.549L20.884-19.917Z" transform="translate(1460.178 -369.9)" fill="#e0e6fd"/>
  </g>
  <g id="WIZARDS" transform="translate(-1414.76 436.128)" style="isolation: isolate">
    <path id="Path_414" data-name="Path 414" d="M.351-10.032H2.065L3.5-1.406h.308l1.9-8.6h1.9l1.9,8.6h.322l1.435-8.626H12.99L11.013,0H8.392L6.664-8.04,4.95,0H2.314ZM15.963,0V-10.032h1.626V0Zm4.862-8.611v-1.421h6.59v1.567L22.759-1.7v.278h4.657V0h-6.59V-1.552l4.643-6.766v-.293ZM29.788,0l2.475-10.032H35.5L37.99,0h-1.64l-.542-2.153H31.956L31.414,0Zm3.735-8.67L32.278-3.588h3.207L34.255-8.67Zm8.992,5.1V0H40.889V-10.032H44.7q3.4,0,3.4,3.193a2.892,2.892,0,0,1-1.64,2.9L48.11,0H46.323l-1.45-3.573Zm3.91-3.251q0-1.8-1.728-1.8H42.515v3.647h2.211a1.563,1.563,0,0,0,1.289-.505A2.062,2.062,0,0,0,46.425-6.825ZM54.876,0H51.4V-10.032h3.471A3.676,3.676,0,0,1,58.039-8.86a6.322,6.322,0,0,1,.849,3.676,11.788,11.788,0,0,1-.168,2.16,4.928,4.928,0,0,1-.593,1.6Q57.292,0,54.876,0ZM57.2-5.184a5.622,5.622,0,0,0-.454-2.621,1.965,1.965,0,0,0-1.875-.805H53.03v7.176h1.845A1.906,1.906,0,0,0,56.809-2.5a4.309,4.309,0,0,0,.315-1.157A12.032,12.032,0,0,0,57.2-5.184Zm8-3.588q-1.86,0-1.86,1.3a1.057,1.057,0,0,0,.439.959,8.421,8.421,0,0,0,1.94.7,5.169,5.169,0,0,1,2.116,1,2.4,2.4,0,0,1,.615,1.823,2.967,2.967,0,0,1-.9,2.365A3.61,3.61,0,0,1,65.1.161a14.547,14.547,0,0,1-2.753-.293l-.527-.1.161-1.3A24.723,24.723,0,0,0,65-1.274q1.816,0,1.816-1.611a1.076,1.076,0,0,0-.41-.93,6.25,6.25,0,0,0-1.845-.659,5.018,5.018,0,0,1-2.138-.989,2.548,2.548,0,0,1-.7-1.992A2.457,2.457,0,0,1,62.6-9.512a3.879,3.879,0,0,1,2.453-.7,16.081,16.081,0,0,1,2.665.264l.513.088L68.1-8.538Q66.05-8.772,65.2-8.772Z" transform="translate(1429.677 -353.628)" fill="#e0e6fd"/>
  </g>
  <path id="hat" d="M1430.4-412.457a.387.387,0,0,1-.468-.582c2.217-3.115,3.068-7.547,6.738-9.261,3.284-1.379,8.153.1,9.949,3.268a2.569,2.569,0,0,1,.333,1c.142,1.373-.648,2.029-1.372,2.722-.193.185-.505.441-.493.739.03.732,1.28.719,1.763.564.943-.3,1.952-1.013,2.988-.84,5.054.847,9.676,3.563,14.5,5.245a24.6,24.6,0,0,1,2.938,1.139,11.48,11.48,0,0,0,4.192.754c1.31-.012,2.753-1.36,3.786-2.069.645-.442,1.285-.892,1.946-1.311.5-.318,1.336-.766,1.839-1.044,1.206-.668,6.636-2.63,5.235-.53-3.836,5.723-10.244,9.515-16.026,13.169-.02.013-.043.02-.064.032-2.417,1.361-4.962,2.265-6.635,4.5l-.015.018c-4.556,5.265-11.4,7.124-17.521,9.928l-.025.009c-4.517,1.525-8.857,6.784-13.3,7.574a.392.392,0,0,1-.4-.58c5.254-9.64,18.526-11.228,25.52-18.967.878-3.208-10.282,3.952-13.325,5.816a.384.384,0,0,1-.584-.352c.13-2.717-1.081-5.317-.541-8.074a4.67,4.67,0,0,1,2.013-3.1c.306-.183.7-.461.571-.793a1.882,1.882,0,0,0-2.087-.555.393.393,0,0,1-.512-.264c-.885-3.533.6-13.58-4.077-12.808a.462.462,0,0,0-.115.034C1434.686-415.994,1432.849-413.583,1430.4-412.457Z" transform="translate(-1414.76 436.128)" fill="#e0e6fd"/>
</svg>
