<svg xmlns="http://www.w3.org/2000/svg" xmlns:xlink="http://www.w3.org/1999/xlink" viewBox="0 0 500 500"><defs><style>.cls-1{fill:none;}.cls-2{fill:#080833;}.cls-3{isolation:isolate;}.cls-4{fill:url(#linear-gradient);}.cls-5{fill:url(#linear-gradient-2);}.cls-6{fill:url(#linear-gradient-3);}.cls-7{fill:url(#linear-gradient-4);}.cls-8{fill:url(#linear-gradient-5);}.cls-9{fill:url(#linear-gradient-6);}.cls-10{fill:url(#linear-gradient-7);}.cls-11{fill:url(#linear-gradient-8);}.cls-12{fill:url(#linear-gradient-9);}.cls-13{fill:url(#linear-gradient-10);}.cls-14{fill:url(#linear-gradient-11);}.cls-15{fill:url(#linear-gradient-12);}.cls-16{fill:url(#linear-gradient-13);}.cls-17{fill:url(#linear-gradient-14);}.cls-18,.cls-51,.cls-52,.cls-80,.cls-81{opacity:0.3;}.cls-116,.cls-131,.cls-19,.cls-53,.cls-84{opacity:0;}.cls-19{fill:url(#linear-gradient-15);}.cls-20{opacity:0.02;fill:url(#linear-gradient-16);}.cls-21{opacity:0.03;fill:url(#linear-gradient-17);}.cls-22{opacity:0.05;fill:url(#linear-gradient-18);}.cls-23{opacity:0.06;fill:url(#linear-gradient-19);}.cls-24{opacity:0.08;fill:url(#linear-gradient-20);}.cls-25{opacity:0.1;fill:url(#linear-gradient-21);}.cls-26{opacity:0.11;fill:url(#linear-gradient-22);}.cls-27{opacity:0.13;fill:url(#linear-gradient-23);}.cls-28{opacity:0.15;fill:url(#linear-gradient-24);}.cls-29{opacity:0.16;fill:url(#linear-gradient-25);}.cls-30{opacity:0.18;fill:url(#linear-gradient-26);}.cls-31{opacity:0.19;fill:url(#linear-gradient-27);}.cls-32{opacity:0.21;fill:url(#linear-gradient-28);}.cls-33{opacity:0.23;fill:url(#linear-gradient-29);}.cls-34{opacity:0.24;fill:url(#linear-gradient-30);}.cls-35{opacity:0.26;fill:url(#linear-gradient-31);}.cls-36{opacity:0.27;fill:url(#linear-gradient-32);}.cls-37{opacity:0.29;fill:url(#linear-gradient-33);}.cls-38{opacity:0.31;fill:url(#linear-gradient-34);}.cls-39{opacity:0.32;fill:url(#linear-gradient-35);}.cls-40{opacity:0.34;fill:url(#linear-gradient-36);}.cls-41{opacity:0.35;fill:url(#linear-gradient-37);}.cls-42{opacity:0.37;fill:url(#linear-gradient-38);}.cls-43{opacity:0.39;fill:url(#linear-gradient-39);}.cls-44{opacity:0.4;fill:url(#linear-gradient-40);}.cls-45{opacity:0.42;fill:url(#linear-gradient-41);}.cls-46{opacity:0.44;fill:url(#linear-gradient-42);}.cls-47{opacity:0.45;fill:url(#linear-gradient-43);}.cls-48{opacity:0.47;fill:url(#linear-gradient-44);}.cls-49{opacity:0.48;fill:url(#linear-gradient-45);}.cls-50,.cls-65,.cls-79,.cls-83{opacity:0.5;}.cls-50,.cls-51{fill:url(#linear-gradient-46);}.cls-107,.cls-150,.cls-52,.cls-83{mix-blend-mode:multiply;}.cls-53{fill:url(#linear-gradient-48);}.cls-54{opacity:0.04;fill:url(#linear-gradient-49);}.cls-55{opacity:0.08;fill:url(#linear-gradient-50);}.cls-56{opacity:0.13;fill:url(#linear-gradient-51);}.cls-57{opacity:0.17;fill:url(#linear-gradient-52);}.cls-58{opacity:0.21;fill:url(#linear-gradient-53);}.cls-59{opacity:0.25;fill:url(#linear-gradient-54);}.cls-60{opacity:0.29;fill:url(#linear-gradient-55);}.cls-61{opacity:0.33;fill:url(#linear-gradient-56);}.cls-62{opacity:0.38;fill:url(#linear-gradient-57);}.cls-63{opacity:0.42;fill:url(#linear-gradient-58);}.cls-64{opacity:0.46;fill:url(#linear-gradient-59);}.cls-65{fill:url(#linear-gradient-60);}.cls-66{opacity:0.54;fill:url(#linear-gradient-61);}.cls-67{opacity:0.58;fill:url(#linear-gradient-62);}.cls-68{opacity:0.62;fill:url(#linear-gradient-63);}.cls-69{opacity:0.67;fill:url(#linear-gradient-64);}.cls-70{opacity:0.71;fill:url(#linear-gradient-65);}.cls-71{opacity:0.75;fill:url(#linear-gradient-66);}.cls-72{opacity:0.79;fill:url(#linear-gradient-67);}.cls-73{opacity:0.83;fill:url(#linear-gradient-68);}.cls-74{opacity:0.87;fill:url(#linear-gradient-69);}.cls-75{opacity:0.92;fill:url(#linear-gradient-70);}.cls-76{opacity:0.96;fill:url(#linear-gradient-71);}.cls-77{fill:url(#linear-gradient-72);}.cls-78{fill:url(#linear-gradient-73);}.cls-79{fill:url(#New_Pattern);}.cls-80{fill:url(#New_Pattern-3);}.cls-81{fill:url(#New_Pattern-5);}.cls-82{fill:url(#linear-gradient-74);}.cls-84{fill:url(#linear-gradient-75);}.cls-85{opacity:0.05;fill:url(#linear-gradient-76);}.cls-86{opacity:0.1;fill:url(#linear-gradient-77);}.cls-87{opacity:0.14;fill:url(#linear-gradient-78);}.cls-88{opacity:0.19;fill:url(#linear-gradient-79);}.cls-89{opacity:0.24;fill:url(#linear-gradient-80);}.cls-90{opacity:0.29;fill:url(#linear-gradient-81);}.cls-91{opacity:0.33;fill:url(#linear-gradient-82);}.cls-92{opacity:0.38;fill:url(#linear-gradient-83);}.cls-93{opacity:0.43;fill:url(#linear-gradient-84);}.cls-94{opacity:0.48;fill:url(#linear-gradient-85);}.cls-95{opacity:0.52;fill:url(#linear-gradient-86);}.cls-96{opacity:0.57;fill:url(#linear-gradient-87);}.cls-97{opacity:0.62;fill:url(#linear-gradient-88);}.cls-98{opacity:0.67;fill:url(#linear-gradient-89);}.cls-99{opacity:0.71;fill:url(#linear-gradient-90);}.cls-100{opacity:0.76;fill:url(#linear-gradient-91);}.cls-101{opacity:0.81;fill:url(#linear-gradient-92);}.cls-102{opacity:0.86;fill:url(#linear-gradient-93);}.cls-103{opacity:0.9;fill:url(#linear-gradient-94);}.cls-104{opacity:0.95;fill:url(#linear-gradient-95);}.cls-105{fill:url(#linear-gradient-96);}.cls-106{fill:url(#linear-gradient-97);}.cls-107{fill:url(#linear-gradient-98);}.cls-108{fill:url(#linear-gradient-99);}.cls-109{fill:url(#linear-gradient-100);}.cls-110,.cls-113,.cls-158{fill:#fff;}.cls-110{opacity:0.8;}.cls-111{fill:url(#linear-gradient-101);}.cls-112{fill:url(#linear-gradient-102);}.cls-113{opacity:0.79;}.cls-114{fill:url(#linear-gradient-103);}.cls-115{fill:url(#linear-gradient-104);}.cls-116{fill:url(#linear-gradient-105);}.cls-117,.cls-132{opacity:0.08;}.cls-117{fill:url(#linear-gradient-106);}.cls-118,.cls-133{opacity:0.15;}.cls-118{fill:url(#linear-gradient-107);}.cls-119,.cls-134{opacity:0.23;}.cls-119{fill:url(#linear-gradient-108);}.cls-120,.cls-135{opacity:0.31;}.cls-120{fill:url(#linear-gradient-109);}.cls-121,.cls-136{opacity:0.38;}.cls-121{fill:url(#linear-gradient-110);}.cls-122,.cls-137{opacity:0.46;}.cls-122{fill:url(#linear-gradient-111);}.cls-123,.cls-138{opacity:0.54;}.cls-123{fill:url(#linear-gradient-112);}.cls-124,.cls-139{opacity:0.62;}.cls-124{fill:url(#linear-gradient-113);}.cls-125,.cls-140{opacity:0.69;}.cls-125{fill:url(#linear-gradient-114);}.cls-126,.cls-141{opacity:0.77;}.cls-126{fill:url(#linear-gradient-115);}.cls-127,.cls-142{opacity:0.85;}.cls-127{fill:url(#linear-gradient-116);}.cls-128,.cls-143{opacity:0.92;}.cls-128{fill:url(#linear-gradient-117);}.cls-129{fill:url(#linear-gradient-118);}.cls-130{fill:url(#linear-gradient-119);}.cls-131{fill:url(#linear-gradient-120);}.cls-132{fill:url(#linear-gradient-121);}.cls-133{fill:url(#linear-gradient-122);}.cls-134{fill:url(#linear-gradient-123);}.cls-135{fill:url(#linear-gradient-124);}.cls-136{fill:url(#linear-gradient-125);}.cls-137{fill:url(#linear-gradient-126);}.cls-138{fill:url(#linear-gradient-127);}.cls-139{fill:url(#linear-gradient-128);}.cls-140{fill:url(#linear-gradient-129);}.cls-141{fill:url(#linear-gradient-130);}.cls-142{fill:url(#linear-gradient-131);}.cls-143{fill:url(#linear-gradient-132);}.cls-144{fill:url(#linear-gradient-133);}.cls-145{fill:url(#linear-gradient-134);}.cls-146{fill:url(#linear-gradient-135);}.cls-147{fill:url(#linear-gradient-136);}.cls-148{fill:url(#linear-gradient-137);}.cls-149{fill:url(#linear-gradient-138);}.cls-150{opacity:0.75;}.cls-151,.cls-158{font-size:60px;font-family:Overpass-ExtraBoldItalic, Overpass;font-weight:800;font-style:italic;}.cls-152{letter-spacing:-0.02em;}.cls-153{letter-spacing:0em;}.cls-154{letter-spacing:-0.02em;}.cls-155{letter-spacing:-0.03em;}.cls-156{letter-spacing:-0.01em;}.cls-157{letter-spacing:-0.01em;}.cls-159{fill:url(#linear-gradient-139);}.cls-160{fill:url(#linear-gradient-140);}.cls-161{fill:url(#linear-gradient-141);}.cls-162{fill:url(#linear-gradient-142);}.cls-163{fill:url(#linear-gradient-143);}.cls-164{fill:url(#linear-gradient-144);}.cls-165{fill:url(#linear-gradient-145);}.cls-166{fill:url(#linear-gradient-146);}.cls-167{fill:url(#linear-gradient-147);}.cls-168{fill:url(#linear-gradient-148);}.cls-169{fill:url(#linear-gradient-149);}.cls-170{fill:url(#linear-gradient-150);}.cls-171{fill:url(#linear-gradient-151);}.cls-172{fill:url(#linear-gradient-152);}.cls-173{fill:url(#linear-gradient-153);}.cls-174{fill:url(#linear-gradient-154);}.cls-175{fill:url(#linear-gradient-155);}.cls-176{fill:url(#linear-gradient-156);}.cls-177{fill:url(#linear-gradient-157);}.cls-178{fill:url(#linear-gradient-158);}.cls-179{fill:url(#linear-gradient-159);}.cls-180{fill:url(#linear-gradient-160);}.cls-181{fill:url(#linear-gradient-161);}.cls-182{fill:url(#linear-gradient-162);}.cls-183{fill:url(#linear-gradient-163);}</style><linearGradient id="linear-gradient" x1="430.18" y1="469.36" x2="474.11" y2="469.36" gradientUnits="userSpaceOnUse"><stop offset="0" stop-color="#55fffc"/><stop offset="1" stop-color="#5b86e5"/></linearGradient><linearGradient id="linear-gradient-2" x1="463.38" y1="455.22" x2="469.2" y2="455.22" xlink:href="#linear-gradient"/><linearGradient id="linear-gradient-3" x1="440.43" y1="454.36" x2="442.56" y2="454.36" xlink:href="#linear-gradient"/><linearGradient id="linear-gradient-4" x1="440.43" y1="459.58" x2="442.56" y2="459.58" xlink:href="#linear-gradient"/><linearGradient id="linear-gradient-5" x1="436.96" y1="456.97" x2="440.82" y2="456.97" xlink:href="#linear-gradient"/><linearGradient id="linear-gradient-6" x1="442.17" y1="456.97" x2="446.04" y2="456.97" xlink:href="#linear-gradient"/><linearGradient id="linear-gradient-7" x1="454.34" y1="485.66" x2="456.47" y2="485.66" xlink:href="#linear-gradient"/><linearGradient id="linear-gradient-8" x1="454.34" y1="490.88" x2="456.47" y2="490.88" xlink:href="#linear-gradient"/><linearGradient id="linear-gradient-9" x1="450.87" y1="488.27" x2="454.73" y2="488.27" xlink:href="#linear-gradient"/><linearGradient id="linear-gradient-10" x1="456.08" y1="488.27" x2="459.95" y2="488.27" xlink:href="#linear-gradient"/><linearGradient id="linear-gradient-11" x1="474.77" y1="464.36" x2="476.9" y2="464.36" xlink:href="#linear-gradient"/><linearGradient id="linear-gradient-12" x1="474.77" y1="469.58" x2="476.9" y2="469.58" xlink:href="#linear-gradient"/><linearGradient id="linear-gradient-13" x1="471.3" y1="466.97" x2="475.16" y2="466.97" xlink:href="#linear-gradient"/><linearGradient id="linear-gradient-14" x1="476.51" y1="466.97" x2="480.38" y2="466.97" xlink:href="#linear-gradient"/><linearGradient id="linear-gradient-15" x1="33.07" y1="1.03" x2="421.94" y2="552.09" gradientUnits="userSpaceOnUse"><stop offset="0" stop-color="#ffc7c0"/><stop offset="1" stop-color="#a578ff"/></linearGradient><linearGradient id="linear-gradient-16" x1="33.37" y1="1.4" x2="421.66" y2="551.64" xlink:href="#linear-gradient-15"/><linearGradient id="linear-gradient-17" x1="33.68" y1="1.77" x2="421.38" y2="551.19" xlink:href="#linear-gradient-15"/><linearGradient id="linear-gradient-18" x1="33.98" y1="2.15" x2="421.11" y2="550.75" xlink:href="#linear-gradient-15"/><linearGradient id="linear-gradient-19" x1="34.28" y1="2.52" x2="420.83" y2="550.3" xlink:href="#linear-gradient-15"/><linearGradient id="linear-gradient-20" x1="34.58" y1="2.89" x2="420.55" y2="549.85" xlink:href="#linear-gradient-15"/><linearGradient id="linear-gradient-21" x1="34.88" y1="3.26" x2="420.27" y2="549.4" xlink:href="#linear-gradient-15"/><linearGradient id="linear-gradient-22" x1="35.18" y1="3.63" x2="420" y2="548.95" xlink:href="#linear-gradient-15"/><linearGradient id="linear-gradient-23" x1="35.48" y1="4" x2="419.72" y2="548.5" xlink:href="#linear-gradient-15"/><linearGradient id="linear-gradient-24" x1="35.78" y1="4.37" x2="419.44" y2="548.05" xlink:href="#linear-gradient-15"/><linearGradient id="linear-gradient-25" x1="36.08" y1="4.74" x2="419.17" y2="547.61" xlink:href="#linear-gradient-15"/><linearGradient id="linear-gradient-26" x1="36.39" y1="5.11" x2="418.89" y2="547.16" xlink:href="#linear-gradient-15"/><linearGradient id="linear-gradient-27" x1="36.69" y1="5.49" x2="418.61" y2="546.71" xlink:href="#linear-gradient-15"/><linearGradient id="linear-gradient-28" x1="36.99" y1="5.86" x2="418.33" y2="546.26" xlink:href="#linear-gradient-15"/><linearGradient id="linear-gradient-29" x1="37.29" y1="6.23" x2="418.06" y2="545.81" xlink:href="#linear-gradient-15"/><linearGradient id="linear-gradient-30" x1="37.59" y1="6.6" x2="417.78" y2="545.36" xlink:href="#linear-gradient-15"/><linearGradient id="linear-gradient-31" x1="37.89" y1="6.97" x2="417.5" y2="544.92" xlink:href="#linear-gradient-15"/><linearGradient id="linear-gradient-32" x1="38.19" y1="7.34" x2="417.23" y2="544.47" xlink:href="#linear-gradient-15"/><linearGradient id="linear-gradient-33" x1="38.49" y1="7.71" x2="416.95" y2="544.02" xlink:href="#linear-gradient-15"/><linearGradient id="linear-gradient-34" x1="38.79" y1="8.08" x2="416.67" y2="543.57" xlink:href="#linear-gradient-15"/><linearGradient id="linear-gradient-35" x1="39.1" y1="8.45" x2="416.39" y2="543.12" xlink:href="#linear-gradient-15"/><linearGradient id="linear-gradient-36" x1="39.4" y1="8.82" x2="416.12" y2="542.67" xlink:href="#linear-gradient-15"/><linearGradient id="linear-gradient-37" x1="39.7" y1="9.2" x2="415.84" y2="542.23" xlink:href="#linear-gradient-15"/><linearGradient id="linear-gradient-38" x1="40" y1="9.57" x2="415.56" y2="541.78" xlink:href="#linear-gradient-15"/><linearGradient id="linear-gradient-39" x1="40.3" y1="9.94" x2="415.29" y2="541.33" xlink:href="#linear-gradient-15"/><linearGradient id="linear-gradient-40" x1="40.6" y1="10.31" x2="415.01" y2="540.88" xlink:href="#linear-gradient-15"/><linearGradient id="linear-gradient-41" x1="40.9" y1="10.68" x2="414.73" y2="540.43" xlink:href="#linear-gradient-15"/><linearGradient id="linear-gradient-42" x1="41.2" y1="11.05" x2="414.45" y2="539.98" xlink:href="#linear-gradient-15"/><linearGradient id="linear-gradient-43" x1="41.5" y1="11.42" x2="414.18" y2="539.54" xlink:href="#linear-gradient-15"/><linearGradient id="linear-gradient-44" x1="41.8" y1="11.79" x2="413.9" y2="539.09" xlink:href="#linear-gradient-15"/><linearGradient id="linear-gradient-45" x1="42.11" y1="12.16" x2="413.62" y2="538.64" xlink:href="#linear-gradient-15"/><linearGradient id="linear-gradient-46" x1="42.41" y1="12.53" x2="413.35" y2="538.19" xlink:href="#linear-gradient-15"/><linearGradient id="linear-gradient-48" x1="409.56" y1="430.57" x2="183.29" y2="183.18" gradientUnits="userSpaceOnUse"><stop offset="0" stop-color="#00d4ff"/><stop offset="1" stop-color="#ff6df7"/></linearGradient><linearGradient id="linear-gradient-49" x1="409.21" y1="430.21" x2="183.42" y2="183.35" xlink:href="#linear-gradient-48"/><linearGradient id="linear-gradient-50" x1="408.86" y1="429.85" x2="183.56" y2="183.52" xlink:href="#linear-gradient-48"/><linearGradient id="linear-gradient-51" x1="408.51" y1="429.49" x2="183.69" y2="183.69" xlink:href="#linear-gradient-48"/><linearGradient id="linear-gradient-52" x1="408.16" y1="429.13" x2="183.83" y2="183.86" xlink:href="#linear-gradient-48"/><linearGradient id="linear-gradient-53" x1="407.81" y1="428.77" x2="183.96" y2="184.03" xlink:href="#linear-gradient-48"/><linearGradient id="linear-gradient-54" x1="407.46" y1="428.4" x2="184.1" y2="184.19" xlink:href="#linear-gradient-48"/><linearGradient id="linear-gradient-55" x1="407.11" y1="428.04" x2="184.23" y2="184.36" xlink:href="#linear-gradient-48"/><linearGradient id="linear-gradient-56" x1="406.76" y1="427.68" x2="184.37" y2="184.53" xlink:href="#linear-gradient-48"/><linearGradient id="linear-gradient-57" x1="406.41" y1="427.32" x2="184.51" y2="184.7" xlink:href="#linear-gradient-48"/><linearGradient id="linear-gradient-58" x1="406.06" y1="426.96" x2="184.64" y2="184.87" xlink:href="#linear-gradient-48"/><linearGradient id="linear-gradient-59" x1="405.71" y1="426.6" x2="184.78" y2="185.04" xlink:href="#linear-gradient-48"/><linearGradient id="linear-gradient-60" x1="405.36" y1="426.24" x2="184.91" y2="185.21" xlink:href="#linear-gradient-48"/><linearGradient id="linear-gradient-61" x1="405.01" y1="425.88" x2="185.05" y2="185.38" xlink:href="#linear-gradient-48"/><linearGradient id="linear-gradient-62" x1="404.67" y1="425.51" x2="185.18" y2="185.55" xlink:href="#linear-gradient-48"/><linearGradient id="linear-gradient-63" x1="404.32" y1="425.15" x2="185.32" y2="185.72" xlink:href="#linear-gradient-48"/><linearGradient id="linear-gradient-64" x1="403.97" y1="424.79" x2="185.45" y2="185.88" xlink:href="#linear-gradient-48"/><linearGradient id="linear-gradient-65" x1="403.62" y1="424.43" x2="185.59" y2="186.05" xlink:href="#linear-gradient-48"/><linearGradient id="linear-gradient-66" x1="403.27" y1="424.07" x2="185.73" y2="186.22" xlink:href="#linear-gradient-48"/><linearGradient id="linear-gradient-67" x1="402.92" y1="423.71" x2="185.86" y2="186.39" xlink:href="#linear-gradient-48"/><linearGradient id="linear-gradient-68" x1="402.57" y1="423.35" x2="186" y2="186.56" xlink:href="#linear-gradient-48"/><linearGradient id="linear-gradient-69" x1="402.22" y1="422.98" x2="186.13" y2="186.73" xlink:href="#linear-gradient-48"/><linearGradient id="linear-gradient-70" x1="401.87" y1="422.62" x2="186.27" y2="186.9" xlink:href="#linear-gradient-48"/><linearGradient id="linear-gradient-71" x1="401.52" y1="422.26" x2="186.4" y2="187.07" xlink:href="#linear-gradient-48"/><linearGradient id="linear-gradient-72" x1="401.17" y1="421.9" x2="186.54" y2="187.24" xlink:href="#linear-gradient-48"/><linearGradient id="linear-gradient-73" x1="397.56" y1="421.78" x2="177.48" y2="181.15" gradientUnits="userSpaceOnUse"><stop offset="0" stop-color="#7bffff"/><stop offset="1" stop-color="#f5b4ff"/></linearGradient><pattern id="New_Pattern" data-name="New Pattern" width="12.21" height="12.21" patternTransform="translate(47.37 -22.77) scale(0.66)" patternUnits="userSpaceOnUse" viewBox="0 0 12.21 12.21"><rect class="cls-1" width="12.21" height="12.21"/><circle class="cls-2" cx="6.11" cy="6.11" r="1.81"/></pattern><pattern id="New_Pattern-3" data-name="New Pattern" width="12.21" height="12.21" patternTransform="translate(53.14 -27.69) scale(0.66)" patternUnits="userSpaceOnUse" viewBox="0 0 12.21 12.21"><rect class="cls-1" width="12.21" height="12.21"/><circle class="cls-2" cx="6.11" cy="6.11" r="1.81"/></pattern><pattern id="New_Pattern-5" data-name="New Pattern" width="12.21" height="12.21" patternTransform="translate(11.68 1.43) scale(0.75)" patternUnits="userSpaceOnUse" viewBox="0 0 12.21 12.21"><rect class="cls-1" width="12.21" height="12.21"/><circle class="cls-2" cx="6.11" cy="6.11" r="1.81"/></pattern><linearGradient id="linear-gradient-74" x1="415.74" y1="432.4" x2="91.75" y2="44.49" gradientUnits="userSpaceOnUse"><stop offset="0" stop-color="#6af8ff"/><stop offset="1" stop-color="#7fffbd"/></linearGradient><linearGradient id="linear-gradient-75" x1="406.24" y1="468.05" x2="136.86" y2="173.53" gradientUnits="userSpaceOnUse"><stop offset="0" stop-color="#b36aff"/><stop offset="1" stop-color="#ff55d9"/></linearGradient><linearGradient id="linear-gradient-76" x1="406.95" y1="467.11" x2="137.36" y2="172.36" gradientUnits="userSpaceOnUse"><stop offset="0" stop-color="#ab66fe"/><stop offset="1" stop-color="#ff51db"/></linearGradient><linearGradient id="linear-gradient-77" x1="407.87" y1="466.39" x2="137.89" y2="171.22" gradientUnits="userSpaceOnUse"><stop offset="0" stop-color="#a362fd"/><stop offset="1" stop-color="#ff4ddd"/></linearGradient><linearGradient id="linear-gradient-78" x1="408.78" y1="465.67" x2="138.42" y2="170.08" gradientUnits="userSpaceOnUse"><stop offset="0" stop-color="#9c5efb"/><stop offset="1" stop-color="#ff49de"/></linearGradient><linearGradient id="linear-gradient-79" x1="409.7" y1="464.96" x2="138.95" y2="168.93" gradientUnits="userSpaceOnUse"><stop offset="0" stop-color="#945afa"/><stop offset="1" stop-color="#ff45e0"/></linearGradient><linearGradient id="linear-gradient-80" x1="410.63" y1="464.24" x2="139.48" y2="167.79" gradientUnits="userSpaceOnUse"><stop offset="0" stop-color="#8c56f9"/><stop offset="1" stop-color="#ff41e2"/></linearGradient><linearGradient id="linear-gradient-81" x1="411.55" y1="463.53" x2="140" y2="166.64" gradientUnits="userSpaceOnUse"><stop offset="0" stop-color="#8452f8"/><stop offset="1" stop-color="#ff3de4"/></linearGradient><linearGradient id="linear-gradient-82" x1="412.47" y1="462.82" x2="140.53" y2="165.49" gradientUnits="userSpaceOnUse"><stop offset="0" stop-color="#7d4ef6"/><stop offset="1" stop-color="#ff39e6"/></linearGradient><linearGradient id="linear-gradient-83" x1="413.4" y1="462.11" x2="141.05" y2="164.34" gradientUnits="userSpaceOnUse"><stop offset="0" stop-color="#754af5"/><stop offset="1" stop-color="#ff35e7"/></linearGradient><linearGradient id="linear-gradient-84" x1="414.32" y1="461.4" x2="141.57" y2="163.19" gradientUnits="userSpaceOnUse"><stop offset="0" stop-color="#6d46f4"/><stop offset="1" stop-color="#ff31e9"/></linearGradient><linearGradient id="linear-gradient-85" x1="415.25" y1="460.69" x2="142.09" y2="162.04" gradientUnits="userSpaceOnUse"><stop offset="0" stop-color="#6542f3"/><stop offset="1" stop-color="#ff2deb"/></linearGradient><linearGradient id="linear-gradient-86" x1="416.17" y1="459.98" x2="142.61" y2="160.88" gradientUnits="userSpaceOnUse"><stop offset="0" stop-color="#5e3df1"/><stop offset="1" stop-color="#ff28ed"/></linearGradient><linearGradient id="linear-gradient-87" x1="417.1" y1="459.27" x2="143.12" y2="159.72" gradientUnits="userSpaceOnUse"><stop offset="0" stop-color="#5639f0"/><stop offset="1" stop-color="#ff24ef"/></linearGradient><linearGradient id="linear-gradient-88" x1="418.03" y1="458.57" x2="143.64" y2="158.56" gradientUnits="userSpaceOnUse"><stop offset="0" stop-color="#4e35ef"/><stop offset="1" stop-color="#ff20f1"/></linearGradient><linearGradient id="linear-gradient-89" x1="418.96" y1="457.86" x2="144.15" y2="157.4" gradientUnits="userSpaceOnUse"><stop offset="0" stop-color="#4631ee"/><stop offset="1" stop-color="#ff1cf2"/></linearGradient><linearGradient id="linear-gradient-90" x1="419.89" y1="457.16" x2="144.66" y2="156.24" gradientUnits="userSpaceOnUse"><stop offset="0" stop-color="#3f2dec"/><stop offset="1" stop-color="#ff18f4"/></linearGradient><linearGradient id="linear-gradient-91" x1="420.83" y1="456.46" x2="145.17" y2="155.08" gradientUnits="userSpaceOnUse"><stop offset="0" stop-color="#3729eb"/><stop offset="1" stop-color="#ff14f6"/></linearGradient><linearGradient id="linear-gradient-92" x1="421.76" y1="455.76" x2="145.68" y2="153.91" gradientUnits="userSpaceOnUse"><stop offset="0" stop-color="#2f25ea"/><stop offset="1" stop-color="#ff10f8"/></linearGradient><linearGradient id="linear-gradient-93" x1="422.69" y1="455.06" x2="146.19" y2="152.75" gradientUnits="userSpaceOnUse"><stop offset="0" stop-color="#2721e9"/><stop offset="1" stop-color="#ff0cfa"/></linearGradient><linearGradient id="linear-gradient-94" x1="423.63" y1="454.36" x2="146.69" y2="151.58" gradientUnits="userSpaceOnUse"><stop offset="0" stop-color="#201de7"/><stop offset="1" stop-color="#ff08fb"/></linearGradient><linearGradient id="linear-gradient-95" x1="424.57" y1="453.66" x2="147.2" y2="150.41" gradientUnits="userSpaceOnUse"><stop offset="0" stop-color="#1819e6"/><stop offset="1" stop-color="#ff04fd"/></linearGradient><linearGradient id="linear-gradient-96" x1="425.71" y1="453.19" x2="147.73" y2="149.27" gradientUnits="userSpaceOnUse"><stop offset="0" stop-color="#1015e5"/><stop offset="1" stop-color="#f0f"/></linearGradient><linearGradient id="linear-gradient-97" x1="425.71" y1="453.19" x2="147.74" y2="149.28" xlink:href="#linear-gradient"/><linearGradient id="linear-gradient-98" x1="89.48" y1="80.3" x2="167.22" y2="80.3" gradientTransform="translate(85.11 -64.79) rotate(41.37)" xlink:href="#linear-gradient"/><linearGradient id="linear-gradient-99" x1="338.63" y1="341.28" x2="425.34" y2="341.28" gradientTransform="matrix(0.75, 0.41, -0.66, 0.47, 41.78, -294.08)" xlink:href="#linear-gradient"/><linearGradient id="linear-gradient-100" x1="1220.76" y1="1215.92" x2="1312.35" y2="1215.92" gradientTransform="matrix(0.75, 0.31, -0.66, 0.35, 338.59, -481.95)" xlink:href="#linear-gradient"/><linearGradient id="linear-gradient-101" x1="1234.68" y1="1255.97" x2="1326.27" y2="1255.97" gradientTransform="matrix(0.75, 0.31, -0.66, 0.35, 354.62, -475.9)" xlink:href="#linear-gradient"/><linearGradient id="linear-gradient-102" x1="36.46" y1="69.87" x2="66.71" y2="69.87" xlink:href="#linear-gradient"/><linearGradient id="linear-gradient-103" x1="50.08" y1="461.15" x2="67.99" y2="461.15" xlink:href="#linear-gradient"/><linearGradient id="linear-gradient-104" x1="445.86" y1="145.65" x2="464.7" y2="145.65" xlink:href="#linear-gradient"/><linearGradient id="linear-gradient-105" x1="369.42" y1="459.91" x2="394.57" y2="459.91" xlink:href="#linear-gradient"/><linearGradient id="linear-gradient-106" x1="369.75" y1="459.91" x2="394.24" y2="459.91" xlink:href="#linear-gradient"/><linearGradient id="linear-gradient-107" x1="370.09" y1="459.91" x2="393.9" y2="459.91" xlink:href="#linear-gradient"/><linearGradient id="linear-gradient-108" x1="370.43" y1="459.91" x2="393.56" y2="459.91" xlink:href="#linear-gradient"/><linearGradient id="linear-gradient-109" x1="370.76" y1="459.91" x2="393.22" y2="459.91" xlink:href="#linear-gradient"/><linearGradient id="linear-gradient-110" x1="371.1" y1="459.91" x2="392.89" y2="459.91" xlink:href="#linear-gradient"/><linearGradient id="linear-gradient-111" x1="371.44" y1="459.91" x2="392.55" y2="459.91" xlink:href="#linear-gradient"/><linearGradient id="linear-gradient-112" x1="371.78" y1="459.91" x2="392.21" y2="459.91" xlink:href="#linear-gradient"/><linearGradient id="linear-gradient-113" x1="372.11" y1="459.91" x2="391.88" y2="459.91" xlink:href="#linear-gradient"/><linearGradient id="linear-gradient-114" x1="372.45" y1="459.91" x2="391.54" y2="459.91" xlink:href="#linear-gradient"/><linearGradient id="linear-gradient-115" x1="372.79" y1="459.91" x2="391.2" y2="459.91" xlink:href="#linear-gradient"/><linearGradient id="linear-gradient-116" x1="373.12" y1="459.91" x2="390.86" y2="459.91" xlink:href="#linear-gradient"/><linearGradient id="linear-gradient-117" x1="373.46" y1="459.91" x2="390.53" y2="459.91" xlink:href="#linear-gradient"/><linearGradient id="linear-gradient-118" x1="373.8" y1="459.91" x2="390.19" y2="459.91" xlink:href="#linear-gradient"/><linearGradient id="linear-gradient-119" x1="369.21" y1="457.43" x2="389.82" y2="457.43" xlink:href="#linear-gradient"/><linearGradient id="linear-gradient-120" x1="328.1" y1="21.4" x2="346.39" y2="21.4" xlink:href="#linear-gradient"/><linearGradient id="linear-gradient-121" x1="328.35" y1="21.4" x2="346.15" y2="21.4" xlink:href="#linear-gradient"/><linearGradient id="linear-gradient-122" x1="328.59" y1="21.4" x2="345.9" y2="21.4" xlink:href="#linear-gradient"/><linearGradient id="linear-gradient-123" x1="328.84" y1="21.4" x2="345.66" y2="21.4" xlink:href="#linear-gradient"/><linearGradient id="linear-gradient-124" x1="329.08" y1="21.4" x2="345.41" y2="21.4" xlink:href="#linear-gradient"/><linearGradient id="linear-gradient-125" x1="329.33" y1="21.4" x2="345.17" y2="21.4" xlink:href="#linear-gradient"/><linearGradient id="linear-gradient-126" x1="329.57" y1="21.4" x2="344.92" y2="21.4" xlink:href="#linear-gradient"/><linearGradient id="linear-gradient-127" x1="329.82" y1="21.4" x2="344.68" y2="21.4" xlink:href="#linear-gradient"/><linearGradient id="linear-gradient-128" x1="330.07" y1="21.4" x2="344.43" y2="21.4" xlink:href="#linear-gradient"/><linearGradient id="linear-gradient-129" x1="330.31" y1="21.4" x2="344.19" y2="21.4" xlink:href="#linear-gradient"/><linearGradient id="linear-gradient-130" x1="330.56" y1="21.4" x2="343.94" y2="21.4" xlink:href="#linear-gradient"/><linearGradient id="linear-gradient-131" x1="330.8" y1="21.4" x2="343.7" y2="21.4" xlink:href="#linear-gradient"/><linearGradient id="linear-gradient-132" x1="331.05" y1="21.4" x2="343.45" y2="21.4" xlink:href="#linear-gradient"/><linearGradient id="linear-gradient-133" x1="331.29" y1="21.4" x2="343.21" y2="21.4" xlink:href="#linear-gradient"/><linearGradient id="linear-gradient-134" x1="327.95" y1="19.6" x2="342.93" y2="19.6" xlink:href="#linear-gradient"/><linearGradient id="linear-gradient-135" x1="13.34" y1="170.16" x2="33.15" y2="170.16" xlink:href="#linear-gradient"/><linearGradient id="linear-gradient-136" x1="466.19" y1="270.69" x2="484.19" y2="270.69" xlink:href="#linear-gradient"/><linearGradient id="linear-gradient-137" x1="181.41" y1="491.6" x2="200.21" y2="491.6" xlink:href="#linear-gradient"/><linearGradient id="linear-gradient-138" x1="-200.33" y1="288.4" x2="-181.53" y2="288.4" gradientTransform="matrix(0.67, -0.75, 0.75, 0.67, 366.45, -240.25)" xlink:href="#linear-gradient"/><linearGradient id="linear-gradient-139" x1="422.32" y1="60.76" x2="459.18" y2="60.76" xlink:href="#linear-gradient"/><linearGradient id="linear-gradient-140" x1="441.13" y1="51.32" x2="451.16" y2="51.32" xlink:href="#linear-gradient"/><linearGradient id="linear-gradient-141" x1="441.13" y1="60.46" x2="446.42" y2="60.46" xlink:href="#linear-gradient"/><linearGradient id="linear-gradient-142" x1="442.08" y1="64.49" x2="443.58" y2="64.49" xlink:href="#linear-gradient"/><linearGradient id="linear-gradient-143" x1="445.53" y1="41.58" x2="450.83" y2="41.58" xlink:href="#linear-gradient"/><linearGradient id="linear-gradient-144" x1="443.14" y1="51.02" x2="448.81" y2="51.02" xlink:href="#linear-gradient"/><linearGradient id="linear-gradient-145" x1="429.14" y1="64.1" x2="438.31" y2="64.1" xlink:href="#linear-gradient"/><linearGradient id="linear-gradient-146" x1="432.14" y1="68.93" x2="441.31" y2="68.93" xlink:href="#linear-gradient"/><linearGradient id="linear-gradient-147" x1="447.71" y1="62.68" x2="459.01" y2="62.68" xlink:href="#linear-gradient"/><linearGradient id="linear-gradient-148" x1="422.14" y1="57.36" x2="438.95" y2="57.36" xlink:href="#linear-gradient"/><linearGradient id="linear-gradient-149" x1="38.13" y1="38.85" x2="41.45" y2="38.85" xlink:href="#linear-gradient"/><linearGradient id="linear-gradient-150" x1="19.58" y1="47.57" x2="34.72" y2="47.57" xlink:href="#linear-gradient"/><linearGradient id="linear-gradient-151" x1="11.58" y1="54.84" x2="16.17" y2="54.84" xlink:href="#linear-gradient"/><linearGradient id="linear-gradient-152" x1="6.02" y1="46.93" x2="10.02" y2="46.93" xlink:href="#linear-gradient"/><linearGradient id="linear-gradient-153" x1="1.97" y1="38.38" x2="5.29" y2="38.38" xlink:href="#linear-gradient"/><linearGradient id="linear-gradient-154" x1="8.7" y1="29.66" x2="23.83" y2="29.66" xlink:href="#linear-gradient"/><linearGradient id="linear-gradient-155" x1="27.25" y1="22.39" x2="31.83" y2="22.39" xlink:href="#linear-gradient"/><linearGradient id="linear-gradient-156" x1="33.39" y1="30.3" x2="37.4" y2="30.3" xlink:href="#linear-gradient"/><linearGradient id="linear-gradient-157" x1="14.29" y1="46.77" x2="26.74" y2="46.77" xlink:href="#linear-gradient"/><linearGradient id="linear-gradient-158" x1="24.03" y1="39.21" x2="36.79" y2="39.21" xlink:href="#linear-gradient"/><linearGradient id="linear-gradient-159" x1="17.08" y1="35.16" x2="23.3" y2="35.16" xlink:href="#linear-gradient"/><linearGradient id="linear-gradient-160" x1="8.47" y1="423.9" x2="49.33" y2="423.9" xlink:href="#linear-gradient"/><linearGradient id="linear-gradient-161" x1="20.98" y1="421.96" x2="32.94" y2="421.96" xlink:href="#linear-gradient"/><linearGradient id="linear-gradient-162" x1="8.37" y1="407.21" x2="16.04" y2="407.21" xlink:href="#linear-gradient"/><linearGradient id="linear-gradient-163" x1="16.06" y1="413.35" x2="20.65" y2="413.35" xlink:href="#linear-gradient"/></defs><g class="cls-3"><g id="Layer_1" data-name="Layer 1"><path class="cls-4" d="M434.93,491.33a1.1,1.1,0,0,1-.75-.31l-3.69-3.69a1.07,1.07,0,0,1,0-1.51l38.12-38.11a1.05,1.05,0,0,1,1.5,0l3.69,3.69a1,1,0,0,1,.31.75,1.06,1.06,0,0,1-.31.75L435.69,491A1.1,1.1,0,0,1,434.93,491.33Zm-2.18-4.75,2.18,2.18,36.61-36.61L469.36,450Z"/><path class="cls-5" d="M468.13,458.13a1.05,1.05,0,0,1-.75-.31l-3.69-3.69a1.05,1.05,0,0,1,0-1.5,1.06,1.06,0,0,1,1.51,0l3.68,3.68a1.06,1.06,0,0,1,0,1.51A1,1,0,0,1,468.13,458.13Z"/><path class="cls-6" d="M441.5,456.3a1.07,1.07,0,0,1-1.07-1.07v-1.74a1.07,1.07,0,0,1,2.13,0v1.74A1.06,1.06,0,0,1,441.5,456.3Z"/><path class="cls-7" d="M441.5,461.52a1.07,1.07,0,0,1-1.07-1.07v-1.74a1.07,1.07,0,0,1,2.13,0v1.74A1.06,1.06,0,0,1,441.5,461.52Z"/><path class="cls-8" d="M439.76,458H438a1.07,1.07,0,0,1,0-2.13h1.74a1.07,1.07,0,0,1,0,2.13Z"/><path class="cls-9" d="M445,458h-1.74a1.07,1.07,0,1,1,0-2.13H445a1.07,1.07,0,0,1,0,2.13Z"/><path class="cls-10" d="M455.41,487.6a1.07,1.07,0,0,1-1.07-1.07v-1.74a1.07,1.07,0,0,1,2.13,0v1.74A1.06,1.06,0,0,1,455.41,487.6Z"/><path class="cls-11" d="M455.41,492.81a1.06,1.06,0,0,1-1.07-1.06V490a1.07,1.07,0,1,1,2.13,0v1.74A1.05,1.05,0,0,1,455.41,492.81Z"/><path class="cls-12" d="M453.67,489.34h-1.74a1.07,1.07,0,0,1,0-2.13h1.74a1.07,1.07,0,0,1,0,2.13Z"/><path class="cls-13" d="M458.89,489.34h-1.74a1.07,1.07,0,1,1,0-2.13h1.74a1.07,1.07,0,0,1,0,2.13Z"/><path class="cls-14" d="M475.84,466.3a1.07,1.07,0,0,1-1.07-1.07v-1.74a1.07,1.07,0,0,1,2.13,0v1.74A1.06,1.06,0,0,1,475.84,466.3Z"/><path class="cls-15" d="M475.84,471.51a1.06,1.06,0,0,1-1.07-1.06v-1.74a1.07,1.07,0,1,1,2.13,0v1.74A1.05,1.05,0,0,1,475.84,471.51Z"/><path class="cls-16" d="M474.1,468h-1.74a1.07,1.07,0,0,1,0-2.13h1.74a1.07,1.07,0,0,1,0,2.13Z"/><path class="cls-17" d="M479.32,468h-1.74a1.07,1.07,0,1,1,0-2.13h1.74a1.07,1.07,0,0,1,0,2.13Z"/><g id="pink_blue"><g id="shade"><g class="cls-18"><path class="cls-19" d="M435,334.52c-4.16-36.81-42.87-45.59-66.09-64.57S352.48,203.25,350,176s-12.33-49.43-27.26-63.35-54.32-8.4-67.25-30.42,8-24.85-12.45-46C215.75,8,184.57,37.33,183,53.11s7.39,19.68,6.38,29-5,13.69-19.14,9.7c-23.68-6.69-21.49,16.9-31,28.51s-30.49,4.8-34.62-3-7.79-23-19-24c-18.79-1.6-41.85,10.18-28.76,37.77,11.53,24.32,23.39,22.05,26.32,41.26s2.29,24.16,1,44.54S140,321.27,116.07,330.12c-24.23,8.95-35.93,61.25,10.42,97.69,22.37,17.58,58.93,27.85,81.4,2.68,11.76-13.17,17.82-21.69,27.14-36.37s17.38-29.89,27-38.43S281.88,325.35,287,350s-5.21,48.28,2.39,58.61C326.48,459,446.44,436.11,435,334.52Z"/><path class="cls-20" d="M434.65,334.4c-4.15-36.75-42.81-45.52-66-64.48s-16.36-66.59-18.82-93.79-12.31-49.36-27.22-63.25-54.23-8.39-67.15-30.38,8-24.81-12.43-46c-27.26-28.2-58.39,1.14-60,16.89s7.38,19.65,6.37,28.92-5,13.67-19.1,9.68c-23.65-6.67-21.47,16.88-30.94,28.47s-30.44,4.8-34.57-3S97,94.57,85.73,93.61C67,92,44,103.74,57.1,131.28c11.52,24.29,23.36,22,26.29,41.2s2.28,24.13,1,44.47S140.15,321.17,116.26,330c-24.19,8.94-35.88,61.16,10.4,97.54,22.33,17.56,58.84,27.82,81.28,2.69,11.74-13.15,17.79-21.66,27.09-36.32s17.35-29.85,27-38.38,19.78-30.29,24.85-5.7-5.2,48.2,2.39,58.52C326.35,458.69,446.12,435.83,434.65,334.4Z"/><path class="cls-21" d="M434.36,334.28c-4.15-36.7-42.75-45.45-65.9-64.38s-16.33-66.5-18.79-93.65S337.38,127,322.49,113.09s-54.15-8.37-67.05-30.33,8-24.77-12.4-45.9C215.82,8.7,184.73,38,183.16,53.72s7.38,19.62,6.37,28.88-5,13.64-19.08,9.66c-23.61-6.67-21.43,16.85-30.89,28.43s-30.4,4.78-34.51-3-8-22.88-19.18-23.84C67.15,92.29,44.33,104,57.38,131.47c11.5,24.25,23.32,22,26.24,41.14s2.29,24.09,1,44.4,55.7,104.06,31.84,112.88c-24.15,8.92-35.82,61.06,10.39,97.39,22.3,17.53,58.75,27.77,81.15,2.68,11.73-13.13,17.77-21.63,27.06-36.26s17.32-29.8,27-38.32,19.75-30.25,24.82-5.7-5.2,48.13,2.39,58.43C326.21,458.38,445.8,435.56,434.36,334.28Z"/><path class="cls-22" d="M434.06,334.16c-4.15-36.64-42.68-45.39-65.8-64.28s-16.3-66.4-18.76-93.51-12.27-49.21-27.14-63.06S268.29,105,255.42,83s8-24.73-12.39-45.83C215.85,9.07,184.81,38.32,183.25,54s7.36,19.6,6.35,28.84-5,13.62-19,9.65c-23.57-6.66-21.4,16.82-30.84,28.38s-30.35,4.78-34.46-3S97.23,95.13,86,94.17c-18.7-1.6-41.4,10-28.37,37.49,11.49,24.21,23.29,22,26.21,41.07s2.28,24.06,1,44.34,55.61,103.9,31.79,112.7c-24.12,8.92-35.77,61,10.37,97.25,22.26,17.5,58.66,27.73,81,2.67,11.7-13.11,17.74-21.59,27-36.2s17.3-29.76,26.92-38.26,19.72-30.2,24.78-5.69-5.18,48.06,2.39,58.34C326.08,458.07,445.49,435.28,434.06,334.16Z"/><path class="cls-23" d="M433.76,334c-4.14-36.59-42.62-45.32-65.7-64.19s-16.28-66.29-18.73-93.36-12.25-49.13-27.1-63-54-8.34-66.84-30.24,8-24.69-12.37-45.76c-27.14-28.08-58.13,1.13-59.69,16.81s7.35,19.56,6.34,28.79-5,13.6-19,9.64c-23.54-6.65-21.36,16.8-30.79,28.33s-30.3,4.78-34.41-2.94-8.1-22.74-19.29-23.7c-18.67-1.6-41.24,10-28.23,37.4,11.46,24.17,23.25,21.91,26.16,41s2.28,24,1,44.27,55.53,103.74,31.74,112.53c-24.08,8.9-35.71,60.88,10.36,97.09,22.23,17.48,58.57,27.69,80.91,2.68,11.68-13.09,17.7-21.57,27-36.15s17.27-29.71,26.88-38.21,19.69-30.15,24.74-5.68-5.18,48,2.38,58.26C325.94,457.76,445.17,435,433.76,334Z"/><path class="cls-24" d="M433.46,333.92c-4.13-36.54-42.55-45.25-65.59-64.09s-16.26-66.19-18.71-93.22-12.23-49.06-27.06-62.87-53.9-8.34-66.74-30.2,8-24.66-12.35-45.69c-27.09-28-58,1.13-59.6,16.79s7.34,19.53,6.34,28.74-5,13.58-19,9.62c-23.51-6.63-21.33,16.78-30.76,28.3s-30.25,4.76-34.35-2.94S97.48,95.69,86.3,94.73c-18.64-1.6-41.09,9.92-28.1,37.3C69.65,156.17,81.42,153.92,84.33,173s2.27,24,1,44.2S140.75,320.77,117,329.55c-24,8.88-35.67,60.78,10.33,96.94,22.2,17.45,58.49,27.65,80.79,2.67,11.67-13.07,17.68-21.53,26.93-36.09s17.25-29.67,26.84-38.15,19.66-30.11,24.71-5.67-5.17,47.91,2.37,58.16C325.81,457.45,444.85,434.73,433.46,333.92Z"/><path class="cls-25" d="M433.16,333.79c-4.12-36.47-42.49-45.17-65.49-64S351.44,203.72,349,176.73s-12.22-49-27-62.77-53.82-8.33-66.63-30.15,8-24.63-12.33-45.63c-27.06-28-58,1.13-59.51,16.76s7.32,19.5,6.32,28.7-5,13.56-19,9.61c-23.47-6.63-21.3,16.75-30.71,28.25s-30.2,4.76-34.29-2.93S97.6,96,86.44,95c-18.61-1.59-40.93,9.87-28,37.21,11.43,24.1,23.18,21.85,26.08,40.89s2.27,23.94,1,44.13,55.36,103.43,31.64,112.19c-24,8.87-35.61,60.69,10.32,96.8,22.17,17.42,58.4,27.6,80.67,2.66,11.65-13.05,17.65-21.49,26.89-36s17.21-29.62,26.79-38.08,19.63-30.07,24.67-5.67-5.16,47.84,2.37,58.08C325.67,457.14,444.54,434.46,433.16,333.79Z"/><path class="cls-26" d="M432.86,333.67c-4.12-36.42-42.42-45.1-65.39-63.89s-16.21-66-18.65-92.93-12.2-48.91-27-62.68-53.74-8.31-66.54-30.1,8-24.59-12.31-45.56c-27-27.94-57.87,1.13-59.42,16.74s7.32,19.47,6.31,28.66S184.94,97.44,171,93.5c-23.43-6.62-21.26,16.72-30.66,28.21s-30.16,4.75-34.24-2.93S97.73,96.24,86.59,95.29C68,93.7,45.8,105.11,58.75,132.41c11.41,24.06,23.14,21.81,26.05,40.82s2.26,23.91,1,44.07,55.28,103.27,31.6,112c-24,8.85-35.56,60.6,10.3,96.65,22.13,17.39,58.31,27.56,80.54,2.65,11.64-13,17.63-21.46,26.85-36s17.19-29.57,26.76-38,19.6-30,24.63-5.65-5.16,47.76,2.37,58C325.54,456.83,444.22,434.18,432.86,333.67Z"/><path class="cls-27" d="M432.56,333.55c-4.11-36.36-42.35-45-65.29-63.79S351.09,203.87,348.65,177s-12.18-48.84-26.93-62.58-53.66-8.3-66.44-30.06,8-24.55-12.29-45.49c-27-27.9-57.78,1.13-59.33,16.71S191,75,190,84.17s-4.95,13.52-18.9,9.58c-23.4-6.61-21.24,16.69-30.62,28.16s-30.11,4.74-34.19-2.93S97.85,96.52,86.73,95.57C68.17,94,46.1,105.34,59,132.6c11.39,24,23.1,21.78,26,40.76s2.26,23.87,1,44,55.19,103.11,31.55,111.84c-23.93,8.84-35.5,60.51,10.29,96.5,22.1,17.37,58.22,27.52,80.42,2.66,11.61-13,17.6-21.43,26.8-35.93s17.17-29.53,26.72-38,19.57-30,24.59-5.65-5.14,47.7,2.37,57.9C325.41,456.52,443.9,433.91,432.56,333.55Z"/><path class="cls-28" d="M432.26,333.43c-4.1-36.31-42.29-45-65.19-63.69S350.91,204,348.48,177.09s-12.16-48.76-26.89-62.49-53.58-8.28-66.33-30S263.19,60.08,243,39.18c-26.93-27.86-57.69,1.12-59.23,16.68S191,75.27,190,84.43,185.1,97.93,171.17,94c-23.36-6.59-21.2,16.67-30.57,28.12s-30.06,4.74-34.14-2.92S98,96.8,86.87,95.85c-18.53-1.59-40.48,9.72-27.57,36.93,11.38,24,23.07,21.75,26,40.7s2.25,23.84,1,43.93,55.1,103,31.49,111.68C93.84,337.92,82.29,389.5,128,425.44c22.06,17.34,58.13,27.48,80.29,2.65,11.6-13,17.58-21.4,26.77-35.87s17.14-29.49,26.67-37.91,19.54-29.93,24.56-5.64-5.14,47.62,2.36,57.81C325.27,456.21,443.59,433.63,432.26,333.43Z"/><path class="cls-29" d="M432,333.31c-4.09-36.25-42.22-44.9-65.09-63.6s-16.13-65.68-18.56-92.5-12.14-48.69-26.85-62.39-53.49-8.27-66.23-30S263.15,60.38,243,39.51c-26.89-27.82-57.6,1.12-59.14,16.66s7.28,19.38,6.29,28.52-4.94,13.48-18.85,9.55c-23.32-6.59-21.17,16.65-30.52,28.08s-30,4.73-34.09-2.92S98.1,97.07,87,96.13C68.51,94.54,46.69,105.8,59.58,133c11.36,23.95,23,21.72,25.92,40.64s2.26,23.8,1,43.86,55,102.79,31.45,111.5c-23.86,8.82-35.39,60.32,10.26,96.21,22,17.31,58,27.43,80.17,2.64,11.58-13,17.55-21.36,26.72-35.81s17.12-29.44,26.64-37.86,19.51-29.88,24.51-5.62-5.13,47.54,2.36,57.71C325.14,455.9,443.27,433.36,432,333.31Z"/><path class="cls-30" d="M431.66,333.19c-4.09-36.2-42.16-44.83-65-63.5s-16.1-65.58-18.53-92.36S336,128.72,321.33,115s-53.41-8.26-66.13-29.92S263.11,60.68,243,39.84C216.12,12.07,185.46,41,183.91,56.47s7.27,19.35,6.28,28.48-4.93,13.46-18.82,9.54c-23.29-6.58-21.13,16.62-30.47,28s-30,4.72-34-2.91S98.23,97.35,87.15,96.4C68.68,94.82,47,106,59.85,133.16c11.34,23.91,23,21.68,25.89,40.57s2.25,23.76,1,43.8,54.94,102.63,31.4,111.33c-23.82,8.8-35.33,60.23,10.25,96.05,22,17.29,58,27.4,80,2.65,11.57-12.95,17.52-21.33,26.69-35.76s17.08-29.4,26.59-37.8,19.48-29.83,24.48-5.62S281,395.85,288.5,406C325,455.59,443,433.08,431.66,333.19Z"/><path class="cls-31" d="M431.37,333.07c-4.09-36.14-42.1-44.76-64.9-63.4s-16.08-65.49-18.5-92.22-12.1-48.54-26.77-62.2-53.32-8.25-66-29.87S263.07,61,243,40.17c-26.81-27.73-57.42,1.12-59,16.61s7.26,19.32,6.26,28.44-4.91,13.43-18.78,9.51c-23.26-6.56-21.11,16.6-30.43,28s-29.93,4.71-34-2.91S98.35,97.63,87.3,96.68c-18.45-1.57-40,9.58-27.18,36.67C71.45,157.22,83.09,155,86,173.86s2.25,23.72,1,43.73,54.85,102.47,31.35,111.15C94.5,337.53,83,388.88,128.52,424.65c22,17.27,57.86,27.35,79.92,2.64,11.54-12.93,17.49-21.3,26.64-35.71s17.06-29.35,26.55-37.73,19.45-29.79,24.44-5.61-5.11,47.4,2.36,57.54C324.87,455.28,442.64,432.81,431.37,333.07Z"/><path class="cls-32" d="M431.07,333c-4.08-36.09-42-44.7-64.79-63.31s-16.06-65.38-18.48-92.07-12.09-48.46-26.73-62.11-53.24-8.23-65.92-29.82S263,61.28,243,40.5c-26.76-27.69-57.33,1.12-58.87,16.58s7.25,19.3,6.26,28.4-4.91,13.41-18.76,9.5c-23.22-6.56-21.07,16.57-30.38,28s-29.88,4.71-33.93-2.9S98.48,97.91,87.44,97c-18.42-1.57-39.87,9.53-27,36.57C71.71,157.38,83.33,155.15,86.21,174s2.24,23.69,1,43.66,54.77,102.32,31.3,111c-23.74,8.77-35.22,60,10.22,95.76,21.92,17.24,57.77,27.31,79.8,2.63,11.52-12.9,17.46-21.26,26.6-35.65s17-29.3,26.51-37.68S281,324,286,348.09s-5.11,47.33,2.35,57.45C324.73,455,442.32,432.53,431.07,333Z"/><path class="cls-33" d="M430.77,332.83c-4.08-36-42-44.63-64.69-63.21s-16-65.28-18.45-91.93-12.07-48.39-26.69-62-53.16-8.22-65.82-29.78S263,61.58,242.94,40.83C216.22,13.19,185.7,42,184.16,57.39s7.24,19.26,6.25,28.35-4.9,13.39-18.73,9.49c-23.18-6.55-21,16.54-30.33,27.9s-29.83,4.7-33.88-2.89-8.87-22-19.89-23c-18.39-1.57-39.71,9.48-26.91,36.48,11.3,23.81,22.9,21.58,25.77,40.39s2.24,23.65,1,43.59,54.69,102.16,31.26,110.81c-23.71,8.77-35.17,59.95,10.2,95.62,21.89,17.21,57.68,27.26,79.67,2.63,11.51-12.89,17.44-21.24,26.56-35.6s17-29.26,26.47-37.62S281,323.84,285.93,348s-5.1,47.25,2.34,57.36C324.6,454.66,442,432.26,430.77,332.83Z"/><path class="cls-34" d="M430.47,332.7c-4.07-36-41.9-44.55-64.59-63.1s-16-65.18-18.42-91.8-12-48.3-26.64-61.91-53.08-8.2-65.72-29.73,7.86-24.28-12.17-45c-26.68-27.61-57.15,1.11-58.68,16.52s7.22,19.24,6.23,28.31-4.89,13.37-18.7,9.48c-23.14-6.54-21,16.51-30.28,27.86s-29.79,4.69-33.82-2.9-9-22-20-22.92C69.37,96,48.16,107,61,133.91c11.27,23.77,22.86,21.55,25.72,40.32s2.24,23.62,1,43.53,54.59,102,31.2,110.64c-23.67,8.75-35.11,59.86,10.19,95.46,21.85,17.19,57.59,27.23,79.55,2.63,11.49-12.87,17.41-21.2,26.51-35.54s17-29.21,26.43-37.56,19.36-29.65,24.33-5.59-5.09,47.18,2.34,57.28C324.46,454.35,441.69,432,430.47,332.7Z"/><path class="cls-35" d="M430.17,332.58c-4.06-35.91-41.83-44.48-64.49-63s-16-65.07-18.39-91.65-12-48.23-26.6-61.81-53-8.2-65.62-29.69,7.85-24.24-12.14-44.92c-26.64-27.56-57.07,1.11-58.6,16.5s7.22,19.2,6.23,28.26-4.89,13.35-18.67,9.46c-23.11-6.52-21,16.49-30.24,27.82s-29.74,4.69-33.77-2.89-9-21.91-20-22.85c-18.33-1.57-39.42,9.38-26.65,36.3,11.26,23.73,22.83,21.51,25.69,40.26s2.23,23.58,1,43.45S142.38,319.66,119,328.29C95.39,337,84,388.05,129.19,423.6c21.83,17.16,57.5,27.18,79.43,2.62,11.47-12.85,17.39-21.16,26.48-35.48s17-29.17,26.38-37.51,19.34-29.6,24.3-5.57-5.09,47.1,2.33,57.18C324.33,454,441.37,431.7,430.17,332.58Z"/><path class="cls-36" d="M429.87,332.46c-4.05-35.86-41.77-44.41-64.39-62.91s-16-65-18.36-91.51-12-48.16-26.56-61.71S267.64,108.14,255,86.68s7.84-24.2-12.12-44.85c-26.6-27.52-57,1.11-58.51,16.48s7.21,19.17,6.22,28.22S185.75,99.86,172,96c-23.07-6.52-20.94,16.47-30.19,27.78s-29.7,4.67-33.72-2.89S99,99,88,98.08c-18.3-1.57-39.26,9.33-26.51,36.2,11.24,23.7,22.79,21.49,25.64,40.2s2.24,23.54,1,43.39,54.43,101.69,31.11,110.3c-23.6,8.72-35,59.67,10.15,95.17,21.79,17.13,57.41,27.14,79.31,2.62,11.45-12.83,17.35-21.14,26.43-35.43S252,361.4,261.45,353.08s19.3-29.56,24.25-5.57-5.07,47,2.34,57.1C324.2,453.73,441.06,431.43,429.87,332.46Z"/><path class="cls-37" d="M429.57,332.34c-4.05-35.81-41.7-44.35-64.29-62.81S349.35,204.65,347,178.16s-12-48.08-26.52-61.62S267.6,108.37,255,87s7.82-24.17-12.11-44.79C216.35,14.69,186,43.27,184.5,58.61s7.19,19.15,6.21,28.18-4.88,13.31-18.62,9.43c-23-6.51-20.91,16.44-30.14,27.73s-29.65,4.67-33.67-2.88S99.1,99.3,88.15,98.36C69.88,96.8,49,107.64,61.77,134.47,73,158.13,84.53,155.92,87.38,174.6s2.23,23.51,1,43.33,54.34,101.52,31.06,110.13c-23.57,8.7-34.95,59.57,10.13,95,21.76,17.1,57.32,27.09,79.18,2.61,11.44-12.81,17.33-21.1,26.4-35.38s16.9-29.07,26.3-37.38,19.27-29.51,24.22-5.56-5.07,47,2.33,57C324.06,453.42,440.74,431.15,429.57,332.34Z"/><path class="cls-38" d="M429.27,332.22c-4-35.75-41.64-44.28-64.19-62.72s-15.9-64.77-18.3-91.22-12-48-26.48-61.52S267.55,108.6,255,87.21s7.81-24.13-12.09-44.72c-26.51-27.43-56.8,1.11-58.32,16.43s7.18,19.11,6.2,28.13-4.87,13.29-18.58,9.41c-23-6.49-20.88,16.42-30.1,27.69s-29.6,4.67-33.62-2.87S99.23,99.57,88.29,98.64c-18.24-1.56-38.95,9.22-26.24,36,11.2,23.62,22.72,21.41,25.56,40.07s2.23,23.47,1,43.26,54.26,101.36,31,110c-23.52,8.7-34.89,59.49,10.12,94.87,21.72,17.08,57.23,27.06,79.06,2.61,11.42-12.79,17.3-21.06,26.35-35.32s16.88-29,26.26-37.33,19.25-29.46,24.18-5.55-5.06,46.89,2.33,56.92C323.93,453.11,440.42,430.88,429.27,332.22Z"/><path class="cls-39" d="M429,332.1c-4-35.7-41.57-44.21-64.09-62.62S349,204.81,346.61,178.4s-12-47.93-26.44-61.43-52.66-8.14-65.21-29.5,7.8-24.09-12.06-44.65c-26.48-27.39-56.72,1.11-58.24,16.4s7.17,19.09,6.19,28.09-4.85,13.27-18.55,9.4c-23-6.48-20.85,16.39-30.05,27.65s-29.56,4.65-33.56-2.87S99.35,99.85,88.43,98.92c-18.21-1.56-38.8,9.17-26.11,35.93,11.19,23.58,22.69,21.38,25.53,40s2.22,23.44,1,43.19,54.18,101.21,31,109.79c-23.49,8.68-34.84,59.39,10.1,94.72,21.69,17.05,57.14,27,78.93,2.61,11.41-12.77,17.28-21,26.32-35.27s16.85-29,26.22-37.27,19.21-29.42,24.14-5.54-5.05,46.81,2.32,56.83C323.79,452.8,440.11,430.6,429,332.1Z"/><path class="cls-40" d="M428.67,332c-4-35.64-41.5-44.14-64-62.52s-15.86-64.57-18.25-90.94S334.5,130.66,320,117.19s-52.58-8.13-65.1-29.46,7.78-24.06-12.05-44.58c-26.44-27.34-56.62,1.11-58.14,16.38s7.16,19,6.18,28S186.08,100.82,172.4,97c-22.93-6.48-20.81,16.36-30,27.6s-29.51,4.65-33.51-2.87S99.48,100.13,88.58,99.2c-18.19-1.56-38.65,9.12-26,35.83C73.77,158.58,85.24,156.38,88.08,175s2.22,23.4,1,43.12,54.09,101,30.91,109.61C96.5,336.38,85.17,387,130,422.29c21.65,17,57.05,27,78.81,2.6,11.38-12.75,17.25-21,26.27-35.21s16.82-28.94,26.18-37.21,19.18-29.38,24.1-5.54-5,46.74,2.32,56.74C323.66,452.49,439.79,430.33,428.67,332Z"/><path class="cls-41" d="M428.37,331.86c-4-35.59-41.44-44.07-63.88-62.43S348.65,205,346.27,178.64s-11.92-47.78-26.36-61.24-52.5-8.12-65-29.41,7.77-24-12-44.5c-26.39-27.31-56.53,1.1-58,16.35s7.15,19,6.17,28-4.84,13.23-18.5,9.38c-22.89-6.47-20.77,16.33-29.95,27.56s-29.47,4.64-33.46-2.87S99.6,100.41,88.72,99.48c-18.16-1.56-38.5,9.07-25.85,35.74C74,158.73,85.48,156.54,88.32,175.1s2.21,23.37,1,43.06,54,100.89,30.87,109.44c-23.42,8.65-34.73,59.2,10.07,94.42,21.62,17,57,26.93,78.69,2.6,11.36-12.73,17.22-21,26.22-35.15s16.8-28.9,26.14-37.16,19.16-29.32,24.07-5.52-5,46.67,2.31,56.65C323.52,452.18,439.47,430.05,428.37,331.86Z"/><path class="cls-42" d="M428.08,331.73c-4-35.52-41.38-44-63.79-62.32S348.48,205,346.1,178.76s-11.9-47.71-26.31-61.14-52.42-8.11-64.91-29.37,7.77-24-12-44.43c-26.35-27.26-56.44,1.1-58,16.32s7.14,19,6.16,28-4.83,13.2-18.46,9.35C149.75,91,151.86,113.77,142.7,125s-29.42,4.63-33.41-2.86-9.56-21.43-20.43-22.35c-18.13-1.56-38.34,9-25.71,35.65,11.13,23.47,22.57,21.28,25.4,39.82s2.21,23.32,1,43S143.42,319,120.32,327.48c-23.38,8.64-34.68,59.12,10.06,94.28,21.58,17,56.87,26.89,78.56,2.6,11.35-12.71,17.2-20.94,26.19-35.1s16.77-28.85,26.1-37.1,19.12-29.28,24-5.52-5,46.6,2.31,56.57C323.39,451.87,439.16,429.78,428.08,331.73Z"/><path class="cls-43" d="M427.78,331.61c-4-35.47-41.32-43.93-63.69-62.22s-15.78-64.27-18.16-90.51-11.88-47.64-26.27-61-52.34-8.09-64.8-29.31,7.75-24-12-44.37c-26.3-27.22-56.35,1.1-57.86,16.3s7.12,19,6.15,27.91-4.83,13.18-18.44,9.34C149.89,91.26,152,114,142.85,125.17s-29.37,4.63-33.35-2.85S99.85,101,89,100c-18.1-1.54-38.19,9-25.58,35.57C74.54,159,86,156.84,88.79,175.35s2.21,23.29.95,42.92,53.83,100.58,30.77,109.1c-23.35,8.62-34.63,59,10,94.13,21.55,16.94,56.78,26.84,78.44,2.59,11.33-12.69,17.16-20.9,26.14-35s16.75-28.8,26.06-37,19.09-29.24,24-5.51-5,46.52,2.31,56.47C323.26,451.56,438.84,429.5,427.78,331.61Z"/><path class="cls-44" d="M427.48,331.49c-4-35.41-41.25-43.86-63.59-62.12S348.13,205.2,345.76,179s-11.86-47.56-26.23-60.95-52.26-8.08-64.7-29.27,7.74-23.91-12-44.3c-26.27-27.17-56.27,1.1-57.78,16.27s7.11,18.94,6.14,27.87S186.4,101.78,172.81,98C150,91.51,152.13,114.21,143,125.38s-29.33,4.62-33.3-2.85S100,101.24,89.15,100.31c-18.08-1.54-38,8.93-25.45,35.47C74.8,159.18,86.2,157,89,175.48s2.21,23.25,1,42.85,53.75,100.42,30.72,108.92c-23.3,8.62-34.57,58.93,10,94,21.52,16.91,56.69,26.8,78.31,2.58,11.31-12.67,17.14-20.87,26.11-35s16.72-28.76,26-37,19.07-29.19,24-5.49-5,46.44,2.3,56.38C323.12,451.25,438.52,429.23,427.48,331.49Z"/><path class="cls-45" d="M427.18,331.37c-4-35.36-41.18-43.79-63.49-62s-15.73-64.06-18.1-90.22-11.84-47.49-26.19-60.86S267.23,110.2,254.8,89s7.73-23.87-12-44.23c-26.23-27.13-56.18,1.1-57.69,16.25s7.11,18.9,6.13,27.82-4.81,13.15-18.38,9.31c-22.75-6.42-20.64,16.24-29.76,27.39s-29.28,4.61-33.25-2.84-9.8-21.22-20.61-22.15C71.24,99.05,51.4,109.47,64,136c11.08,23.36,22.47,21.18,25.29,39.63s2.2,23.22.94,42.79,53.67,100.26,30.68,108.75c-23.27,8.6-34.52,58.83,10,93.83,21.48,16.89,56.6,26.76,78.19,2.58,11.29-12.64,17.11-20.83,26.06-34.93s16.69-28.71,26-36.92,19-29.14,23.91-5.49-5,46.37,2.3,56.3C323,450.94,438.21,429,427.18,331.37Z"/><path class="cls-46" d="M426.88,331.25c-4-35.3-41.12-43.72-63.39-61.93s-15.71-64-18.07-90.08-11.83-47.41-26.15-60.76-52.09-8-64.49-29.18,7.71-23.83-11.94-44.16c-26.18-27.08-56.09,1.1-57.59,16.23s7.09,18.87,6.12,27.77-4.81,13.13-18.35,9.3C150.3,92,152.4,114.65,143.3,125.79s-29.24,4.6-33.2-2.85-9.87-21.14-20.67-22.07c-18-1.54-37.73,8.83-25.18,35.29,11.06,23.32,22.43,21.15,25.24,39.57s2.2,23.18,1,42.71S144,318.54,121.06,327c-23.23,8.58-34.46,58.74,10,93.68,21.46,16.86,56.52,26.72,78.07,2.58,11.28-12.63,17.09-20.81,26-34.88s16.66-28.67,25.93-36.86,19-29.1,23.88-5.48-5,46.3,2.29,56.2C322.85,450.63,437.89,428.68,426.88,331.25Z"/><path class="cls-47" d="M426.58,331.13c-4-35.25-41.05-43.66-63.28-61.83s-15.69-63.87-18.05-89.94S333.44,132,319.14,118.7s-52-8-64.39-29.14,7.7-23.79-11.92-44.08c-26.14-27-56,1.09-57.5,16.19s7.08,18.85,6.11,27.74-4.79,13.1-18.32,9.28c-22.68-6.4-20.58,16.18-29.67,27.3s-29.19,4.6-33.15-2.84-9.94-21.08-20.73-22c-18-1.54-37.58,8.78-25,35.2,11,23.28,22.4,21.11,25.21,39.5s2.19,23.14.94,42.65,53.5,99.94,30.58,108.41c-23.2,8.57-34.41,58.65,10,93.54,21.42,16.83,56.43,26.67,77.95,2.57,11.26-12.61,17.06-20.77,26-34.82s16.64-28.63,25.89-36.81,19-29.05,23.84-5.47-5,46.23,2.3,56.12C322.72,450.32,437.58,428.4,426.58,331.13Z"/><path class="cls-48" d="M426.28,331c-4-35.19-41-43.59-63.18-61.74s-15.66-63.76-18-89.79S333.29,132.22,319,118.91s-51.92-8-64.29-29.09,7.69-23.75-11.89-44c-26.11-27-55.92,1.09-57.42,16.17s7.07,18.81,6.11,27.69-4.79,13.08-18.3,9.27c-22.64-6.4-20.55,16.15-29.62,27.25s-29.14,4.59-33.09-2.83-10-21-20.8-21.93c-17.95-1.54-37.42,8.73-24.91,35.1C75.83,159.78,87.16,157.61,90,176s2.19,23.1.94,42.58,53.41,99.78,30.53,108.24c-23.16,8.55-34.35,58.55,10,93.38,21.39,16.81,56.34,26.64,77.82,2.57,11.24-12.58,17-20.73,25.95-34.76s16.61-28.58,25.85-36.75,18.94-29,23.8-5.46-5,46.15,2.29,56C322.58,450,437.26,428.12,426.28,331Z"/><path class="cls-49" d="M426,330.89c-4-35.14-40.92-43.52-63.08-61.64s-15.64-63.66-18-89.66-11.77-47.18-26-60.46-51.84-8-64.18-29,7.67-23.72-11.88-43.95c-26.06-27-55.83,1.09-57.32,16.14s7.06,18.79,6.09,27.65-4.78,13.06-18.27,9.25c-22.6-6.38-20.51,16.14-29.57,27.22s-29.1,4.58-33-2.83-10.1-20.94-20.85-21.86c-17.93-1.53-37.28,8.68-24.79,35,11,23.22,22.33,21.05,25.13,39.38s2.18,23.07.94,42.52,53.32,99.62,30.48,108.06c-23.13,8.55-34.3,58.46,9.94,93.24,21.35,16.78,56.25,26.59,77.7,2.57,11.22-12.57,17-20.71,25.9-34.72s16.59-28.53,25.81-36.68,18.91-29,23.76-5.46-5,46.08,2.29,55.94C322.45,449.7,436.94,427.85,426,330.89Z"/><path class="cls-50" d="M425.68,330.76c-4-35.07-40.85-43.44-63-61.53s-15.61-63.56-18-89.52-11.75-47.1-26-60.37-51.76-8-64.09-29,7.66-23.68-11.86-43.88c-26-26.92-55.74,1.09-57.23,16.12s7,18.75,6.08,27.6-4.77,13-18.23,9.24c-22.57-6.37-20.49,16.11-29.53,27.17s-29.05,4.58-33-2.82S100.73,102.91,90,102c-17.9-1.53-37.13,8.63-24.65,34.92,11,23.18,22.29,21,25.08,39.32s2.19,23,.94,42.44,53.24,99.47,30.43,107.9c-23.08,8.53-34.24,58.37,9.93,93.09,21.32,16.76,56.16,26.55,77.58,2.56,11.2-12.55,17-20.67,25.85-34.66s16.56-28.48,25.77-36.63,18.88-28.91,23.73-5.44-5,46,2.28,55.85C322.31,449.39,436.63,427.57,425.68,330.76Z"/></g><path class="cls-51" d="M425.68,330.76c-4-35.07-40.85-43.44-63-61.53s-15.61-63.56-18-89.52-11.75-47.1-26-60.37-51.76-8-64.09-29,7.66-23.68-11.86-43.88c-26-26.92-55.74,1.09-57.23,16.12s7,18.75,6.08,27.6-4.77,13-18.23,9.24c-22.57-6.37-20.49,16.11-29.53,27.17s-29.05,4.58-33-2.82S100.73,102.91,90,102c-17.9-1.53-37.13,8.63-24.65,34.92,11,23.18,22.29,21,25.08,39.32s2.19,23,.94,42.44,53.24,99.47,30.43,107.9c-23.08,8.53-34.24,58.37,9.93,93.09,21.32,16.76,56.16,26.55,77.58,2.56,11.2-12.55,17-20.67,25.85-34.66s16.56-28.48,25.77-36.63,18.88-28.91,23.73-5.44-5,46,2.28,55.85C322.31,449.39,436.63,427.57,425.68,330.76Z"/><g class="cls-52"><path class="cls-53" d="M25.9,254.59c19.4-33.91,60.56-26.25,91-34.94s43.72-57.76,57.48-83.11,32.59-42.72,52.87-50,56.11,14.55,77.84-1.38,6.76-25,35.46-37c38.24-15.95,52,23.1,46.92,39s-15.38,16-18.28,25.39S368.31,128,383.66,130c25.73,3.41,13.76,25.34,18.1,40.55s27.52,17.38,34.76,11.59,27.24-10.12,37.8-4.59c15.09,7.91,22.07,35,.07,49.46-23.75,15.57-35.9,2-40.16,22C419.92,316.5,317.1,364.94,336.58,383.5c19.73,18.79,9.23,74.33-50.88,90.26-29,7.69-68.77-6.44-80-31.39-7.62-17-10.35-26.68-13.24-44.79s-2.2-38-8-50.29-36.84,33-48.52,39.83C79,420.45-27.65,348.19,25.9,254.59Z"/><path class="cls-54" d="M26.38,254.6c19.36-33.84,60.44-26.19,90.79-34.87s43.62-57.63,57.35-82.92S207,94.17,227.28,86.94s56,14.52,77.67-1.38,6.8-25.06,35.22-37c38.12-16,52,23.15,47,39.05S371.81,103.57,368.92,113s-.86,15.31,14.45,17.34c25.68,3.41,13.73,25.3,18.07,40.47s27.46,17.35,34.68,11.56,27.18-10.09,37.71-4.57c15.07,7.89,22,35,.08,49.35-23.7,15.53-35.83,1.95-40.07,21.95C419.55,316.37,317,364.71,336.4,383.23c19.68,18.75,9.2,74.17-50.78,90.07C256.68,481,217,466.87,205.83,442c-7.61-17-10.33-26.62-13.22-44.68s-2.19-37.91-8-50.19S147.88,380,136.22,386.85C79.34,420.1-27,348,26.38,254.6Z"/><path class="cls-55" d="M26.86,254.61c19.32-33.77,60.31-26.14,90.59-34.79s43.53-57.51,57.24-82.75,32.44-42.55,52.64-49.76,55.87,14.49,77.5-1.37,6.84-25.13,35-37c38-16.07,52.1,23.19,47.05,39.05s-15.31,15.91-18.2,25.28-.86,15.28,14.42,17.31c25.63,3.4,13.7,25.24,18,40.38s27.4,17.31,34.61,11.54,27.12-10.07,37.63-4.57c15,7.88,22,34.88.07,49.25-23.64,15.5-35.74,1.94-40,21.91C419.19,316.25,316.81,364.48,336.21,383c19.64,18.7,9.18,74-50.67,89.87-28.88,7.66-68.47-6.41-79.62-31.26-7.59-16.91-10.3-26.56-13.19-44.59s-2.18-37.82-7.95-50.08-36.68,32.86-48.31,39.66C79.7,419.76-26.46,347.8,26.86,254.61Z"/><path class="cls-56" d="M27.34,254.62c19.28-33.7,60.18-26.08,90.4-34.72s43.44-57.38,57.11-82.57,32.38-42.45,52.52-49.65,55.76,14.46,77.34-1.37,6.87-25.19,34.74-37c37.87-16.12,52.15,23.24,47.12,39.07s-15.29,15.87-18.16,25.23-.86,15.24,14.39,17.27c25.56,3.39,13.67,25.18,18,40.29s27.34,17.27,34.53,11.51,27.06-10,37.55-4.55c15,7.85,21.94,34.8.07,49.13-23.59,15.47-35.67,1.95-39.89,21.87-14.23,67-116.39,115.15-97,133.59,19.6,18.67,9.16,73.85-50.56,89.68C256.65,480,217.14,466,206,441.19c-7.58-16.88-10.29-26.51-13.16-44.5s-2.18-37.74-7.94-50-36.6,32.79-48.21,39.58C80.07,419.41-25.86,347.61,27.34,254.62Z"/><path class="cls-57" d="M27.82,254.63C47.06,221,87.87,228.6,118,220s43.35-57.27,57-82.39,32.31-42.37,52.41-49.55,55.63,14.43,77.17-1.37,6.91-25.25,34.5-37c37.75-16.18,52.21,23.28,47.18,39.08S371,104.57,368.15,113.9s-.86,15.21,14.36,17.23c25.51,3.39,13.64,25.13,17.95,40.21s27.28,17.23,34.46,11.49,27-10,37.47-4.55c15,7.84,21.89,34.73.07,49-23.54,15.44-35.59,1.94-39.81,21.82C418.46,316,316.52,364,335.84,382.43c19.56,18.63,9.14,73.69-50.45,89.49-28.76,7.62-68.18-6.38-79.28-31.13-7.56-16.84-10.26-26.45-13.13-44.4s-2.18-37.65-7.92-49.86S148.53,379.25,137,386C80.44,419.07-25.27,347.42,27.82,254.63Z"/><path class="cls-58" d="M28.3,254.64c19.19-33.55,59.92-26,90-34.57s43.25-57.14,56.86-82.21,32.24-42.27,52.3-49.44,55.51,14.4,77-1.37,6.93-25.31,34.25-37C376.36,33.77,391,73.34,386,89.1s-15.22,15.8-18.09,25.11-.85,15.19,14.33,17.2c25.46,3.38,13.62,25.08,17.91,40.12s27.23,17.2,34.39,11.46,26.94-10,37.39-4.53c14.94,7.82,21.84,34.65.07,48.92-23.49,15.4-35.52,1.94-39.73,21.77-14.16,66.73-115.88,114.65-96.6,133,19.52,18.58,9.13,73.53-50.34,89.29-28.69,7.61-68-6.37-79.11-31.06C198.66,423.6,196,414,193.1,396.1s-2.17-37.58-7.9-49.76-36.45,32.65-48,39.41C80.8,418.72-24.67,347.23,28.3,254.64Z"/><path class="cls-59" d="M28.78,254.65c19.15-33.48,59.79-25.92,89.81-34.49s43.16-57,56.74-82,32.17-42.18,52.19-49.33,55.39,14.36,76.84-1.36,7-25.39,34-37.07c37.51-16.29,52.32,23.38,47.31,39.11s-15.18,15.77-18,25.06-.85,15.15,14.3,17.16c25.4,3.37,13.58,25,17.87,40s27.16,17.16,34.31,11.44,26.88-10,37.31-4.53c14.9,7.81,21.79,34.58.07,48.82-23.44,15.37-35.44,1.93-39.64,21.72-14.13,66.59-115.63,114.41-96.39,132.73,19.47,18.54,9.1,73.37-50.23,89.1-28.64,7.59-67.89-6.36-78.94-31-7.53-16.77-10.22-26.34-13.08-44.21s-2.16-37.49-7.88-49.65-36.37,32.58-47.9,39.32C81.17,418.37-24.08,347,28.78,254.65Z"/><path class="cls-60" d="M29.26,254.66c19.11-33.41,59.66-25.86,89.62-34.42s43.06-56.89,56.61-81.86,32.1-42.08,52.08-49.22,55.27,14.33,76.67-1.36,7-25.45,33.77-37.08c37.39-16.35,52.37,23.42,47.38,39.11s-15.15,15.74-18,25S366.53,130,381.65,132c25.35,3.37,13.55,25,17.83,39.95s27.11,17.12,34.24,11.41,26.83-10,37.23-4.51c14.87,7.79,21.74,34.5.07,48.71-23.39,15.33-35.37,1.92-39.56,21.67-14.09,66.45-115.37,114.16-96.18,132.44,19.43,18.51,9.09,73.21-50.12,88.91-28.57,7.57-67.74-6.34-78.77-30.92-7.51-16.74-10.19-26.28-13-44.12s-2.16-37.41-7.87-49.54-36.29,32.51-47.79,39.24C81.54,418-23.48,346.85,29.26,254.66Z"/><path class="cls-61" d="M29.74,254.67c19.07-33.34,59.53-25.8,89.42-34.35s43-56.76,56.5-81.67,32-42,52-49.12,55.15,14.3,76.5-1.36,7-25.51,33.53-37.1c37.26-16.39,52.42,23.47,47.44,39.13s-15.12,15.7-18,25-.85,15.08,14.23,17.08c25.29,3.35,13.53,24.91,17.8,39.86s27,17.08,34.16,11.39,26.77-10,37.15-4.51c14.83,7.77,21.69,34.43.07,48.61-23.34,15.3-35.29,1.92-39.47,21.62-14.07,66.3-115.13,113.91-96,132.15,19.38,18.47,9.06,73.06-50,88.72-28.51,7.55-67.58-6.33-78.59-30.86-7.49-16.69-10.17-26.22-13-44s-2.15-37.33-7.85-49.43-36.21,32.43-47.69,39.14C81.9,417.68-22.89,346.66,29.74,254.67Z"/><path class="cls-62" d="M30.22,254.68c19-33.26,59.4-25.75,89.23-34.27s42.87-56.64,56.37-81.5,32-41.91,51.84-49,55,14.27,76.34-1.36S311.07,63,337.29,51.43C374.43,35,389.77,75,384.8,90.57s-15.09,15.67-17.93,24.9-.85,15.05,14.21,17.05c25.23,3.34,13.49,24.85,17.75,39.77s27,17,34.09,11.36,26.71-9.92,37.06-4.5c14.81,7.76,21.65,34.35.07,48.51-23.28,15.26-35.2,1.91-39.38,21.58-14,66.15-114.87,113.66-95.76,131.86,19.35,18.42,9,72.89-49.9,88.52-28.45,7.54-67.44-6.32-78.43-30.79-7.47-16.66-10.15-26.16-13-43.92s-2.15-37.25-7.83-49.32S149.63,378,138.18,384.65C82.27,417.34-22.29,346.47,30.22,254.68Z"/><path class="cls-63" d="M30.7,254.69c19-33.19,59.27-25.69,89-34.2S162.51,164,176,139.17s31.89-41.81,51.73-48.9,54.91,14.24,76.17-1.35S311,63.27,336.93,51.78c37-16.5,52.53,23.57,47.57,39.16s-15.05,15.63-17.89,24.84-.84,15,14.18,17c25.18,3.34,13.46,24.81,17.72,39.69s26.93,17,34,11.34,26.65-9.9,37-4.49c14.78,7.74,21.61,34.27.07,48.39-23.23,15.24-35.13,1.92-39.29,21.54-14,66-114.63,113.41-95.56,131.57,19.31,18.39,9,72.74-49.79,88.33-28.39,7.52-67.29-6.3-78.25-30.72-7.46-16.63-10.13-26.11-13-43.83s-2.15-37.17-7.82-49.21-36.05,32.29-47.48,39C82.64,417-21.7,346.27,30.7,254.69Z"/><path class="cls-64" d="M31.18,254.7c19-33.12,59.14-25.64,88.84-34.12s42.69-56.4,56.12-81.15S208,97.71,227.76,90.64s54.79,14.21,76-1.35,7.13-25.71,32.8-37.15c36.9-16.56,52.59,23.61,47.64,39.17s-15,15.6-17.85,24.79-.84,15,14.14,17c25.13,3.33,13.44,24.75,17.68,39.6s26.87,17,33.94,11.31,26.59-9.88,36.9-4.48c14.74,7.73,21.56,34.2.07,48.29-23.18,15.2-35,1.91-39.21,21.49-14,65.86-114.37,113.16-95.34,131.28,19.26,18.35,9,72.58-49.69,88.14-28.32,7.5-67.14-6.29-78.08-30.66-7.44-16.58-10.1-26.05-12.93-43.72s-2.14-37.09-7.8-49.11-36,32.22-47.38,38.89C83,416.64-21.1,346.08,31.18,254.7Z"/><path class="cls-65" d="M31.66,254.7c18.9-33,59-25.57,88.64-34s42.6-56.27,56-81S208.05,98.07,227.81,91s54.67,14.18,75.84-1.35,7.17-25.77,32.57-37.17C373,35.88,388.85,76.15,383.91,91.68s-15,15.56-17.81,24.73-.84,15,14.11,16.94c25.08,3.32,13.41,24.69,17.64,39.51s26.82,16.93,33.87,11.29,26.53-9.86,36.82-4.47c14.71,7.7,21.51,34.12.07,48.18-23.13,15.17-35,1.91-39.12,21.44-13.95,65.72-114.12,112.91-95.14,131,19.22,18.3,9,72.41-49.58,87.94-28.26,7.49-67-6.28-77.9-30.59-7.43-16.55-10.09-26-12.91-43.63s-2.13-37-7.78-49-35.89,32.15-47.27,38.81C83.37,416.3-20.51,345.89,31.66,254.7Z"/><path class="cls-66" d="M32.14,254.71c18.86-33,58.88-25.52,88.45-34s42.5-56.15,55.87-80.79,31.69-41.54,51.4-48.58,54.55,14.14,75.67-1.34,7.2-25.84,32.33-37.19C372.5,36.18,388.54,76.56,383.62,92s-15,15.53-17.77,24.69-.84,14.91,14.08,16.89c25,3.32,13.37,24.64,17.6,39.43s26.75,16.89,33.79,11.26,26.47-9.83,36.74-4.46c14.68,7.69,21.46,34.05.07,48.08-23.08,15.13-34.9,1.9-39,21.39C415.18,314.9,315.22,362,334.17,380c19.17,18.26,9,72.26-49.47,87.75-28.2,7.47-66.85-6.26-77.74-30.52-7.41-16.52-10.06-25.94-12.88-43.54s-2.13-36.92-7.76-48.89-35.81,32.08-47.17,38.72C83.73,416-19.91,345.7,32.14,254.71Z"/><path class="cls-67" d="M32.62,254.72c18.82-32.89,58.75-25.46,88.25-33.89s42.41-56,55.76-80.61,31.61-41.44,51.28-48.47,54.43,14.11,75.5-1.34,7.24-25.9,32.09-37.2C372,36.48,388.24,77,383.32,92.41S368.4,107.91,365.59,117s-.84,14.88,14.05,16.86c25,3.31,13.35,24.59,17.56,39.34s26.7,16.86,33.72,11.24,26.42-9.82,36.66-4.45c14.64,7.67,21.41,34,.07,48-23,15.1-34.83,1.89-38.95,21.34C414.81,314.77,315.08,361.76,334,379.76c19.13,18.23,8.95,72.1-49.36,87.56-28.14,7.45-66.7-6.25-77.56-30.46-7.4-16.47-10-25.87-12.85-43.44s-2.13-36.84-7.75-48.78-35.74,32-47.06,38.64C84.1,415.61-19.32,345.51,32.62,254.72Z"/><path class="cls-68" d="M33.1,254.73c18.78-32.82,58.62-25.4,88.06-33.81s42.31-55.9,55.63-80.44S208.33,99.13,228,92.12s54.3,14.08,75.33-1.34,7.27-26,31.85-37.22c36.4-16.78,52.79,23.8,47.89,39.22s-14.89,15.46-17.69,24.57-.84,14.85,14,16.83c24.91,3.3,13.32,24.53,17.53,39.25s26.63,16.82,33.64,11.21,26.36-9.79,36.58-4.44c14.61,7.66,21.36,33.9.07,47.87-23,15.07-34.75,1.89-38.87,21.29-13.85,65.29-113.37,112.17-94.51,130.14,19.1,18.18,8.93,71.94-49.25,87.36-28.07,7.44-66.55-6.24-77.39-30.39-7.38-16.44-10-25.82-12.82-43.34s-2.12-36.76-7.73-48.68-35.66,31.94-47,38.55C84.47,415.26-18.73,345.32,33.1,254.73Z"/><path class="cls-69" d="M33.58,254.74C52.32,222,92.07,229.39,121.44,221s42.22-55.78,55.51-80.25S208.42,99.48,228,92.49s54.19,14.05,75.17-1.34,7.31-26,31.61-37.23c36.28-16.84,52.85,23.84,48,39.23s-14.85,15.43-17.65,24.52-.83,14.82,14,16.78c24.85,3.3,13.29,24.48,17.48,39.17s26.58,16.78,33.57,11.19,26.3-9.77,36.5-4.43c14.58,7.63,21.31,33.82.06,47.76-22.92,15-34.66,1.88-38.77,21.25-13.83,65.14-113.12,111.92-94.3,129.84,19.05,18.14,8.9,71.78-49.14,87.17-28,7.42-66.41-6.22-77.23-30.32-7.36-16.41-10-25.77-12.79-43.25s-2.11-36.68-7.71-48.57-35.58,31.87-46.86,38.47C84.83,414.91-18.13,345.13,33.58,254.74Z"/><path class="cls-70" d="M34.06,254.75c18.7-32.68,58.36-25.29,87.67-33.67s42.12-55.65,55.38-80.07,31.4-41.17,50.94-48.15,54.07,14,75-1.33,7.33-26.1,31.36-37.26c36.15-16.89,52.9,23.9,48,39.25S367.62,108.91,364.82,118s-.83,14.79,14,16.75c24.79,3.29,13.26,24.42,17.45,39.08s26.51,16.74,33.49,11.16,26.24-9.75,36.41-4.42c14.55,7.62,21.28,33.75.07,47.65-22.87,15-34.59,1.89-38.69,21.21-13.79,65-112.87,111.67-94.09,129.55,19,18.11,8.89,71.62-49,87-27.95,7.4-66.26-6.21-77-30.25-7.35-16.37-10-25.71-12.76-43.16s-2.12-36.59-7.7-48.46-35.5,31.8-46.75,38.38C85.2,414.57-17.54,344.94,34.06,254.75Z"/><path class="cls-71" d="M34.54,254.76c18.65-32.6,58.23-25.24,87.47-33.59s42-55.53,55.26-79.9,31.34-41.08,50.83-48,54,14,74.84-1.33,7.37-26.16,31.12-37.27c36-17,52.95,23.94,48.08,39.26s-14.79,15.35-17.57,24.4-.83,14.76,13.92,16.71c24.74,3.29,13.23,24.37,17.41,39s26.46,16.71,33.42,11.14,26.18-9.73,36.33-4.41c14.52,7.6,21.23,33.67.07,47.54-22.82,15-34.51,1.88-38.6,21.16C413.35,314.28,314.5,360.85,333.24,378.7c19,18.06,8.86,71.46-48.93,86.77-27.88,7.4-66.11-6.19-76.88-30.18-7.33-16.33-10-25.65-12.73-43.05s-2.11-36.52-7.68-48.36-35.42,31.73-46.65,38.3C85.57,414.22-16.94,344.75,34.54,254.76Z"/><path class="cls-72" d="M35,254.77c18.61-32.53,58.1-25.18,87.28-33.52s41.94-55.4,55.14-79.72,31.26-41,50.71-47.93,53.83,14,74.67-1.33S310.22,66.05,333.7,55c35.91-17,53,24,48.15,39.26s-14.76,15.33-17.54,24.36-.83,14.72,13.9,16.67c24.68,3.28,13.2,24.32,17.36,38.91s26.4,16.67,33.35,11.11,26.12-9.71,36.25-4.4c14.49,7.59,21.18,33.6.07,47.44-22.78,14.94-34.44,1.88-38.52,21.11-13.73,64.71-112.36,111.17-93.67,129,18.92,18,8.85,71.3-48.81,86.58-27.83,7.38-66-6.17-76.71-30.11-7.31-16.3-9.93-25.59-12.71-43s-2.1-36.44-7.66-48.25-35.34,31.66-46.54,38.21C85.93,413.88-16.35,344.55,35,254.77Z"/><path class="cls-73" d="M35.5,254.78c18.57-32.46,58-25.12,87.08-33.44s41.85-55.28,55-79.54S208.79,100.9,228.2,94s53.71,13.92,74.5-1.33,7.44-26.29,30.64-37.3c35.79-17.06,53.06,24,48.21,39.28s-14.72,15.29-17.49,24.3-.83,14.69,13.86,16.64c24.63,3.27,13.17,24.26,17.33,38.81s26.34,16.64,33.27,11.1,26.06-9.69,36.17-4.39c14.45,7.57,21.13,33.52.07,47.33-22.73,14.9-34.36,1.87-38.43,21.06C412.63,314,314.21,360.4,332.86,378.16c18.88,18,8.83,71.14-48.7,86.39-27.76,7.36-65.82-6.16-76.54-30-7.29-16.26-9.9-25.54-12.67-42.87s-2.1-36.35-7.65-48.14S152,375.09,140.86,381.63C86.3,413.53-15.75,344.36,35.5,254.78Z"/><path class="cls-74" d="M36,254.79c18.53-32.39,57.84-25.07,86.89-33.37s41.75-55.15,54.89-79.36,31.12-40.81,50.49-47.72,53.58,13.89,74.33-1.32S310.05,66.66,333,55.7C368.65,38.58,386.1,79.77,381.26,95s-14.69,15.26-17.46,24.25-.82,14.65,13.83,16.59c24.58,3.26,13.14,24.21,17.29,38.73s26.28,16.6,33.2,11.07,26-9.66,36.09-4.38c14.42,7.55,21.08,33.45.07,47.23-22.68,14.87-34.29,1.87-38.35,21-13.67,64.42-111.86,110.68-93.25,128.41,18.84,17.94,8.81,71-48.6,86.19-27.7,7.35-65.67-6.15-76.36-30-7.28-16.22-9.89-25.47-12.65-42.76s-2.1-36.28-7.63-48-35.18,31.51-46.34,38C86.66,413.18-15.16,344.17,36,254.79Z"/><path class="cls-75" d="M36.46,254.8c18.49-32.32,57.71-25,86.69-33.29s41.66-55,54.77-79.19S209,101.61,228.29,94.71s53.47,13.86,74.17-1.32S310,67,332.62,56.05C368.16,38.88,385.79,80.18,381,95.36s-14.65,15.22-17.42,24.19-.82,14.62,13.81,16.56c24.51,3.25,13.11,24.15,17.25,38.64s26.22,16.57,33.12,11,25.95-9.64,36-4.37c14.38,7.54,21,33.38.07,47.13-22.63,14.83-34.21,1.86-38.27,21-13.63,64.28-111.61,110.43-93,128.12,18.8,17.9,8.79,70.82-48.48,86-27.64,7.33-65.53-6.13-76.2-29.91-7.26-16.19-9.86-25.42-12.62-42.67s-2.09-36.19-7.61-47.92-35.1,31.44-46.23,37.95C87,412.84-14.56,344,36.46,254.8Z"/><path class="cls-76" d="M36.94,254.81c18.45-32.24,57.58-25,86.5-33.22s41.56-54.91,54.64-79,31-40.62,50.26-47.5,53.35,13.83,74-1.32,7.54-26.48,29.92-37.35c35.42-17.23,53.23,24.17,48.41,39.32S366,110.91,363.29,119.86s-.82,14.59,13.77,16.53c24.46,3.24,13.08,24.1,17.21,38.55s26.16,16.53,33.05,11,25.89-9.62,35.93-4.36c14.35,7.52,21,33.3.07,47-22.58,14.8-34.14,1.85-38.18,20.92-13.61,64.12-111.36,110.18-92.83,127.82,18.75,17.86,8.76,70.67-48.38,85.81-27.58,7.31-65.38-6.12-76-29.84-7.25-16.15-9.84-25.37-12.6-42.58s-2.08-36.11-7.59-47.81-35,31.37-46.13,37.86C87.4,412.49-14,343.79,36.94,254.81Z"/><path class="cls-77" d="M37.42,254.82c18.41-32.17,57.45-24.9,86.3-33.14s41.47-54.79,54.52-78.83,30.92-40.53,50.15-47.4,53.23,13.8,73.84-1.32,7.57-26.55,29.67-37.36C367.2,39.48,385.18,81,380.37,96.09S365.78,111.25,363,120.18s-.82,14.55,13.74,16.48c24.41,3.24,13.05,24.05,17.18,38.47s26.1,16.49,33,11,25.83-9.59,35.85-4.35c14.32,7.51,20.94,33.23.06,46.91-22.52,14.77-34.05,1.86-38.09,20.88-13.57,64-111.1,109.93-92.62,127.54,18.71,17.82,8.75,70.5-48.27,85.61-27.51,7.3-65.23-6.11-75.85-29.78-7.23-16.11-9.82-25.3-12.56-42.48s-2.08-36-7.58-47.7-35,31.3-46,37.78C87.76,412.15-13.37,343.6,37.42,254.82Z"/></g><path class="cls-78" d="M24.55,250.47c18.87-33,58.91-25.54,88.49-34S155.57,160.3,169,135.65s31.7-41.56,51.42-48.6S275,101.2,296.08,85.7s8.4-27.22,30.43-38.32c36-18.12,54.63,24.83,49.7,40.33s-15,15.54-17.78,24.7-.84,14.92,14.09,16.9c25,3.32,13.39,24.66,17.61,39.45s26.77,16.9,33.81,11.27,26.49-9.84,36.76-4.46c14.68,7.69,21.47,34.06.07,48.1-23.09,15.14-34.92,1.9-39.06,21.4-13.92,65.61-113.93,112.73-95,130.78,19.18,18.27,9,72.29-49.5,87.79-28.21,7.48-66.88-6.26-77.78-30.53-7.41-16.53-10.06-25.95-12.88-43.56s-2.13-36.95-7.77-48.92-35.83,32.1-47.19,38.74C76.17,411.79-27.53,341.5,24.55,250.47Z"/><circle class="cls-79" cx="70.35" cy="304.57" r="48.52"/><circle class="cls-80" cx="316.45" cy="155.45" r="48.52"/><circle class="cls-81" cx="243.71" cy="380.94" r="55.59"/></g><g id="shape"><path class="cls-82" d="M440.51,169.75c12.85,3.38,19.73,23.83,21.69,32.39,12.31,53.55,9,92.15-16.3,144.27-25.34,55-79.93,83.15-131.21,90.52a38.82,38.82,0,0,1-6.09.44c-36.1-.63-29.25-49.77-64.9-38.95-63,19.12-80.88,42.26-115.71-16.85-.63-1.07-1.3-2.13-2-3.14-5.86-8.43-10.78-15.56-15.25-23-14-23.28-45.3-32.21-50.78-59.16-18.48-90.81,79.85-74.67,68.73-106.76C87.57,71,184.53,45.77,238.5,46c38.3.18,96.92,25.31,101,64.48C348.88,199.62,404,160.17,440.51,169.75Z"/><g class="cls-83"><path class="cls-84" d="M420.77,194.25c13.57,3.47,20.84,24.47,22.92,33.26,13,55,4.94,89.64-21.83,143.17-26.77,56.51-79.87,90.42-134,98a42,42,0,0,1-6.44.45c-38.15-.64-41.56-49.71-78.44-36.23-121,44.26-118-46.3-120.89-54.81C67.18,334,35.59,354.86,25.69,323.27-4,228.5,129.55,245.7,117.79,212.74,74.36,91,150.27,66.91,207.3,67.17c40.47.19,102.41,26,106.76,66.24C323.93,224.93,382.22,184.41,420.77,194.25Z"/><path class="cls-85" d="M421.48,193.32c13.58,3.46,20.85,24.47,22.93,33.26,13,55,4.58,89.59-21.61,143.4a177,177,0,0,1-134.27,97.76,40.76,40.76,0,0,1-6.44.44c-38.15-.64-41.56-49.71-78.44-36.22-121,44.25-118-46.31-120.89-54.81-14.86-44.06-46.45-23.23-56.35-54.82C-3.31,227.57,129,244.85,117.25,211.9,73.81,90.14,151,66,208,66.24c40.47.19,102.41,26,106.76,66.23C324.65,224,382.94,183.48,421.48,193.32Z"/><path class="cls-86" d="M422.2,192.38c13.58,3.47,20.85,24.47,22.93,33.26,13,55,4.8,89.83-21.39,143.65-27.37,56.22-80.31,89.94-134.49,97.51a42,42,0,0,1-6.44.45c-38.15-.64-41.56-49.71-78.44-36.23-121,44.26-118-46.3-120.9-54.81C68.62,332.16,37,353,27.13,321.4-2.59,226.63,128.46,244,116.7,211.05c-43.43-121.75,35-146,92-145.75,40.47.19,102.41,26,106.75,66.24C325.37,223.06,383.66,182.54,422.2,192.38Z"/><path class="cls-87" d="M422.92,191.45c13.58,3.46,20.85,24.47,22.92,33.26,13,55,5,90.07-21.17,143.88-27.36,56.23-80.52,89.7-134.7,97.28a40.85,40.85,0,0,1-6.44.44c-38.15-.64-41.56-49.71-78.44-36.22-121,44.25-118-46.31-120.9-54.81-14.85-44.06-46.44-23.23-56.35-54.82C-1.87,225.7,127.91,243.15,116.16,210.2,72.72,88.45,152.43,64.11,209.46,64.37c40.47.19,102.41,26,106.75,66.23C326.09,222.12,384.38,181.61,422.92,191.45Z"/><path class="cls-88" d="M423.64,190.51c13.58,3.47,20.85,24.47,22.92,33.26,13,55,5.25,90.31-20.95,144.12-27.37,56.23-80.74,89.47-134.92,97a42.17,42.17,0,0,1-6.44.45c-38.15-.64-41.56-49.71-78.44-36.23-121,44.26-118-46.3-120.9-54.81-14.85-44-46.44-23.22-56.35-54.81-29.71-94.77,98.81-77.23,87.05-110.18C72.18,87.6,153.15,63.17,210.18,63.44c40.47.18,102.41,26,106.75,66.23C326.81,221.19,385.1,180.67,423.64,190.51Z"/><path class="cls-89" d="M424.36,189.58c13.58,3.46,20.85,24.47,22.92,33.26,13,55,5.47,90.54-20.73,144.36-27.37,56.22-81,89.23-135.14,96.8a40.93,40.93,0,0,1-6.44.44c-38.15-.64-41.56-49.71-78.44-36.22-121,44.25-118-46.31-120.9-54.81-14.85-44.06-46.44-23.23-56.35-54.82-29.71-94.76,97.54-77.13,85.79-110.09C71.64,86.75,153.87,62.24,210.9,62.5c40.47.19,102.41,26,106.75,66.23C327.53,220.25,385.82,179.74,424.36,189.58Z"/><path class="cls-90" d="M425.08,188.64c13.58,3.47,20.85,24.47,22.92,33.26,13,55,5.68,90.79-20.51,144.6-27.37,56.23-81.18,89-135.36,96.56a42.17,42.17,0,0,1-6.44.45c-38.15-.64-41.56-49.71-78.44-36.23-121,44.26-118-46.3-120.9-54.81C71.5,328.42,39.91,349.25,30,317.66c-29.71-94.77,96.28-77.05,84.52-110C71.09,85.9,154.59,61.3,211.62,61.57c40.47.18,102.41,26,106.75,66.23C328.25,219.32,386.54,178.8,425.08,188.64Z"/><path class="cls-91" d="M425.8,187.71c13.58,3.46,20.84,24.47,22.92,33.26,13,55,5.9,91-20.29,144.84C401.06,422,347,454.56,292.85,462.13a40.93,40.93,0,0,1-6.44.44c-38.15-.64-41.56-49.71-78.44-36.22-121,44.25-118-46.31-120.9-54.81-14.85-44.06-46.45-23.23-56.35-54.82C1,222,125.73,239.76,114,206.8,70.55,85.05,155.3,60.37,212.34,60.63c40.47.19,102.41,26,106.75,66.23C329,218.38,387.26,177.87,425.8,187.71Z"/><path class="cls-92" d="M426.52,186.77c13.57,3.47,20.84,24.47,22.92,33.26,13,55,6.12,91.27-20.08,145.08-27.36,56.23-81.61,88.51-135.79,96.08a42.17,42.17,0,0,1-6.44.45c-38.15-.64-41.56-49.71-78.45-36.23-121,44.26-118-46.3-120.89-54.81-14.86-44.05-46.45-23.22-56.35-54.81C1.73,221,125.19,238.91,113.43,206,70,84.2,156,59.43,213.06,59.7c40.47.18,102.41,26,106.75,66.23C329.69,217.45,388,176.93,426.52,186.77Z"/><path class="cls-93" d="M427.24,185.84c13.57,3.46,20.84,24.47,22.92,33.26,13,55,6.34,91.5-19.86,145.31-27.37,56.23-81.83,88.28-136,95.85a40.93,40.93,0,0,1-6.44.44c-38.15-.64-41.57-49.71-78.45-36.22-121,44.25-118-46.31-120.89-54.81-14.86-44.06-46.45-23.23-56.35-54.82-29.71-94.76,92.48-76.79,80.73-109.74C69.46,83.36,156.74,58.5,213.78,58.76c40.47.19,102.41,26,106.75,66.23C330.41,216.51,388.69,176,427.24,185.84Z"/><path class="cls-94" d="M428,184.9c13.57,3.47,20.84,24.47,22.92,33.26,13,55,6.56,91.74-19.64,145.56-27.37,56.22-82.05,88-136.24,95.6a42,42,0,0,1-6.44.45c-38.14-.64-41.56-49.71-78.44-36.23-121,44.26-118-46.3-120.89-54.81-14.86-44.05-46.45-23.22-56.35-54.81-29.71-94.77,91.22-76.71,79.46-109.66C68.91,82.51,157.46,57.56,214.5,57.83c40.47.18,102.41,26,106.75,66.23C331.13,215.58,389.41,175.06,428,184.9Z"/><path class="cls-95" d="M428.68,184c13.57,3.46,20.84,24.47,22.92,33.26,13,55,6.77,92-19.42,145.79-27.37,56.23-82.27,87.8-136.46,95.37a40.76,40.76,0,0,1-6.44.44c-38.14-.64-41.56-49.71-78.44-36.22C89.82,466.86,92.82,376.3,90,367.8,75.09,323.74,43.5,344.57,33.6,313c-29.71-94.76,89.95-76.62,78.2-109.57C68.37,81.66,158.18,56.63,215.22,56.89c40.47.19,102.41,26,106.75,66.23C331.84,214.64,390.13,174.13,428.68,184Z"/><path class="cls-96" d="M429.4,183c13.57,3.47,20.84,24.47,22.92,33.26,13,55,7,92.22-19.2,146-27.37,56.22-82.5,87.55-136.68,95.12a42,42,0,0,1-6.44.45c-38.15-.64-41.56-49.71-78.44-36.23-121,44.26-118-46.3-120.89-54.81-14.86-44.05-46.45-23.22-56.35-54.81C4.61,217.28,123,235.52,111.25,202.56,67.82,80.81,158.9,55.69,215.93,56c40.48.18,102.41,26,106.76,66.23C332.56,213.71,390.85,173.19,429.4,183Z"/><path class="cls-97" d="M430.12,182.1c13.57,3.46,20.84,24.47,22.92,33.26,13,55,7.21,92.46-19,146.27-27.37,56.23-82.72,87.32-136.9,94.89a40.76,40.76,0,0,1-6.44.44c-38.15-.64-41.56-49.71-78.44-36.22-121,44.25-118-46.31-120.89-54.81C76.53,321.87,44.94,342.7,35,311.11c-29.71-94.76,87.42-76.44,75.67-109.4C67.28,80,159.62,54.76,216.65,55c40.47.19,102.41,26,106.76,66.23C333.28,212.77,391.57,172.26,430.12,182.1Z"/><path class="cls-98" d="M430.83,181.16c13.58,3.47,20.85,24.47,22.93,33.26,13,55,7.43,92.7-18.77,146.51-27.37,56.23-82.93,87.08-137.11,94.65a42,42,0,0,1-6.44.45c-38.15-.64-41.56-49.71-78.44-36.23C92,464.06,95,373.5,92.11,365c-14.86-44.05-46.45-23.22-56.35-54.81C6,215.41,121.92,233.82,110.16,200.86,66.73,79.11,160.34,53.82,217.37,54.09c40.47.18,102.41,26,106.76,66.23C334,211.84,392.29,171.32,430.83,181.16Z"/><path class="cls-99" d="M431.55,180.23c13.58,3.46,20.85,24.47,22.93,33.26,13,55,7.65,92.93-18.55,146.75-27.37,56.22-83.15,86.84-137.33,94.41a40.76,40.76,0,0,1-6.44.44c-38.15-.64-41.56-49.71-78.44-36.22-121,44.25-118-46.31-120.9-54.81C78,320,46.38,340.83,36.48,309.24,6.76,214.48,121.38,233,109.62,200,66.19,78.26,161.06,52.89,218.09,53.15c40.47.19,102.41,26,106.75,66.23C334.72,210.9,393,170.39,431.55,180.23Z"/><path class="cls-100" d="M432.27,179.29c13.58,3.47,20.85,24.47,22.92,33.26,13,55,7.87,93.18-18.32,147-27.37,56.23-83.37,86.6-137.55,94.17a42.08,42.08,0,0,1-6.44.45c-38.15-.64-41.56-49.71-78.44-36.23-121,44.26-118-46.3-120.9-54.81C78.69,319.07,47.1,339.9,37.19,308.31c-29.71-94.77,83.64-76.19,71.89-109.14C65.64,77.42,161.78,52,218.81,52.22c40.47.18,102.41,26,106.75,66.23C335.44,210,393.73,169.45,432.27,179.29Z"/><path class="cls-101" d="M433,178.36c13.58,3.46,20.85,24.47,22.92,33.26,13,55,8.09,93.41-18.1,147.23-27.37,56.22-83.59,86.36-137.77,93.93a40.93,40.93,0,0,1-6.44.44c-38.15-.64-41.56-49.71-78.44-36.22-121,44.25-118-46.31-120.9-54.81C79.41,318.13,47.82,339,37.91,307.37c-29.71-94.76,82.38-76.1,70.62-109-43.43-121.75,54-147.3,111-147,40.47.19,102.41,26,106.75,66.23C336.16,209,394.45,168.52,433,178.36Z"/><path class="cls-102" d="M433.71,177.42c13.58,3.47,20.85,24.47,22.92,33.26,13,55,8.31,93.66-17.88,147.47-27.37,56.23-83.81,86.12-138,93.69a42.17,42.17,0,0,1-6.44.45c-38.15-.64-41.56-49.71-78.44-36.23-121,44.26-118-46.3-120.9-54.81C80.13,317.2,48.54,338,38.63,306.44c-29.71-94.77,81.11-76,69.36-109C64.55,75.72,163.22,50.08,220.25,50.35c40.47.18,102.41,26,106.75,66.23C336.88,208.1,395.17,167.58,433.71,177.42Z"/><path class="cls-103" d="M434.43,176.49C448,180,455.28,201,457.35,209.75c13,55,8.53,93.89-17.67,147.7-27.37,56.23-84,85.89-138.2,93.46a40.93,40.93,0,0,1-6.44.44c-38.15-.64-41.56-49.71-78.44-36.22-121,44.25-118-46.31-120.9-54.81-14.85-44.06-46.44-23.23-56.35-54.82-29.71-94.76,79.85-75.92,68.09-108.88C64,74.87,163.94,49.15,221,49.41c40.47.19,102.41,26,106.75,66.23C337.6,207.16,395.89,166.65,434.43,176.49Z"/><path class="cls-104" d="M435.15,175.55C448.73,179,456,200,458.07,208.81c13,55,8.75,94.13-17.45,148C413.25,413,356.38,442.4,302.2,450a42.17,42.17,0,0,1-6.44.45c-38.15-.64-41.56-49.71-78.44-36.23-121,44.26-118-46.3-120.9-54.81C81.56,315.33,50,336.16,40.07,304.57c-29.71-94.77,78.58-75.84,66.83-108.8C63.46,74,164.65,48.21,221.69,48.48c40.47.18,102.41,26,106.75,66.23C338.32,206.23,396.61,165.71,435.15,175.55Z"/><path class="cls-105" d="M435.87,174.62c13.57,3.46,20.84,24.47,22.92,33.26,13,55,9.54,94.65-17.23,148.18-26.77,56.52-84.46,85.41-138.64,93a40.93,40.93,0,0,1-6.44.44c-38.15-.64-41.56-49.71-78.45-36.22C97,457.51,100,367,97.14,358.45c-14.86-44.06-46.45-23.23-56.35-54.82-29.71-94.76,77.32-75.75,65.56-108.71C62.92,73.17,165.37,47.28,222.41,47.54c40.47.19,102.41,26,106.75,66.23C339,205.29,397.33,164.78,435.87,174.62Z"/></g><path class="cls-106" d="M435.87,174.62c13.57,3.46,20.84,24.47,22.92,33.26,13,55,9.54,94.65-17.23,148.18-26.77,56.52-84.46,85.41-138.64,93a40.93,40.93,0,0,1-6.44.44c-38.15-.64-41.56-49.71-78.45-36.22C97,457.51,100,367,97.14,358.45,84.85,322,61.09,330,47.65,315.9c-4.15-4.35-5.71-9.34-6.86-12.27-1.55-3.93-2.65-8.13-5.21-28.07-.5-4-.9-7.21-1.15-9.34a79.68,79.68,0,0,1,.86-14.29,69.58,69.58,0,0,1,7.52-23.71c6.39-11.64,15.8-21.36,25.9-30,8.6-7.36,17.9-14.16,24.49-23.37,4.85-6.77,8.62-15.15,6-23.48-1-3.1-2.36-6.08-3-9.27a27.64,27.64,0,0,1-.11-11.24c1.19-4.82,1.77-9.81,3.13-14.63a77.94,77.94,0,0,1,10-22c13.42-20.14,35.57-32.33,58.29-39.09a189.52,189.52,0,0,1,54.85-7.6c40.47.19,102.41,26,106.75,66.23C339,205.29,397.33,164.78,435.87,174.62Z"/></g><g id="elements"><rect class="cls-107" x="126.75" y="22.5" width="3.19" height="115.6" rx="1.28" transform="translate(-21.04 104.87) rotate(-41.37)"/><rect class="cls-108" x="101.07" y="-16.06" width="3.56" height="80.85" rx="1.28" transform="translate(9.56 74.06) rotate(-41.37)"/><rect class="cls-109" x="483.48" y="297.36" width="3.77" height="63.26" rx="1.28" transform="translate(-96.32 402.92) rotate(-41.37)"/><rect class="cls-110" x="166.88" y="342.91" width="3.19" height="53.58" rx="1.28" transform="translate(-202.31 203.62) rotate(-41.37)"/><rect class="cls-110" x="162.24" y="324.09" width="3.19" height="30.55" rx="1.04" transform="translate(-183.42 192.99) rotate(-41.37)"/><rect class="cls-111" x="483.48" y="321.61" width="3.77" height="63.26" rx="1.28" transform="translate(-112.34 408.97) rotate(-41.37)"/><circle class="cls-112" cx="51.58" cy="69.87" r="15.12"/><circle class="cls-113" cx="302.5" cy="355.57" r="7.9"/><circle class="cls-114" cx="59.04" cy="461.15" r="8.95"/><circle class="cls-115" cx="455.28" cy="145.65" r="9.42"/><g id="circle"><g class="cls-83"><circle class="cls-116" cx="381.99" cy="459.91" r="12.58"/><circle class="cls-117" cx="381.99" cy="459.91" r="12.24"/><circle class="cls-118" cx="381.99" cy="459.91" r="11.9"/><circle class="cls-119" cx="381.99" cy="459.91" r="11.57"/><circle class="cls-120" cx="381.99" cy="459.91" r="11.23"/><circle class="cls-121" cx="381.99" cy="459.91" r="10.89"/><circle class="cls-122" cx="381.99" cy="459.91" r="10.56"/><circle class="cls-123" cx="381.99" cy="459.91" r="10.22"/><circle class="cls-124" cx="381.99" cy="459.91" r="9.88"/><circle class="cls-125" cx="381.99" cy="459.91" r="9.54"/><circle class="cls-126" cx="381.99" cy="459.91" r="9.21"/><circle class="cls-127" cx="381.99" cy="459.91" r="8.87"/><circle class="cls-128" cx="381.99" cy="459.91" r="8.53"/><circle class="cls-129" cx="381.99" cy="459.91" r="8.2"/></g><circle class="cls-130" cx="379.51" cy="457.43" r="10.3"/></g><g id="circle-2" data-name="circle"><g class="cls-83"><circle class="cls-131" cx="337.25" cy="21.4" r="9.14"/><circle class="cls-132" cx="337.25" cy="21.4" r="8.9"/><circle class="cls-133" cx="337.25" cy="21.4" r="8.65"/><circle class="cls-134" cx="337.25" cy="21.4" r="8.41"/><circle class="cls-135" cx="337.25" cy="21.4" r="8.16"/><circle class="cls-136" cx="337.25" cy="21.4" r="7.92"/><circle class="cls-137" cx="337.25" cy="21.4" r="7.67"/><circle class="cls-138" cx="337.25" cy="21.4" r="7.43"/><circle class="cls-139" cx="337.25" cy="21.4" r="7.18"/><circle class="cls-140" cx="337.25" cy="21.4" r="6.94"/><circle class="cls-141" cx="337.25" cy="21.4" r="6.69"/><circle class="cls-142" cx="337.25" cy="21.4" r="6.45"/><circle class="cls-143" cx="337.25" cy="21.4" r="6.2"/><circle class="cls-144" cx="337.25" cy="21.4" r="5.96"/></g><circle class="cls-145" cx="335.44" cy="19.6" r="7.49"/></g><path class="cls-146" d="M30.25,164.78l-6.72,3.35-3.18-6.38c-.52-1-1.11-1.81-2.16-1.29s-.78,1.45-.26,2.5l3.19,6.38-6.49,3.23a1.82,1.82,0,1,0,1.61,3.22l6.48-3.23,3,6c.52,1.05,1.11,1.82,2.16,1.3s.78-1.46.26-2.5l-3-6L31.86,168a1.82,1.82,0,1,0-1.61-3.22Z"/><path class="cls-147" d="M482.71,270.87l-6.21-1.27,1.2-5.89c.2-1,.21-1.79-.76-2s-1.27.56-1.47,1.52l-1.2,5.9-6-1.22a1.54,1.54,0,1,0-.6,3l6,1.22-1.13,5.56c-.19,1-.21,1.79.76,2s1.28-.56,1.47-1.52l1.14-5.56,6.2,1.26a1.54,1.54,0,1,0,.61-3Z"/><path class="cls-148" d="M198,488.65,191.54,490l-1.26-6.15c-.21-1-.54-1.8-1.54-1.59s-1,1.06-.79,2.07l1.26,6.15L183,491.75a1.61,1.61,0,1,0,.64,3.1l6.25-1.28,1.19,5.8c.21,1,.54,1.8,1.54,1.6s1-1.07.79-2.07l-1.19-5.81,6.48-1.33a1.61,1.61,0,1,0-.64-3.11Z"/><path class="cls-149" d="M456.76,87l-3.33,5.72L448,89.54c-.89-.52-1.7-.81-2.21.08s.13,1.46,1,2l5.43,3.16L449,100.27a1.61,1.61,0,1,0,2.74,1.6L455,96.35l5.12,3c.89.52,1.7.8,2.21-.09s-.12-1.45-1-2l-5.13-3,3.33-5.72A1.61,1.61,0,1,0,456.76,87Z"/><path class="cls-110" d="M230.35,104.06l-2.9,5-4.75-2.76c-.77-.45-1.48-.7-1.93.08s.11,1.27.89,1.72l4.74,2.76-2.8,4.82a1.4,1.4,0,1,0,2.39,1.39l2.81-4.82,4.47,2.6c.78.46,1.48.7,1.93-.07s-.11-1.27-.89-1.72l-4.47-2.6,2.91-5a1.41,1.41,0,1,0-2.4-1.39Z"/></g><g class="cls-150"><text class="cls-151" transform="translate(113.91 236.64)">UX<tspan class="cls-152" x="80.22" y="0"> </tspan><tspan class="cls-153" x="92.34" y="0">Wiza</tspan><tspan class="cls-154" x="218.52" y="0">r</tspan><tspan x="241.2" y="0">ds</tspan><tspan x="0" y="71.84" xml:space="preserve">  </tspan><tspan class="cls-155" x="26.52" y="71.84">P</tspan><tspan class="cls-153" x="61.68" y="71.84">od</tspan><tspan class="cls-156" x="126.48" y="71.84">c</tspan><tspan x="156.78" y="71.84">a</tspan><tspan class="cls-157" x="188.34" y="71.84">s</tspan><tspan x="215.58" y="71.84">t</tspan></text></g><text class="cls-158" transform="translate(108.11 233.17)">UX<tspan class="cls-152" x="80.22" y="0"> </tspan><tspan class="cls-153" x="92.34" y="0">Wiza</tspan><tspan class="cls-154" x="218.52" y="0">r</tspan><tspan x="241.2" y="0">ds</tspan><tspan x="0" y="71.84" xml:space="preserve">  </tspan><tspan class="cls-155" x="26.52" y="71.84">P</tspan><tspan class="cls-153" x="61.68" y="71.84">od</tspan><tspan class="cls-156" x="126.48" y="71.84">c</tspan><tspan x="156.78" y="71.84">a</tspan><tspan class="cls-157" x="188.34" y="71.84">s</tspan><tspan x="215.58" y="71.84">t</tspan></text></g><path class="cls-159" d="M458.88,64.43,436.93,78.08a.63.63,0,0,1-.87-.21l-13.65-22a.63.63,0,0,1,.21-.87l18.66-11.6a.62.62,0,0,1,.87.2.63.63,0,0,1-.2.87L423.82,55.79l13,20.88,20.88-13-6.49-10.44a.64.64,0,0,1,1.08-.67l6.82,11A.63.63,0,0,1,458.88,64.43Z"/><path class="cls-160" d="M443.28,64.52a.6.6,0,0,1-.47.08.65.65,0,0,1-.47-.44l-1.19-4a.7.7,0,0,1,0-.32l4.7-20.14a2.18,2.18,0,0,1,2.63-1.63l1,.23a2.18,2.18,0,0,1,1.63,2.63l-4.7,20.13a.54.54,0,0,1-.15.29l-2.84,3A.35.35,0,0,1,443.28,64.52ZM442.41,60l.83,2.77,2-2.12,4.66-20a.91.91,0,0,0-.68-1.1l-1-.24a.92.92,0,0,0-1.1.69Zm3.38,1Z"/><path class="cls-161" d="M446.12,61.47a.66.66,0,0,1-.48.08l-4-.94a.64.64,0,0,1-.48-.76.63.63,0,0,1,.76-.48l4,.94a.63.63,0,0,1,.47.76A.65.65,0,0,1,446.12,61.47Z"/><path class="cls-162" d="M443.05,65.53a.66.66,0,0,1-.48.08.63.63,0,0,1-.47-.76l.23-1a.64.64,0,0,1,1.24.29l-.24,1A.65.65,0,0,1,443.05,65.53Z"/><path class="cls-163" d="M450.53,42.59a.66.66,0,0,1-.48.08l-4-.94a.63.63,0,0,1-.47-.76.64.64,0,0,1,.76-.48l4,.94a.63.63,0,0,1,.47.76A.65.65,0,0,1,450.53,42.59Z"/><path class="cls-164" d="M444.11,61a.66.66,0,0,1-.48.08.63.63,0,0,1-.47-.76l4.4-18.88a.64.64,0,0,1,.76-.48.63.63,0,0,1,.48.76L444.39,60.6A.65.65,0,0,1,444.11,61Z"/><path class="cls-165" d="M438,62.19l-7.9,4.91a.63.63,0,0,1-.87-.21.63.63,0,0,1,.2-.87l7.9-4.91a.65.65,0,0,1,.88.2A.65.65,0,0,1,438,62.19Z"/><path class="cls-166" d="M441,67l-7.9,4.91a.63.63,0,0,1-.87-.21.63.63,0,0,1,.2-.87l7.9-4.91a.65.65,0,0,1,.88.2A.65.65,0,0,1,441,67Z"/><path class="cls-167" d="M458.71,64.39a.66.66,0,0,1-.48.08l-10-2.34a.63.63,0,0,1-.47-.76.64.64,0,0,1,.76-.48l10,2.35A.62.62,0,0,1,459,64,.66.66,0,0,1,458.71,64.39Z"/><path class="cls-168" d="M438.65,59.71a.66.66,0,0,1-.48.08l-15.54-3.63a.63.63,0,1,1,.29-1.23l15.54,3.62a.63.63,0,0,1,.47.76A.65.65,0,0,1,438.65,59.71Z"/><path class="cls-169" d="M41.15,39.78l-2.09,1.27a.61.61,0,0,1-.84-.2.6.6,0,0,1,.2-.84l1.57-1-1-1.57a.61.61,0,0,1,1.05-.63l1.27,2.09A.62.62,0,0,1,41.15,39.78Z"/><path class="cls-170" d="M34.42,43.87l-4.64,2.81a.61.61,0,0,1-.84-.2.62.62,0,0,1,.21-.84l4.64-2.82a.61.61,0,1,1,.63,1ZM25.15,49.5l-4.64,2.82a.61.61,0,0,1-.63-1l4.63-2.81a.61.61,0,0,1,.64,1Z"/><path class="cls-171" d="M15.87,55.13l-2.09,1.28a.61.61,0,0,1-.84-.21l-1.27-2.09a.62.62,0,0,1,.2-.84.63.63,0,0,1,.85.21L13.67,55l1.57-.95a.61.61,0,0,1,.84.2A.61.61,0,0,1,15.87,55.13Z"/><path class="cls-172" d="M9.73,49.74a.6.6,0,0,1-.84-.2L6.11,45a.61.61,0,1,1,1-.64L9.93,48.9A.6.6,0,0,1,9.73,49.74Z"/><path class="cls-173" d="M4.17,40.59a.63.63,0,0,1-.85-.21L2.06,38.29a.61.61,0,0,1,.2-.84l2.1-1.27a.61.61,0,1,1,.63,1l-1.57,1,1,1.57A.61.61,0,0,1,4.17,40.59Z"/><path class="cls-174" d="M23.54,26,18.9,28.77a.61.61,0,0,1-.84-.2.61.61,0,0,1,.21-.84l4.63-2.82a.63.63,0,0,1,.85.21A.62.62,0,0,1,23.54,26Zm-9.27,5.63L9.63,34.41a.61.61,0,0,1-.84-.21.61.61,0,0,1,.2-.84l4.64-2.81a.6.6,0,0,1,.84.2A.61.61,0,0,1,14.27,31.59Z"/><path class="cls-175" d="M31.54,24a.61.61,0,0,1-.84-.21l-.95-1.57-1.57,1a.61.61,0,1,1-.64-1.05l2.1-1.27a.62.62,0,0,1,.84.21l1.27,2.09A.62.62,0,0,1,31.54,24Z"/><path class="cls-176" d="M37.1,33.11a.61.61,0,0,1-.84-.2l-2.78-4.58a.61.61,0,0,1,1.05-.64l2.78,4.58A.62.62,0,0,1,37.1,33.11Z"/><path class="cls-177" d="M26.45,45.21a.62.62,0,0,1-.5.06L17.5,42.8l-2,8.84a.61.61,0,0,1-.73.46.62.62,0,0,1-.47-.73l2.15-9.47a.66.66,0,0,1,.29-.4.62.62,0,0,1,.48-.06L26.3,44.1a.61.61,0,0,1,.42.76A.68.68,0,0,1,26.45,45.21Z"/><path class="cls-178" d="M36.5,39.1a.64.64,0,0,1-.47.07l-9-2.26-1.85,5.53a.6.6,0,0,1-.77.38.61.61,0,0,1-.39-.77l2-6.06a.61.61,0,0,1,.73-.4L36.33,38a.6.6,0,0,1,.44.74A.61.61,0,0,1,36.5,39.1Z"/><path class="cls-179" d="M21.8,37.81a3.11,3.11,0,1,1,1.05-4.27A3.11,3.11,0,0,1,21.8,37.81Zm-2.59-4.26a1.88,1.88,0,1,0,2.6.63A1.88,1.88,0,0,0,19.21,33.55Z"/><path class="cls-180" d="M22.45,444.33h-.1a1.06,1.06,0,0,1-.91-.72L8.53,404.88a1.07,1.07,0,0,1,1.35-1.35l38.73,12.91a1.07,1.07,0,0,1,.18,1.94l-16.26,9.15-9.15,16.26A1.06,1.06,0,0,1,22.45,444.33ZM11.22,406.22,22.7,440.65l8.12-14.43a1,1,0,0,1,.4-.4l14.43-8.12Z"/><path class="cls-181" d="M31.88,427.94a1.06,1.06,0,0,1-.76-.31l-9.83-9.84a1.06,1.06,0,0,1,1.5-1.5l9.84,9.83a1.07,1.07,0,0,1-.75,1.82Z"/><path class="cls-182" d="M15,411a1.06,1.06,0,0,1-.75-.32l-5.53-5.53a1.06,1.06,0,0,1,1.5-1.5l5.53,5.53A1.07,1.07,0,0,1,15,411Z"/><path class="cls-183" d="M19.58,415.65a1.06,1.06,0,0,1-.75-.32l-2.46-2.45a1.07,1.07,0,0,1,1.51-1.51l2.45,2.46a1.07,1.07,0,0,1-.75,1.82Z"/></g></g></svg>